<svg width="737" height="611" viewBox="0 0 737 611" fill="none" xmlns="http://www.w3.org/2000/svg">
<g filter="url(#filter0_d_1203_1078)">
<rect x="65.5" y="26.043" width="376.492" height="279.047" rx="18.8246" fill="white"/>
</g>
<path d="M95.6413 62.8166C95.608 62.8996 95.5084 62.8996 95.4752 62.8166L92.5186 52.8506C92.4854 52.7842 92.4521 52.7675 92.4023 52.7675H89.7115C89.6617 52.7675 89.6285 52.8008 89.6285 52.8506V64.3779C89.6285 64.4277 89.6617 64.4609 89.7115 64.4609H91.1234C91.1732 64.4609 91.2064 64.4277 91.2064 64.3779V54.4285C91.2064 54.3289 91.3393 54.3123 91.3725 54.4119L94.2958 64.3779C94.3125 64.4277 94.3789 64.4609 94.4287 64.4609H96.6877C96.7375 64.4609 96.8039 64.4277 96.8206 64.3779L99.7439 54.4119C99.7605 54.3289 99.91 54.3123 99.91 54.4285V64.3779C99.91 64.4277 99.9432 64.4609 99.9931 64.4609H101.405C101.455 64.4609 101.488 64.4277 101.488 64.3779V52.8506C101.488 52.8008 101.455 52.7675 101.405 52.7675H98.7141C98.6643 52.7675 98.631 52.7842 98.5978 52.8506L95.6413 62.8166ZM111.598 60.2586C111.598 57.6675 110.07 55.8902 107.479 55.8902C104.871 55.8902 103.36 57.6509 103.36 60.2586C103.36 62.8498 104.871 64.627 107.479 64.627C110.07 64.627 111.598 62.8498 111.598 60.2586ZM110.021 60.2586C110.021 61.9861 109.074 63.2152 107.479 63.2152C105.901 63.2152 104.938 61.9861 104.938 60.2586C104.938 58.5312 105.901 57.3021 107.479 57.3021C109.074 57.3021 110.021 58.5312 110.021 60.2586ZM113.328 56.0563C113.278 56.0563 113.245 56.0895 113.245 56.1394V64.3779C113.245 64.4277 113.278 64.4609 113.328 64.4609H114.739C114.789 64.4609 114.822 64.4277 114.822 64.3779V59.8102C114.822 58.5146 115.62 57.3021 117.015 57.3021C118.659 57.3021 119.224 58.5478 119.224 59.8102V64.3779C119.224 64.4277 119.257 64.4609 119.307 64.4609H120.719C120.769 64.4609 120.802 64.4277 120.802 64.3779V59.8102C120.802 57.6509 119.59 55.8902 117.181 55.8902C116.068 55.8902 115.354 56.4217 115.005 56.9034C114.972 56.9532 114.856 56.9865 114.822 56.8868L114.656 56.1394C114.64 56.0895 114.623 56.0563 114.573 56.0563H113.328ZM127.184 63.1321C127.184 63.0823 127.151 63.0491 127.101 63.0491H126.121C125.457 63.0491 125.224 62.7335 125.224 62.2186V57.3851C125.224 57.3353 125.258 57.3021 125.307 57.3021H127.101C127.151 57.3021 127.184 57.2688 127.184 57.219V56.1394C127.184 56.0895 127.151 56.0563 127.101 56.0563H125.307C125.258 56.0563 125.224 56.0231 125.224 55.9733V53.7309C125.224 53.6811 125.191 53.6479 125.141 53.6479H123.729C123.68 53.6479 123.646 53.6811 123.646 53.7309V55.9733C123.646 56.0231 123.613 56.0563 123.563 56.0563H122.085C122.035 56.0563 122.002 56.0895 122.002 56.1394V57.219C122.002 57.2688 122.035 57.3021 122.085 57.3021H123.563C123.613 57.3021 123.646 57.3353 123.646 57.3851V62.501C123.646 63.863 124.444 64.4942 125.822 64.4609H127.101C127.151 64.4609 127.184 64.4277 127.184 64.3779V63.1321ZM128.753 52.7675C128.704 52.7675 128.67 52.8008 128.67 52.8506V64.3779C128.67 64.4277 128.704 64.4609 128.753 64.4609H130.165C130.215 64.4609 130.248 64.4277 130.248 64.3779V59.8102C130.248 58.5146 131.046 57.3021 132.441 57.3021C134.085 57.3021 134.65 58.5478 134.65 59.8102V64.3779C134.65 64.4277 134.683 64.4609 134.733 64.4609H136.145C136.195 64.4609 136.228 64.4277 136.228 64.3779V59.8102C136.228 57.6509 135.181 55.8902 132.607 55.8902C131.743 55.8902 130.929 56.2722 130.431 56.9034C130.365 56.9865 130.248 56.9532 130.248 56.8702V52.8506C130.248 52.8008 130.215 52.7675 130.165 52.7675H128.753ZM139.822 52.8506C139.822 52.8008 139.788 52.7675 139.739 52.7675H138.327C138.277 52.7675 138.244 52.8008 138.244 52.8506V64.3779C138.244 64.4277 138.277 64.4609 138.327 64.4609H139.739C139.788 64.4609 139.822 64.4277 139.822 64.3779V52.8506ZM141.054 66.4209V67.6667C141.054 67.7165 141.087 67.7497 141.137 67.7497H143.296C144.642 67.7497 145.14 67.2514 145.622 65.906L146.103 64.4609L148.944 56.1394C148.96 56.0895 148.91 56.0563 148.861 56.0563H147.349C147.299 56.0563 147.283 56.0895 147.266 56.1394L145.074 62.8166C145.04 62.8996 144.941 62.8996 144.907 62.8166L142.732 56.1394C142.715 56.0895 142.698 56.0563 142.649 56.0563H141.137C141.087 56.0563 141.021 56.0729 141.037 56.1394L143.844 64.3779L143.994 64.8264C144.293 65.7067 143.994 66.3379 143.014 66.3379H141.137C141.087 66.3379 141.054 66.3711 141.054 66.4209ZM156.939 64.3779C156.939 64.4277 156.972 64.4609 157.022 64.4609H158.434C158.484 64.4609 158.517 64.4277 158.517 64.3779V54.2624C158.517 54.2126 158.55 54.1794 158.6 54.1794H161.805C161.855 54.1794 161.889 54.1462 161.889 54.0963V52.8506C161.889 52.8008 161.855 52.7675 161.805 52.7675H153.65C153.6 52.7675 153.567 52.8008 153.567 52.8506V54.0963C153.567 54.1462 153.6 54.1794 153.65 54.1794H156.856C156.889 54.1794 156.922 54.2126 156.939 54.2458V64.3779ZM165.941 57.3021C165.991 57.3021 166.024 57.2688 166.024 57.219V55.9733C166.024 55.9234 165.991 55.8902 165.941 55.8902H165.094C164.264 55.8902 163.649 56.3387 163.084 56.9034C163.034 56.9532 162.935 56.9865 162.902 56.8868L162.736 56.1394C162.719 56.0895 162.702 56.0563 162.652 56.0563H161.407C161.357 56.0563 161.324 56.0895 161.324 56.1394V64.3779C161.324 64.4277 161.357 64.4609 161.407 64.4609H162.819C162.868 64.4609 162.902 64.4277 162.902 64.3779V59.8102C162.902 58.5146 163.699 57.3021 165.094 57.3021H165.941ZM175.309 63.1321C175.309 63.0823 175.276 63.0491 175.226 63.0491H174.91C174.263 63.0491 174.196 62.7335 174.196 62.2186V58.963C174.196 56.9366 172.768 55.8902 170.475 55.8902C168.599 55.8902 166.855 56.8536 166.855 58.8136C166.855 58.8634 166.888 58.8966 166.938 58.8966H168.366C168.416 58.8966 168.449 58.8634 168.449 58.8136C168.449 57.9665 169.047 57.3021 170.475 57.3021C172.452 57.3021 172.618 58.2488 172.618 58.9298C172.618 59.2454 172.618 59.4447 172.07 59.4447H170.21C167.768 59.4447 166.556 60.5244 166.556 61.9694C166.556 63.5474 167.668 64.627 169.894 64.627C171.422 64.627 172.435 64.0789 172.834 63.6637C172.867 63.6304 172.95 63.6138 172.984 63.6969C173.233 64.2284 173.748 64.4775 174.628 64.4609H175.226C175.276 64.4609 175.309 64.4277 175.309 64.3779V63.1321ZM172.618 61.0061C172.585 62.0193 171.887 63.2152 169.878 63.2152C168.549 63.2152 168.133 62.5674 168.133 61.9694C168.133 61.3881 168.432 60.7735 170.21 60.6905H172.535C172.568 60.6905 172.618 60.7237 172.618 60.7735V61.0061ZM176.88 56.0563C176.83 56.0563 176.797 56.0895 176.797 56.1394V64.3779C176.797 64.4277 176.83 64.4609 176.88 64.4609H178.292C178.342 64.4609 178.375 64.4277 178.375 64.3779V59.8102C178.375 58.5146 179.172 57.3021 180.567 57.3021C182.212 57.3021 182.777 58.5478 182.777 59.8102V64.3779C182.777 64.4277 182.81 64.4609 182.86 64.4609H184.271C184.321 64.4609 184.355 64.4277 184.355 64.3779V59.8102C184.355 57.6509 183.142 55.8902 180.734 55.8902C179.621 55.8902 178.906 56.4217 178.558 56.9034C178.524 56.9532 178.408 56.9865 178.375 56.8868L178.209 56.1394C178.192 56.0895 178.176 56.0563 178.126 56.0563H176.88ZM193.095 58.8966C193.145 58.8966 193.162 58.8634 193.162 58.8136C193.162 56.8536 191.551 55.8902 189.508 55.8902C187.448 55.8902 186.136 57.0031 186.136 58.3651C186.136 60.4247 188.146 60.6739 189.74 60.8566C190.438 60.9396 191.816 61.0061 191.816 61.9528C191.816 63.0325 190.587 63.2152 189.74 63.2152C188.411 63.2152 187.564 62.5342 187.564 61.7037C187.564 61.6539 187.514 61.6206 187.465 61.6206H186.069C186.02 61.6206 185.986 61.6539 185.986 61.7037C185.986 63.2982 187.215 64.627 189.74 64.627C191.816 64.627 193.394 63.8464 193.394 61.9528C193.394 59.8268 191.401 59.6607 189.74 59.4447C188.91 59.3285 187.714 59.3119 187.714 58.3651C187.714 57.8502 188.262 57.3021 189.508 57.3021C190.853 57.3021 191.584 57.9 191.584 58.8136C191.584 58.8634 191.617 58.8966 191.667 58.8966H193.095ZM203.874 63.1321C203.874 63.0823 203.84 63.0491 203.79 63.0491H203.475C202.827 63.0491 202.761 62.7335 202.761 62.2186V58.963C202.761 56.9366 201.332 55.8902 199.04 55.8902C197.163 55.8902 195.419 56.8536 195.419 58.8136C195.419 58.8634 195.452 58.8966 195.502 58.8966H196.931C196.98 58.8966 197.014 58.8634 197.014 58.8136C197.014 57.9665 197.612 57.3021 199.04 57.3021C201.017 57.3021 201.183 58.2488 201.183 58.9298C201.183 59.2454 201.183 59.4447 200.635 59.4447H198.774C196.333 59.4447 195.12 60.5244 195.12 61.9694C195.12 63.5474 196.233 64.627 198.459 64.627C199.987 64.627 201 64.0789 201.399 63.6637C201.432 63.6304 201.515 63.6138 201.548 63.6969C201.797 64.2284 202.312 64.4775 203.193 64.4609H203.79C203.84 64.4609 203.874 64.4277 203.874 64.3779V63.1321ZM201.183 61.0061C201.149 62.0193 200.452 63.2152 198.442 63.2152C197.113 63.2152 196.698 62.5674 196.698 61.9694C196.698 61.3881 196.997 60.7735 198.774 60.6905H201.1C201.133 60.6905 201.183 60.7237 201.183 60.7735V61.0061ZM213.231 58.8966C213.281 58.8966 213.33 58.88 213.314 58.8136C212.865 56.9865 211.47 55.8902 209.361 55.8902C206.753 55.8902 205.258 57.6509 205.258 60.2586C205.258 62.8498 206.753 64.627 209.361 64.627C211.47 64.627 212.849 63.5474 213.314 61.7037C213.33 61.6372 213.281 61.6206 213.231 61.6206H211.752C211.703 61.6206 211.669 61.6539 211.653 61.7037C211.287 62.6837 210.49 63.2152 209.361 63.2152C207.783 63.2152 206.836 61.9861 206.836 60.2586C206.836 58.5312 207.783 57.3021 209.361 57.3021C210.49 57.3021 211.287 57.8336 211.653 58.8136C211.669 58.8634 211.703 58.8966 211.752 58.8966H213.231ZM218.88 63.1321C218.88 63.0823 218.846 63.0491 218.797 63.0491H217.817C217.152 63.0491 216.92 62.7335 216.92 62.2186V57.3851C216.92 57.3353 216.953 57.3021 217.003 57.3021H218.797C218.846 57.3021 218.88 57.2688 218.88 57.219V56.1394C218.88 56.0895 218.846 56.0563 218.797 56.0563H217.003C216.953 56.0563 216.92 56.0231 216.92 55.9733V53.7309C216.92 53.6811 216.886 53.6479 216.837 53.6479H215.425C215.375 53.6479 215.342 53.6811 215.342 53.7309V55.9733C215.342 56.0231 215.308 56.0563 215.259 56.0563H213.78C213.73 56.0563 213.697 56.0895 213.697 56.1394V57.219C213.697 57.2688 213.73 57.3021 213.78 57.3021H215.259C215.308 57.3021 215.342 57.3353 215.342 57.3851V62.501C215.342 63.863 216.139 64.4942 217.518 64.4609H218.797C218.846 64.4609 218.88 64.4277 218.88 64.3779V63.1321ZM222.159 56.1394C222.159 56.0895 222.126 56.0563 222.076 56.0563H220.665C220.615 56.0563 220.582 56.0895 220.582 56.1394V64.3779C220.582 64.4277 220.615 64.4609 220.665 64.4609H222.076C222.126 64.4609 222.159 64.4277 222.159 64.3779V56.1394ZM222.326 52.8506C222.326 52.8008 222.292 52.7675 222.243 52.7675H220.498C220.449 52.7675 220.415 52.8008 220.415 52.8506V54.5946C220.415 54.6445 220.449 54.6777 220.498 54.6777H222.243C222.292 54.6777 222.326 54.6445 222.326 54.5946V52.8506ZM232.264 60.2586C232.264 57.6675 230.736 55.8902 228.145 55.8902C225.537 55.8902 224.025 57.6509 224.025 60.2586C224.025 62.8498 225.537 64.627 228.145 64.627C230.736 64.627 232.264 62.8498 232.264 60.2586ZM230.686 60.2586C230.686 61.9861 229.739 63.2152 228.145 63.2152C226.567 63.2152 225.603 61.9861 225.603 60.2586C225.603 58.5312 226.567 57.3021 228.145 57.3021C229.739 57.3021 230.686 58.5312 230.686 60.2586ZM233.993 56.0563C233.943 56.0563 233.91 56.0895 233.91 56.1394V64.3779C233.91 64.4277 233.943 64.4609 233.993 64.4609H235.405C235.455 64.4609 235.488 64.4277 235.488 64.3779V59.8102C235.488 58.5146 236.285 57.3021 237.68 57.3021C239.325 57.3021 239.889 58.5478 239.889 59.8102V64.3779C239.889 64.4277 239.923 64.4609 239.972 64.4609H241.384C241.434 64.4609 241.467 64.4277 241.467 64.3779V59.8102C241.467 57.6509 240.255 55.8902 237.846 55.8902C236.734 55.8902 236.019 56.4217 235.671 56.9034C235.637 56.9532 235.521 56.9865 235.488 56.8868L235.322 56.1394C235.305 56.0895 235.288 56.0563 235.239 56.0563H233.993ZM250.208 58.8966C250.258 58.8966 250.275 58.8634 250.275 58.8136C250.275 56.8536 248.663 55.8902 246.62 55.8902C244.561 55.8902 243.249 57.0031 243.249 58.3651C243.249 60.4247 245.258 60.6739 246.853 60.8566C247.551 60.9396 248.929 61.0061 248.929 61.9528C248.929 63.0325 247.7 63.2152 246.853 63.2152C245.524 63.2152 244.677 62.5342 244.677 61.7037C244.677 61.6539 244.627 61.6206 244.577 61.6206H243.182C243.132 61.6206 243.099 61.6539 243.099 61.7037C243.099 63.2982 244.328 64.627 246.853 64.627C248.929 64.627 250.507 63.8464 250.507 61.9528C250.507 59.8268 248.514 59.6607 246.853 59.4447C246.023 59.3285 244.827 59.3119 244.827 58.3651C244.827 57.8502 245.375 57.3021 246.62 57.3021C247.966 57.3021 248.697 57.9 248.697 58.8136C248.697 58.8634 248.73 58.8966 248.78 58.8966H250.208Z" fill="black"/>
<path d="M100.921 90.7609C103.141 89.6509 104.341 87.8209 104.341 85.8409C104.341 82.9909 101.911 80.7409 97.8307 80.7409C93.5407 80.7409 91.1107 83.3509 91.1107 86.2309C91.1107 88.4509 92.3407 89.9809 94.2607 91.0909C91.3507 92.4109 89.8807 94.4809 89.8807 96.9409C89.8807 100.271 93.0607 102.941 97.7407 102.941C102.391 102.941 105.661 100.301 105.661 96.7309C105.661 93.7309 103.531 92.0209 100.921 90.7609ZM97.8907 82.4209C100.441 82.4209 101.791 84.0709 101.791 86.1709C101.791 87.7309 100.921 89.1409 99.2407 90.0109C99.1207 89.9809 99.0307 89.9209 98.9107 89.8909C96.3307 88.8709 93.9607 88.0909 93.9607 85.7209C93.9607 83.7709 95.5507 82.4209 97.8907 82.4209ZM97.7407 101.231C94.6507 101.231 92.5507 99.2509 92.5507 96.7309C92.5507 94.6009 93.7507 92.8909 96.0607 91.9309H96.0907C99.5407 93.2809 102.841 94.3309 102.841 97.2709C102.841 99.9709 100.231 101.231 97.7407 101.231ZM115.904 88.4209C113.804 88.4209 112.124 89.2909 110.954 90.4909C111.104 86.1109 112.664 82.8109 116.144 82.8109C117.674 82.8109 118.694 83.4409 119.324 83.8609C119.654 84.1009 119.924 84.2809 120.254 84.2809C120.704 84.2809 121.004 83.9509 121.004 83.5009C121.004 82.9909 120.644 82.6009 120.134 82.2109C119.234 81.5209 117.734 80.8309 115.754 80.8309C110.444 80.8309 107.684 85.7509 107.684 92.4409C107.684 99.6109 110.834 102.881 115.394 102.881C119.504 102.881 122.684 99.7909 122.684 95.4109C122.684 91.1209 119.654 88.4209 115.904 88.4209ZM115.484 101.201C112.544 101.201 110.924 98.1409 110.924 95.1409C110.924 91.8109 112.844 90.3409 115.214 90.3409C117.944 90.3409 119.594 92.3509 119.594 95.6809C119.594 98.9809 117.974 101.201 115.484 101.201ZM126.707 99.1309C125.447 99.1309 124.457 99.9409 124.457 100.961C124.457 101.801 124.997 102.161 125.537 102.431C125.927 102.641 126.347 102.821 126.347 103.241C126.347 104.021 125.477 104.801 124.997 105.161C124.697 105.371 124.487 105.581 124.487 105.881C124.487 106.211 124.757 106.451 125.147 106.451C126.317 106.451 128.897 103.961 128.897 101.291C128.897 99.9109 128.177 99.1309 126.707 99.1309ZM145.071 94.8109H142.881V82.1209C142.881 81.4609 142.581 81.1609 141.501 81.1609H140.871C139.821 81.1609 139.521 81.4309 138.921 82.3309L131.151 93.7609C130.551 94.6309 129.921 95.5009 129.921 96.1909C129.921 96.9409 130.281 97.2409 131.151 97.2409H139.881V99.4309C139.881 101.501 137.571 100.721 137.571 101.951C137.571 102.281 137.781 102.551 138.321 102.551C139.071 102.551 140.121 102.461 141.381 102.461C142.521 102.461 143.451 102.551 144.111 102.551C144.651 102.551 144.861 102.281 144.861 101.951C144.861 100.781 142.881 101.531 142.881 99.4309V97.2409H145.071C145.641 97.2409 145.851 97.1209 145.851 96.2809V95.7709C145.851 94.9609 145.641 94.8109 145.071 94.8109ZM139.911 84.0709V94.8109H132.651L139.911 84.0709ZM153.932 88.8109C152.672 88.8109 151.472 89.0809 150.512 89.5009L151.502 83.8609H159.602C160.292 83.8609 160.562 83.5309 160.772 83.0809L161.162 82.1809C161.342 81.7909 161.612 81.1909 161.612 80.8309C161.612 80.5009 161.402 80.2009 161.042 80.2009C160.742 80.2009 160.562 80.3809 160.202 80.7409C159.812 81.1309 159.452 81.2209 158.912 81.2209H151.142C150.362 81.2209 150.152 81.4309 150.002 82.1209L148.442 91.2109C148.352 91.8409 148.712 92.2009 149.162 92.2009C150.032 92.2009 150.962 91.2709 153.182 91.2709C155.882 91.2709 158.162 93.1609 158.162 96.1009C158.162 99.0409 156.062 100.751 153.212 100.751C150.992 100.751 149.462 99.7309 148.592 98.7109C148.322 98.4109 148.142 98.2009 147.722 98.2009C147.302 98.2009 146.942 98.5309 146.942 99.0109C146.942 99.2809 147.092 99.7009 147.452 100.151C148.352 101.351 150.572 102.971 153.752 102.971C158.042 102.971 161.372 99.9709 161.372 95.8009C161.372 91.9009 158.492 88.8109 153.932 88.8109ZM164.756 102.551C165.686 102.551 166.916 102.461 168.386 102.461C169.886 102.461 171.146 102.551 172.076 102.551C172.586 102.551 172.796 102.251 172.796 101.921C172.796 100.601 169.916 101.411 169.916 99.4009V84.2509C169.916 82.4809 171.266 82.4509 171.266 81.5209C171.266 81.1609 171.026 80.8609 170.606 80.8609C170.036 80.8609 169.136 81.4309 167.486 82.0009C165.536 82.6609 164.426 82.8709 163.136 83.2909C162.746 83.4409 162.506 83.7109 162.506 84.0709C162.506 84.4909 162.806 84.7909 163.346 84.7909C163.916 84.7909 165.056 84.4609 165.776 84.4609C166.406 84.4609 166.916 84.7609 166.916 85.9609V99.4009C166.916 101.411 164.036 100.601 164.036 101.921C164.036 102.251 164.246 102.551 164.756 102.551Z" fill="black"/>
<path d="M88.582 264.044C136.171 181.044 136.171 179.044 156.7 180.044C177.228 181.044 180.028 227.044 197.757 229.044C215.486 231.044 226.684 138.045 236.015 130.045C245.346 122.045 250.945 124.044 266.808 109.044C278.764 97.7382 297.601 150.044 307.865 169.044C318.129 188.044 348.922 135.045 366.652 140.045C384.381 145.045 382.515 206.045 394.645 208.045C404.35 209.645 414.863 190.044 418.906 180.044" stroke="#FF8C37" stroke-width="2" stroke-linecap="round"/>
<g filter="url(#filter1_d_1203_1078)">
<rect x="469.391" y="143.75" width="228.11" height="279.047" rx="18.8246" fill="white"/>
</g>
<path d="M516.582 218.011C517.481 218.011 518.691 217.918 519.931 217.918C521.202 217.918 522.38 218.011 523.279 218.011C523.807 218.011 524.024 217.732 524.024 217.36C524.024 216.058 521.481 216.926 521.481 214.848V198.943C521.481 198.044 521.76 197.641 522.659 197.641H523.776C526.008 197.641 527.589 198.788 529.636 201.144C530.008 201.609 530.256 201.857 530.628 201.857C530.969 201.857 531.248 201.64 531.248 201.144C531.248 200.772 531.031 200.214 530.566 199.129L529.604 196.834C529.108 195.718 528.798 195.315 528.24 195.315C527.589 195.315 527.496 195.966 526.597 195.966H513.265C512.366 195.966 512.304 195.315 511.621 195.315C511.094 195.315 510.753 195.718 510.288 196.834L509.296 199.129C508.831 200.214 508.614 200.772 508.614 201.144C508.614 201.64 508.893 201.857 509.234 201.857C509.606 201.857 509.854 201.609 510.257 201.144C512.304 198.788 513.885 197.641 516.086 197.641H517.202C518.102 197.641 518.381 198.044 518.381 198.943V214.848C518.381 216.926 515.869 216.058 515.869 217.36C515.869 217.732 516.055 218.011 516.582 218.011ZM539.273 202.322C537.072 202.322 534.808 204.09 533.785 206.725V203.532C533.785 202.849 533.63 202.446 533.134 202.446C532.886 202.446 532.545 202.539 530.964 203.315C529.351 204.09 528.793 204.431 528.793 204.927C528.793 206.136 530.995 205.082 530.995 207.004V214.6C530.995 217.112 529.041 216.213 529.041 217.391C529.041 217.67 529.258 218.011 529.785 218.011C530.437 218.011 531.305 217.918 532.39 217.918C533.661 217.918 534.746 218.011 535.521 218.011C535.986 218.011 536.204 217.67 536.204 217.391C536.204 216.12 533.785 217.112 533.785 214.6V211.655C533.785 207.314 536.359 204.927 537.847 204.927C538.498 204.927 538.901 205.392 539.304 206.353C539.49 206.849 539.676 207.19 540.079 207.19C540.513 207.19 540.761 206.88 540.916 206.353C541.288 204.989 541.474 204.214 541.474 203.749C541.474 202.973 540.575 202.322 539.273 202.322ZM557.923 216.182C556.311 215.872 555.629 215.624 555.319 213.298L554.544 208.089C554.11 205.082 553.118 202.322 549.118 202.322C546.793 202.322 544.529 203.563 543.506 204.989C543.196 205.392 543.01 205.671 543.01 205.981C543.01 206.353 543.32 206.601 543.63 206.601C543.847 206.601 544.095 206.477 544.405 206.229C545.521 205.206 546.793 204.462 548.188 204.462C550.234 204.462 551.443 205.516 551.908 208.957L551.97 209.361C550.823 209.019 549.645 208.771 548.281 208.771C544.343 208.771 541.987 210.942 541.987 213.639C541.987 216.368 544.064 218.259 547.258 218.259C549.707 218.259 551.722 217.236 552.932 215.81C553.397 217.422 554.513 218.166 555.784 218.166C557.241 218.166 558.419 217.236 558.419 216.647C558.419 216.399 558.264 216.244 557.923 216.182ZM548.188 216.399C546.265 216.399 544.932 215.159 544.932 213.391C544.932 211.531 546.296 210.353 548.901 210.353C549.986 210.353 551.133 210.57 552.187 210.973L552.622 214.042C551.722 215.283 550.017 216.399 548.188 216.399ZM566.352 218.476C569.174 218.476 571.623 217.019 572.553 215.376C572.708 215.096 572.832 214.817 572.832 214.569C572.832 214.135 572.584 213.887 572.243 213.887C571.995 213.887 571.778 214.011 571.499 214.352C570.476 215.655 569.081 216.337 567.468 216.337C564.337 216.337 561.825 213.484 561.825 209.547C561.825 206.012 563.624 203.687 566.073 203.687C568.337 203.687 569.112 205.392 569.515 207.624C569.608 208.213 569.825 208.554 570.228 208.554C570.538 208.554 570.755 208.337 571.065 207.996C572.026 206.818 572.336 205.857 572.336 205.268C572.336 203.997 569.763 202.136 566.631 202.136C562.353 202.136 558.849 205.516 558.849 210.508C558.849 215.655 562.322 218.476 566.352 218.476ZM589.447 215.717L584.207 207.779L587.493 205.02C588.796 203.904 590.501 204.152 590.501 203.19C590.501 202.787 590.191 202.57 589.757 202.57C588.982 202.57 587.71 202.663 586.873 202.663C586.036 202.663 585.044 202.57 584.393 202.57C583.897 202.57 583.587 202.756 583.587 203.222C583.587 204.121 584.982 203.749 584.982 204.555C584.982 204.989 584.579 205.299 584.114 205.733L578.75 210.384V195.284C578.75 194.85 578.595 194.478 578.161 194.478C577.82 194.478 577.51 194.571 575.928 195.315C574.285 196.09 573.758 196.462 573.758 196.958C573.758 198.168 575.959 197.113 575.959 199.036V214.6C575.959 217.112 574.006 216.213 574.006 217.391C574.006 217.67 574.223 218.011 574.719 218.011C575.401 218.011 576.27 217.918 577.355 217.918C578.471 217.918 579.401 218.011 580.083 218.011C580.548 218.011 580.734 217.67 580.734 217.391C580.734 216.213 578.75 217.112 578.75 214.6V212.337L582.192 209.454L585.571 214.724C585.819 215.128 585.974 215.407 585.974 215.717C585.974 216.833 584.424 216.399 584.424 217.391C584.424 217.825 584.734 218.011 585.23 218.011C585.912 218.011 586.687 217.918 587.865 217.918C589.168 217.918 590.005 218.011 590.811 218.011C591.245 218.011 591.555 217.825 591.555 217.422C591.555 216.554 590.191 216.833 589.447 215.717ZM614.602 214.29L613.796 208.492C613.454 205.95 612.555 202.353 608.866 202.353C606.478 202.353 604.866 203.749 603.874 205.361V203.532C603.874 202.849 603.719 202.446 603.223 202.446C602.975 202.446 602.634 202.539 601.052 203.315C599.44 204.09 598.882 204.431 598.882 204.927C598.882 206.136 601.083 205.082 601.083 207.004V214.6C601.083 217.112 599.13 216.213 599.13 217.391C599.13 217.67 599.347 218.011 599.874 218.011C600.525 218.011 601.393 217.918 602.479 217.918C603.595 217.918 604.525 218.011 605.207 218.011C605.672 218.011 605.889 217.67 605.889 217.391C605.889 216.213 603.874 217.112 603.874 214.6V209.361C603.874 206.198 605.889 204.71 607.749 204.71C610.199 204.71 610.757 207.314 611.005 208.895L611.749 214.135C611.78 214.445 611.842 214.817 611.842 215.065C611.842 216.988 609.765 216.244 609.765 217.36C609.765 217.732 610.075 218.011 610.633 218.011C611.47 218.011 612.028 217.918 613.299 217.918C614.54 217.918 615.191 218.011 615.997 218.011C616.493 218.011 616.865 217.825 616.865 217.391C616.865 216.182 614.974 217.205 614.602 214.29ZM631.543 213.98C631.295 213.98 631.047 214.135 630.737 214.445C629.745 215.562 628.194 216.368 626.365 216.368C623.792 216.368 621.776 214.569 620.939 212.027L630.892 209.05C631.357 208.895 631.543 208.709 631.543 208.058C631.543 205.02 629 202.105 625.187 202.105C621.125 202.105 617.559 205.485 617.559 210.353C617.559 215.531 621.125 218.476 625.342 218.476C628.039 218.476 630.737 217.081 631.884 215.438C632.07 215.128 632.163 214.879 632.163 214.693C632.163 214.29 631.884 213.98 631.543 213.98ZM624.784 203.904C626.985 203.904 628.442 205.826 628.442 207.376C628.442 207.903 628.287 208.058 627.729 208.213L620.567 210.446C620.505 210.043 620.474 209.64 620.474 209.206C620.474 206.012 622.334 203.904 624.784 203.904ZM658.657 202.57C657.913 202.57 657.138 202.663 656.27 202.663C655.433 202.663 654.626 202.57 654.006 202.57C653.51 202.57 653.138 202.756 653.138 203.222C653.138 204.214 655.03 203.842 655.03 205.237C655.03 205.547 654.906 206.012 654.564 206.911L651.278 215.034L648.332 206.911C648.022 206.105 647.898 205.64 647.898 205.299C647.898 204.09 649.914 204.214 649.914 203.222C649.914 202.756 649.573 202.57 649.046 202.57C648.394 202.57 647.34 202.663 646.162 202.663C644.86 202.663 644.209 202.57 643.434 202.57C643 202.57 642.658 202.756 642.658 203.159C642.658 204.152 644.116 203.78 644.829 205.702L645.139 206.539L641.635 215.003L638.287 206.911C638.008 206.229 637.853 205.485 637.853 205.268C637.853 203.842 639.589 204.214 639.589 203.222C639.589 202.756 639.217 202.57 638.721 202.57C638.07 202.57 637.233 202.663 636.054 202.663C634.721 202.663 633.853 202.57 633.047 202.57C632.644 202.57 632.303 202.756 632.303 203.159C632.303 204.152 633.884 203.811 634.721 205.702L639.527 217.05C639.806 217.701 640.023 218.073 641.046 218.073C642.255 218.073 642.379 217.577 642.565 217.081L646.038 208.895L649.17 217.05C649.418 217.67 649.666 218.073 650.72 218.073C651.712 218.073 651.929 217.732 652.208 217.081L657.045 205.733C657.851 203.842 659.463 204.152 659.463 203.159C659.463 202.756 659.06 202.57 658.657 202.57ZM554.528 245.29L553.691 239.492C553.288 236.547 552.296 233.353 548.73 233.353C546.312 233.353 544.792 234.749 543.924 236.423C543.335 234.749 542.126 233.353 539.832 233.353C537.506 233.353 535.894 234.749 534.902 236.361V234.532C534.902 233.911 534.778 233.446 534.251 233.446C533.972 233.446 533.662 233.508 532.049 234.315C530.468 235.09 529.91 235.431 529.91 235.927C529.91 237.136 532.111 236.082 532.111 238.004V245.6C532.111 248.112 530.158 247.213 530.158 248.391C530.158 248.67 530.406 249.011 530.902 249.011C531.584 249.011 532.421 248.918 533.507 248.918C534.654 248.918 535.553 249.011 536.235 249.011C536.7 249.011 536.917 248.67 536.917 248.391C536.917 247.213 534.902 248.112 534.902 245.6V240.33C534.902 237.136 536.917 235.71 538.777 235.71C541.227 235.71 541.63 238.097 541.63 239.895V245.6C541.63 248.112 539.677 247.213 539.677 248.391C539.677 248.67 539.925 249.011 540.421 249.011C541.103 249.011 541.94 248.918 543.025 248.918C544.172 248.918 545.071 249.011 545.754 249.011C546.219 249.011 546.467 248.67 546.467 248.391C546.467 247.213 544.42 248.112 544.42 245.6V240.081C544.42 237.043 546.095 235.71 547.924 235.71C550.342 235.71 550.714 238.314 550.931 239.895L551.707 245.135C551.769 245.445 551.8 245.817 551.8 246.065C551.8 247.988 549.691 247.244 549.691 248.36C549.691 248.732 550.063 249.011 550.59 249.011C551.459 249.011 551.924 248.918 553.257 248.918C554.497 248.918 555.086 249.011 555.954 249.011C556.419 249.011 556.822 248.825 556.822 248.422C556.822 247.182 554.962 248.205 554.528 245.29ZM571.473 244.98C571.225 244.98 570.977 245.135 570.667 245.445C569.674 246.562 568.124 247.368 566.295 247.368C563.721 247.368 561.706 245.569 560.869 243.027L570.822 240.05C571.287 239.895 571.473 239.709 571.473 239.058C571.473 236.02 568.93 233.105 565.117 233.105C561.055 233.105 557.489 236.485 557.489 241.353C557.489 246.531 561.055 249.476 565.272 249.476C567.969 249.476 570.667 248.081 571.814 246.438C572 246.128 572.093 245.879 572.093 245.693C572.093 245.29 571.814 244.98 571.473 244.98ZM564.714 234.904C566.915 234.904 568.372 236.826 568.372 238.376C568.372 238.903 568.217 239.058 567.659 239.213L560.497 241.446C560.435 241.043 560.404 240.64 560.404 240.206C560.404 237.012 562.264 234.904 564.714 234.904ZM583.945 245.631C583.666 245.631 583.387 245.848 583.201 246.034C582.581 246.562 581.868 247.306 580.597 247.306C579.325 247.306 578.426 246.624 578.426 244.329V235.338H583.604C583.914 235.338 584.1 235.183 584.162 234.842C584.193 234.656 584.255 234.346 584.255 234.128C584.255 233.849 584.069 233.694 583.728 233.694H578.426V228.672C578.426 228.113 578.209 227.865 577.868 227.865C577.403 227.865 577.217 228.237 576.938 229.044C576.225 231.865 575.388 232.981 573.527 233.756C573.031 233.973 572.721 234.222 572.721 234.625C572.721 235.09 573.062 235.338 573.621 235.338H575.636V241.167C575.636 243.306 575.574 245.693 575.574 246.345C575.574 247.926 577.248 249.259 579.636 249.259C581.31 249.259 582.829 248.701 583.945 247.523C584.348 247.089 584.565 246.686 584.565 246.314C584.565 245.941 584.317 245.631 583.945 245.631ZM595.868 233.322C593.667 233.322 591.404 235.09 590.381 237.725V234.532C590.381 233.849 590.225 233.446 589.729 233.446C589.481 233.446 589.14 233.539 587.559 234.315C585.947 235.09 585.389 235.431 585.389 235.927C585.389 237.136 587.59 236.082 587.59 238.004V245.6C587.59 248.112 585.637 247.213 585.637 248.391C585.637 248.67 585.854 249.011 586.381 249.011C587.032 249.011 587.9 248.918 588.985 248.918C590.257 248.918 591.342 249.011 592.117 249.011C592.582 249.011 592.799 248.67 592.799 248.391C592.799 247.12 590.381 248.112 590.381 245.6V242.655C590.381 238.314 592.954 235.927 594.442 235.927C595.093 235.927 595.496 236.392 595.899 237.353C596.085 237.849 596.272 238.19 596.675 238.19C597.109 238.19 597.357 237.88 597.512 237.353C597.884 235.989 598.07 235.214 598.07 234.749C598.07 233.973 597.171 233.322 595.868 233.322ZM601.705 230.129C603.255 230.129 604.526 228.827 604.526 227.648C604.526 226.656 603.72 226.067 602.79 226.067C601.24 226.067 600.062 227.369 600.062 228.548C600.062 229.571 600.868 230.129 601.705 230.129ZM599.969 249.011C600.62 249.011 601.488 248.918 602.573 248.918C603.689 248.918 604.619 249.011 605.302 249.011C605.767 249.011 605.984 248.67 605.984 248.391C605.984 247.213 603.968 248.112 603.968 245.6V234.532C603.968 233.849 603.813 233.446 603.317 233.446C603.069 233.446 602.728 233.539 601.147 234.315C599.535 235.09 598.976 235.431 598.976 235.927C598.976 237.136 601.178 236.082 601.178 238.004V245.6C601.178 248.112 599.225 247.213 599.225 248.391C599.225 248.67 599.442 249.011 599.969 249.011ZM615.075 249.476C617.897 249.476 620.346 248.019 621.276 246.376C621.431 246.096 621.555 245.817 621.555 245.569C621.555 245.135 621.307 244.887 620.966 244.887C620.718 244.887 620.501 245.011 620.222 245.352C619.199 246.655 617.804 247.337 616.191 247.337C613.06 247.337 610.548 244.484 610.548 240.547C610.548 237.012 612.347 234.687 614.796 234.687C617.06 234.687 617.835 236.392 618.238 238.624C618.331 239.213 618.548 239.554 618.951 239.554C619.261 239.554 619.478 239.337 619.788 238.996C620.749 237.818 621.059 236.857 621.059 236.268C621.059 234.997 618.486 233.136 615.354 233.136C611.076 233.136 607.572 236.516 607.572 241.508C607.572 246.655 611.045 249.476 615.075 249.476ZM625.52 249.352C626.202 249.352 626.264 248.577 626.853 248.577C627.349 248.577 628.775 249.259 630.883 249.259C634.449 249.259 636.961 247.461 636.961 244.639C636.961 241.322 633.798 240.392 630.573 239.585C627.504 238.841 626.047 238.5 626.047 236.919C626.047 235.772 627.07 234.935 628.713 234.935C630.728 234.935 632.837 236.144 634.418 237.601C634.728 237.88 635.069 238.19 635.379 238.19C635.689 238.19 635.968 237.942 635.968 237.57C635.968 237.229 635.627 236.578 635.286 236.02L634.263 234.346C633.922 233.756 633.643 233.291 633.116 233.291C632.527 233.291 632.527 233.911 632 233.911C631.504 233.911 630.17 233.353 628.434 233.353C625.303 233.353 623.225 235.214 623.225 237.57C623.225 240.64 626.605 241.601 629.612 242.345C632.434 242.996 634.139 243.368 634.139 245.104C634.139 246.531 632.868 247.678 630.821 247.678C628.527 247.678 626.357 246.314 624.372 244.329C624.062 244.019 623.721 243.74 623.411 243.74C623.039 243.74 622.791 243.957 622.791 244.391C622.791 244.794 623.07 245.228 623.628 246.376L624.558 248.36C624.775 248.825 625.024 249.352 625.52 249.352Z" fill="black"/>
<rect x="528.078" y="304.863" width="110.733" height="59.7958" rx="29.8979" fill="#FFD488"/>
<path d="M556.174 334.349H606.286M606.286 334.349L588.389 316.452M606.286 334.349L588.389 352.246" stroke="black" stroke-width="2.21466"/>
<g filter="url(#filter2_d_1203_1078)">
<g filter="url(#filter3_d_1203_1078)">
<rect x="166.5" y="253.145" width="375.384" height="279.047" rx="18.8246" fill="white"/>
</g>
<circle cx="368.992" cy="373.695" r="8.71086" fill="#5D616D"/>
<circle cx="368.992" cy="406.273" r="8.71086" fill="#FFD488"/>
<circle cx="368.992" cy="438.855" r="8.71086" fill="#B8D6B4"/>
<circle cx="368.992" cy="471.437" r="8.71086" fill="#B0ABD4"/>
<circle cx="259.516" cy="422.567" r="65.3324" fill="#B0ABD4"/>
<path fill-rule="evenodd" clip-rule="evenodd" d="M259.516 357.235V422.797L280.591 360.709C273.976 358.48 266.888 357.26 259.516 357.235Z" fill="#5D616D"/>
<path fill-rule="evenodd" clip-rule="evenodd" d="M297.88 369.679C292.569 365.82 286.653 362.741 280.303 360.611L259.516 422.565L297.88 369.679Z" fill="#FFD488"/>
<path fill-rule="evenodd" clip-rule="evenodd" d="M289.851 480.445C310.657 469.518 324.848 447.7 324.848 422.567C324.848 400.91 314.311 381.715 298.084 369.828L259.516 422.569L289.851 480.445Z" fill="#B8D6B4"/>
<rect x="392.859" y="371.5" width="96.8096" height="5.58517" rx="2.79258" fill="#C4C4C4"/>
<rect x="392.859" y="404.082" width="127.528" height="5.58517" rx="2.79258" fill="#C4C4C4"/>
<rect x="392.859" y="436.66" width="110.773" height="5.58517" rx="2.79258" fill="#C4C4C4"/>
<rect x="392.859" y="469.242" width="69.8146" height="5.58517" rx="2.79258" fill="#C4C4C4"/>
<path d="M166.5 269.07C166.5 260.274 173.63 253.145 182.425 253.145H525.687C534.482 253.145 541.612 260.274 541.612 269.07V316.354H166.5V269.07Z" fill="#5D616D"/>
<path d="M181.205 290.101C181.205 290.15 181.239 290.184 181.288 290.184H182.7C182.75 290.184 182.783 290.15 182.783 290.101V279.985C182.783 279.935 182.817 279.902 182.866 279.902H186.072C186.122 279.902 186.155 279.869 186.155 279.819V278.573C186.155 278.523 186.122 278.49 186.072 278.49H177.917C177.867 278.49 177.834 278.523 177.834 278.573V279.819C177.834 279.869 177.867 279.902 177.917 279.902H181.122C181.156 279.902 181.189 279.935 181.205 279.968V290.101ZM194.016 285.981C194.016 283.39 192.488 281.613 189.897 281.613C187.289 281.613 185.778 283.374 185.778 285.981C185.778 288.572 187.289 290.35 189.897 290.35C192.488 290.35 194.016 288.572 194.016 285.981ZM192.438 285.981C192.438 287.709 191.491 288.938 189.897 288.938C188.319 288.938 187.356 287.709 187.356 285.981C187.356 284.254 188.319 283.025 189.897 283.025C191.491 283.025 192.438 284.254 192.438 285.981ZM195.795 281.779C195.745 281.779 195.712 281.812 195.712 281.862V293.389C195.712 293.439 195.745 293.472 195.795 293.472H197.207C197.257 293.472 197.29 293.439 197.29 293.389V289.436C197.29 289.37 197.373 289.303 197.456 289.403C197.655 289.635 198.669 290.35 199.831 290.35C202.256 290.35 203.784 288.572 203.784 285.981C203.784 283.39 202.256 281.613 199.831 281.613C199.001 281.613 197.888 282.078 197.456 282.56C197.423 282.609 197.323 282.643 197.29 282.543L197.124 281.862C197.107 281.812 197.091 281.779 197.041 281.779H195.795ZM202.206 285.981C202.206 287.709 201.26 288.938 199.665 288.938C198.154 288.938 197.29 287.709 197.29 285.981C197.29 284.254 198.154 283.025 199.665 283.025C201.26 283.025 202.206 284.254 202.206 285.981ZM209.581 284.619C209.581 284.669 209.615 284.702 209.664 284.702H210.96C211.01 284.702 211.11 284.669 211.143 284.619C211.658 283.822 212.322 283.473 213.485 283.473C214.93 283.473 215.96 284.603 215.96 286.164C215.96 287.891 214.93 288.938 213.485 288.938C211.707 288.938 211.159 287.592 211.159 287.028C211.159 286.978 211.126 286.945 211.076 286.945H209.548C209.498 286.945 209.465 286.978 209.465 287.028C209.465 288.091 210.412 290.35 213.485 290.35C216.059 290.35 217.538 288.755 217.538 286.164C217.538 283.722 215.91 282.061 213.485 282.061C212.422 282.061 211.691 282.593 211.458 282.776C211.375 282.842 211.309 282.825 211.325 282.726C211.325 282.726 211.608 280.666 211.691 279.985C211.691 279.952 211.724 279.902 211.774 279.902H216.657C216.707 279.902 216.74 279.869 216.74 279.819V278.573C216.74 278.523 216.707 278.49 216.657 278.49H210.429C210.379 278.49 210.329 278.507 210.312 278.606L209.581 284.619ZM231.032 278.49C230.982 278.49 230.949 278.523 230.949 278.573V288.523C230.949 288.622 230.833 288.639 230.783 288.539L225.75 278.573C225.717 278.507 225.684 278.49 225.634 278.49H223.175C223.126 278.49 223.092 278.523 223.092 278.573V290.101C223.092 290.15 223.126 290.184 223.175 290.184H224.587C224.637 290.184 224.67 290.15 224.67 290.101V280.151C224.67 280.052 224.803 280.052 224.836 280.118L229.869 290.101C229.902 290.15 229.952 290.184 230.002 290.184H232.444C232.494 290.184 232.527 290.15 232.527 290.101V278.573C232.527 278.523 232.494 278.49 232.444 278.49H231.032ZM234.968 278.573V290.101C234.968 290.15 235.001 290.184 235.051 290.184H236.463C236.513 290.184 236.546 290.15 236.546 290.101V284.951C236.546 284.902 236.579 284.868 236.629 284.868H241.762C241.812 284.868 241.845 284.835 241.845 284.785V283.54C241.845 283.49 241.812 283.457 241.762 283.457H236.629C236.579 283.457 236.546 283.423 236.546 283.374V279.985C236.546 279.935 236.579 279.902 236.629 279.902H242.443C242.493 279.902 242.526 279.869 242.526 279.819V278.573C242.526 278.523 242.493 278.49 242.443 278.49H235.051C235.001 278.49 234.968 278.523 234.968 278.573ZM246.412 290.101C246.412 290.15 246.446 290.184 246.495 290.184H247.907C247.957 290.184 247.99 290.15 247.99 290.101V279.985C247.99 279.935 248.024 279.902 248.073 279.902H251.279C251.329 279.902 251.362 279.869 251.362 279.819V278.573C251.362 278.523 251.329 278.49 251.279 278.49H243.124C243.074 278.49 243.041 278.523 243.041 278.573V279.819C243.041 279.869 243.074 279.902 243.124 279.902H246.329C246.363 279.902 246.396 279.935 246.412 279.968V290.101ZM259.998 278.49C259.948 278.49 259.915 278.523 259.898 278.573L255.979 290.101C255.962 290.167 256.028 290.184 256.078 290.184H257.623C257.673 290.184 257.689 290.15 257.706 290.101L258.487 287.725C258.503 287.675 258.536 287.642 258.586 287.642H263.403C263.453 287.642 263.503 287.659 263.519 287.725L264.283 290.101C264.3 290.15 264.317 290.184 264.367 290.184H265.928C265.978 290.184 266.028 290.15 266.011 290.101L262.141 278.573C262.124 278.523 262.091 278.49 262.041 278.49H259.998ZM259.035 286.313C258.985 286.313 258.952 286.28 258.968 286.23L260.928 280.151C260.962 280.052 261.061 280.052 261.094 280.151L263.038 286.23C263.054 286.28 263.021 286.313 262.971 286.313H259.035ZM271.814 283.025C271.864 283.025 271.897 282.991 271.897 282.942V281.696C271.897 281.646 271.864 281.613 271.814 281.613H270.967C270.136 281.613 269.522 282.061 268.957 282.626C268.907 282.676 268.807 282.709 268.774 282.609L268.608 281.862C268.592 281.812 268.575 281.779 268.525 281.779H267.279C267.23 281.779 267.196 281.812 267.196 281.862V290.101C267.196 290.15 267.23 290.184 267.279 290.184H268.691C268.741 290.184 268.774 290.15 268.774 290.101V285.533C268.774 284.237 269.572 283.025 270.967 283.025H271.814ZM277.777 288.855C277.777 288.805 277.744 288.772 277.694 288.772H276.714C276.05 288.772 275.817 288.456 275.817 287.941V283.108C275.817 283.058 275.85 283.025 275.9 283.025H277.694C277.744 283.025 277.777 282.991 277.777 282.942V281.862C277.777 281.812 277.744 281.779 277.694 281.779H275.9C275.85 281.779 275.817 281.746 275.817 281.696V279.454C275.817 279.404 275.784 279.371 275.734 279.371H274.322C274.273 279.371 274.239 279.404 274.239 279.454V281.696C274.239 281.746 274.206 281.779 274.156 281.779H272.678C272.628 281.779 272.595 281.812 272.595 281.862V282.942C272.595 282.991 272.628 283.025 272.678 283.025H274.156C274.206 283.025 274.239 283.058 274.239 283.108V288.224C274.239 289.586 275.037 290.217 276.415 290.184H277.694C277.744 290.184 277.777 290.15 277.777 290.101V288.855ZM281.057 281.862C281.057 281.812 281.024 281.779 280.974 281.779H279.562C279.512 281.779 279.479 281.812 279.479 281.862V290.101C279.479 290.15 279.512 290.184 279.562 290.184H280.974C281.024 290.184 281.057 290.15 281.057 290.101V281.862ZM281.223 278.573C281.223 278.523 281.19 278.49 281.14 278.49H279.396C279.346 278.49 279.313 278.523 279.313 278.573V280.317C279.313 280.367 279.346 280.4 279.396 280.4H281.14C281.19 280.4 281.223 280.367 281.223 280.317V278.573ZM290.128 284.619C290.178 284.619 290.194 284.586 290.194 284.536C290.194 282.576 288.583 281.613 286.54 281.613C284.48 281.613 283.168 282.726 283.168 284.088C283.168 286.147 285.178 286.397 286.773 286.579C287.47 286.662 288.849 286.729 288.849 287.675C288.849 288.755 287.62 288.938 286.773 288.938C285.444 288.938 284.597 288.257 284.597 287.426C284.597 287.377 284.547 287.343 284.497 287.343H283.102C283.052 287.343 283.019 287.377 283.019 287.426C283.019 289.021 284.248 290.35 286.773 290.35C288.849 290.35 290.427 289.569 290.427 287.675C290.427 285.549 288.434 285.383 286.773 285.167C285.942 285.051 284.746 285.035 284.746 284.088C284.746 283.573 285.294 283.025 286.54 283.025C287.885 283.025 288.616 283.623 288.616 284.536C288.616 284.586 288.649 284.619 288.699 284.619H290.128ZM296.674 288.855C296.674 288.805 296.641 288.772 296.591 288.772H295.611C294.947 288.772 294.714 288.456 294.714 287.941V283.108C294.714 283.058 294.748 283.025 294.797 283.025H296.591C296.641 283.025 296.674 282.991 296.674 282.942V281.862C296.674 281.812 296.641 281.779 296.591 281.779H294.797C294.748 281.779 294.714 281.746 294.714 281.696V279.454C294.714 279.404 294.681 279.371 294.631 279.371H293.219C293.17 279.371 293.136 279.404 293.136 279.454V281.696C293.136 281.746 293.103 281.779 293.053 281.779H291.575C291.525 281.779 291.492 281.812 291.492 281.862V282.942C291.492 282.991 291.525 283.025 291.575 283.025H293.053C293.103 283.025 293.136 283.058 293.136 283.108V288.224C293.136 289.586 293.934 290.217 295.312 290.184H296.591C296.641 290.184 296.674 290.15 296.674 290.101V288.855ZM304.937 284.619C304.987 284.619 305.004 284.586 305.004 284.536C305.004 282.576 303.392 281.613 301.349 281.613C299.29 281.613 297.978 282.726 297.978 284.088C297.978 286.147 299.987 286.397 301.582 286.579C302.28 286.662 303.658 286.729 303.658 287.675C303.658 288.755 302.429 288.938 301.582 288.938C300.253 288.938 299.406 288.257 299.406 287.426C299.406 287.377 299.356 287.343 299.306 287.343H297.911C297.861 287.343 297.828 287.377 297.828 287.426C297.828 289.021 299.057 290.35 301.582 290.35C303.658 290.35 305.236 289.569 305.236 287.675C305.236 285.549 303.243 285.383 301.582 285.167C300.752 285.051 299.556 285.035 299.556 284.088C299.556 283.573 300.104 283.025 301.349 283.025C302.695 283.025 303.426 283.623 303.426 284.536C303.426 284.586 303.459 284.619 303.509 284.619H304.937ZM311.473 285.981C311.473 283.324 312.187 280.749 313.582 278.573C313.615 278.523 313.582 278.49 313.532 278.49H312.419C312.37 278.49 312.336 278.507 312.303 278.573C311.14 280.384 310.21 283.307 310.21 285.981C310.21 288.655 311.14 291.579 312.303 293.389C312.336 293.456 312.37 293.472 312.419 293.472H313.532C313.582 293.472 313.615 293.439 313.582 293.389C312.187 291.213 311.473 288.639 311.473 285.981ZM315.033 278.573V290.101C315.033 290.15 315.066 290.184 315.116 290.184H320.564C322.541 290.184 323.969 288.838 323.969 286.862C323.969 285.699 323.172 284.47 322.391 284.154C322.308 284.121 322.308 284.021 322.391 283.988C323.039 283.722 323.703 282.908 323.703 281.812C323.703 280.002 322.458 278.49 320.647 278.49H315.116C315.066 278.49 315.033 278.523 315.033 278.573ZM320.448 284.868C321.511 284.868 322.391 285.882 322.391 286.862C322.391 287.858 321.544 288.772 320.331 288.772H316.694C316.644 288.772 316.611 288.739 316.611 288.689V284.951C316.611 284.902 316.644 284.868 316.694 284.868H320.448ZM322.125 281.812C322.125 282.776 321.195 283.423 320.331 283.457H316.694C316.644 283.457 316.611 283.423 316.611 283.374V279.968C316.611 279.919 316.644 279.885 316.694 279.885H320.331C321.511 279.885 322.125 280.816 322.125 281.812ZM325.224 292.144V293.389C325.224 293.439 325.257 293.472 325.307 293.472H327.466C328.811 293.472 329.31 292.974 329.791 291.629L330.273 290.184L333.113 281.862C333.13 281.812 333.08 281.779 333.03 281.779H331.519C331.469 281.779 331.452 281.812 331.436 281.862L329.243 288.539C329.21 288.622 329.11 288.622 329.077 288.539L326.901 281.862C326.885 281.812 326.868 281.779 326.818 281.779H325.307C325.257 281.779 325.19 281.796 325.207 281.862L328.014 290.101L328.164 290.549C328.463 291.429 328.164 292.061 327.184 292.061H325.307C325.257 292.061 325.224 292.094 325.224 292.144ZM344.846 281.696C344.846 281.746 344.879 281.779 344.929 281.779H346.424C346.473 281.779 346.507 281.746 346.507 281.696C346.407 279.42 344.447 278.324 342.338 278.324C340.311 278.324 338.285 279.537 338.285 281.663C338.285 284.237 340.66 284.752 342.52 284.951C343.965 285.101 345.294 285.4 345.294 286.895C345.294 287.991 344.281 288.938 342.52 288.938C340.643 288.938 339.746 287.825 339.746 286.994C339.746 286.945 339.697 286.895 339.647 286.895H338.168C338.119 286.895 338.085 286.928 338.085 286.978C338.085 288.772 339.647 290.35 342.52 290.35C345.743 290.35 346.955 288.556 346.955 286.895C346.955 284.138 344.696 283.623 342.52 283.374C341.374 283.241 339.946 283.025 339.946 281.663C339.946 280.55 341.025 279.736 342.338 279.736C343.816 279.736 344.846 280.583 344.846 281.696ZM357.143 288.855C357.143 288.805 357.11 288.772 357.06 288.772H356.744C356.096 288.772 356.03 288.456 356.03 287.941V284.686C356.03 282.659 354.602 281.613 352.309 281.613C350.432 281.613 348.688 282.576 348.688 284.536C348.688 284.586 348.722 284.619 348.771 284.619H350.2C350.25 284.619 350.283 284.586 350.283 284.536C350.283 283.689 350.881 283.025 352.309 283.025C354.286 283.025 354.452 283.971 354.452 284.652C354.452 284.968 354.452 285.167 353.904 285.167H352.044C349.602 285.167 348.389 286.247 348.389 287.692C348.389 289.27 349.502 290.35 351.728 290.35C353.256 290.35 354.269 289.802 354.668 289.386C354.701 289.353 354.784 289.336 354.817 289.42C355.067 289.951 355.582 290.2 356.462 290.184H357.06C357.11 290.184 357.143 290.15 357.143 290.101V288.855ZM354.452 286.729C354.419 287.742 353.721 288.938 351.711 288.938C350.383 288.938 349.967 288.29 349.967 287.692C349.967 287.111 350.266 286.496 352.044 286.413H354.369C354.402 286.413 354.452 286.446 354.452 286.496V286.729ZM360.179 278.573C360.179 278.523 360.146 278.49 360.096 278.49H358.685C358.635 278.49 358.602 278.523 358.602 278.573V290.101C358.602 290.15 358.635 290.184 358.685 290.184H360.096C360.146 290.184 360.179 290.15 360.179 290.101V278.573ZM363.792 286.546H369.987C370.037 286.546 370.054 286.513 370.07 286.463C370.103 286.33 370.12 286.147 370.12 285.981C370.12 283.39 368.658 281.613 366.067 281.613C363.493 281.613 362.031 283.374 362.031 285.981C362.031 288.572 363.576 290.35 366.067 290.35C367.944 290.35 369.422 289.403 369.854 287.775C369.871 287.709 369.821 287.692 369.771 287.692H368.293C368.243 287.692 368.21 287.709 368.177 287.775C367.828 288.44 367.247 288.938 366.067 288.938C364.589 288.938 363.709 287.842 363.709 286.629C363.709 286.579 363.742 286.546 363.792 286.546ZM368.393 285.217C368.393 285.267 368.359 285.3 368.31 285.3H363.792C363.758 285.3 363.709 285.267 363.709 285.217C363.709 284.437 364.456 283.025 366.067 283.025C367.712 283.025 368.393 284.27 368.393 285.217ZM378.709 284.619C378.758 284.619 378.775 284.586 378.775 284.536C378.775 282.576 377.164 281.613 375.121 281.613C373.061 281.613 371.749 282.726 371.749 284.088C371.749 286.147 373.759 286.397 375.353 286.579C376.051 286.662 377.43 286.729 377.43 287.675C377.43 288.755 376.201 288.938 375.353 288.938C374.025 288.938 373.178 288.257 373.178 287.426C373.178 287.377 373.128 287.343 373.078 287.343H371.683C371.633 287.343 371.6 287.377 371.6 287.426C371.6 289.021 372.829 290.35 375.353 290.35C377.43 290.35 379.008 289.569 379.008 287.675C379.008 285.549 377.014 285.383 375.353 285.167C374.523 285.051 373.327 285.035 373.327 284.088C373.327 283.573 373.875 283.025 375.121 283.025C376.466 283.025 377.197 283.623 377.197 284.536C377.197 284.586 377.23 284.619 377.28 284.619H378.709ZM382.182 285.981C382.182 288.639 381.468 291.213 380.073 293.389C380.04 293.439 380.073 293.472 380.123 293.472H381.236C381.285 293.472 381.319 293.456 381.352 293.389C382.515 291.579 383.445 288.655 383.445 285.981C383.445 283.307 382.515 280.384 381.352 278.573C381.319 278.507 381.285 278.49 381.236 278.49H380.123C380.073 278.49 380.04 278.523 380.073 278.573C381.468 280.749 382.182 283.324 382.182 285.981Z" fill="white"/>
</g>
<defs>
<filter id="filter0_d_1203_1078" x="0.167603" y="0.0207424" width="480.581" height="383.136" filterUnits="userSpaceOnUse" color-interpolation-filters="sRGB">
<feFlood flood-opacity="0" result="BackgroundImageFix"/>
<feColorMatrix in="SourceAlpha" type="matrix" values="0 0 0 0 0 0 0 0 0 0 0 0 0 0 0 0 0 0 127 0" result="hardAlpha"/>
<feOffset dx="-13.2879" dy="26.0222"/>
<feGaussianBlur stdDeviation="26.0222"/>
<feComposite in2="hardAlpha" operator="out"/>
<feColorMatrix type="matrix" values="0 0 0 0 0 0 0 0 0 0 0 0 0 0 0 0 0 0 0.1 0"/>
<feBlend mode="normal" in2="BackgroundImageFix" result="effect1_dropShadow_1203_1078"/>
<feBlend mode="normal" in="SourceGraphic" in2="effect1_dropShadow_1203_1078" result="shape"/>
</filter>
<filter id="filter1_d_1203_1078" x="404.058" y="76.7055" width="332.198" height="383.136" filterUnits="userSpaceOnUse" color-interpolation-filters="sRGB">
<feFlood flood-opacity="0" result="BackgroundImageFix"/>
<feColorMatrix in="SourceAlpha" type="matrix" values="0 0 0 0 0 0 0 0 0 0 0 0 0 0 0 0 0 0 127 0" result="hardAlpha"/>
<feOffset dx="-13.2879" dy="-15"/>
<feGaussianBlur stdDeviation="26.0222"/>
<feComposite in2="hardAlpha" operator="out"/>
<feColorMatrix type="matrix" values="0 0 0 0 0 0 0 0 0 0 0 0 0 0 0 0 0 0 0.1 0"/>
<feBlend mode="normal" in2="BackgroundImageFix" result="effect1_dropShadow_1203_1078"/>
<feBlend mode="normal" in="SourceGraphic" in2="effect1_dropShadow_1203_1078" result="shape"/>
</filter>
<filter id="filter2_d_1203_1078" x="162.5" y="253.145" width="383.385" height="287.047" filterUnits="userSpaceOnUse" color-interpolation-filters="sRGB">
<feFlood flood-opacity="0" result="BackgroundImageFix"/>
<feColorMatrix in="SourceAlpha" type="matrix" values="0 0 0 0 0 0 0 0 0 0 0 0 0 0 0 0 0 0 127 0" result="hardAlpha"/>
<feOffset dy="4"/>
<feGaussianBlur stdDeviation="2"/>
<feComposite in2="hardAlpha" operator="out"/>
<feColorMatrix type="matrix" values="0 0 0 0 0 0 0 0 0 0 0 0 0 0 0 0 0 0 0.25 0"/>
<feBlend mode="normal" in2="BackgroundImageFix" result="effect1_dropShadow_1203_1078"/>
<feBlend mode="normal" in="SourceGraphic" in2="effect1_dropShadow_1203_1078" result="shape"/>
</filter>
<filter id="filter3_d_1203_1078" x="101.168" y="227.122" width="479.474" height="383.136" filterUnits="userSpaceOnUse" color-interpolation-filters="sRGB">
<feFlood flood-opacity="0" result="BackgroundImageFix"/>
<feColorMatrix in="SourceAlpha" type="matrix" values="0 0 0 0 0 0 0 0 0 0 0 0 0 0 0 0 0 0 127 0" result="hardAlpha"/>
<feOffset dx="-13.2879" dy="26.0222"/>
<feGaussianBlur stdDeviation="26.0222"/>
<feComposite in2="hardAlpha" operator="out"/>
<feColorMatrix type="matrix" values="0 0 0 0 0 0 0 0 0 0 0 0 0 0 0 0 0 0 0.1 0"/>
<feBlend mode="normal" in2="BackgroundImageFix" result="effect1_dropShadow_1203_1078"/>
<feBlend mode="normal" in="SourceGraphic" in2="effect1_dropShadow_1203_1078" result="shape"/>
</filter>
</defs>
</svg>
