<svg width="41" height="34" viewBox="0 0 41 34" fill="none" xmlns="http://www.w3.org/2000/svg">
<path d="M40.5893 4.42642C39.1095 5.08508 37.5196 5.53031 35.8507 5.7305C37.554 4.70553 38.8623 3.08253 39.4783 1.14849C37.884 2.09769 36.1185 2.78686 34.2391 3.15822C32.7342 1.54862 30.5899 0.542969 28.2169 0.542969C23.6605 0.542969 19.9665 4.25092 19.9665 8.82465C19.9665 9.47377 20.0395 10.1059 20.1802 10.7121C13.3233 10.3666 7.24401 7.0695 3.17483 2.05874C2.46465 3.28192 2.05771 4.70458 2.05771 6.22241C2.05771 9.09579 3.51422 11.6308 5.72804 13.116C4.3756 13.0729 3.10344 12.7004 1.99119 12.08C1.9904 12.1146 1.9904 12.1493 1.9904 12.1842C1.9904 16.1969 4.83438 19.5441 8.60854 20.3051C7.91634 20.4942 7.18738 20.5958 6.43493 20.5958C5.90327 20.5958 5.38646 20.5438 4.8826 20.4469C5.93257 23.7371 8.97942 26.1319 12.5897 26.1985C9.76611 28.42 6.20865 29.7439 2.34314 29.7439C1.67717 29.7439 1.02047 29.7048 0.375 29.6279C4.02617 31.978 8.36293 33.3491 13.0221 33.3491C28.1976 33.3491 36.4962 20.7292 36.4962 9.78489C36.4962 9.42583 36.488 9.06867 36.4723 8.7134C38.0844 7.5458 39.4832 6.08719 40.5893 4.42642Z" fill="white"/>
</svg>
