<svg width="25" height="19" viewBox="0 0 25 19" fill="none" xmlns="http://www.w3.org/2000/svg">
<path d="M21.0325 1.88659C19.486 1.177 17.8276 0.6542 16.0937 0.354772C16.0621 0.348993 16.0306 0.363435 16.0143 0.392319C15.801 0.771657 15.5648 1.26654 15.3993 1.65551C13.5344 1.3763 11.679 1.3763 9.85226 1.65551C9.68679 1.25789 9.44196 0.771657 9.22772 0.392319C9.21146 0.364398 9.17991 0.349957 9.14834 0.354772C7.41536 0.653243 5.75698 1.17604 4.20953 1.88659C4.19614 1.89237 4.18465 1.90201 4.17703 1.91451C1.03144 6.61396 0.169732 11.1979 0.592458 15.725C0.59437 15.7471 0.606803 15.7683 0.624019 15.7818C2.69939 17.3059 4.70974 18.2312 6.68276 18.8445C6.71434 18.8541 6.7478 18.8426 6.76789 18.8165C7.23461 18.1792 7.65065 17.5072 8.00736 16.8004C8.02841 16.759 8.00831 16.7099 7.96529 16.6936C7.30538 16.4432 6.67702 16.138 6.07258 15.7914C6.02477 15.7635 6.02094 15.6951 6.06492 15.6624C6.19212 15.5671 6.31935 15.4679 6.44081 15.3678C6.46278 15.3495 6.4934 15.3456 6.51924 15.3572C10.4902 17.1702 14.7891 17.1702 18.7132 15.3572C18.739 15.3447 18.7697 15.3485 18.7926 15.3668C18.9141 15.467 19.0413 15.5671 19.1694 15.6624C19.2134 15.6951 19.2106 15.7635 19.1627 15.7914C18.5583 16.1448 17.9299 16.4432 17.2691 16.6926C17.226 16.709 17.2069 16.759 17.228 16.8004C17.5923 17.5062 18.0084 18.1782 18.4665 18.8156C18.4856 18.8426 18.52 18.8541 18.5516 18.8445C20.5342 18.2312 22.5445 17.3059 24.6199 15.7818C24.6381 15.7683 24.6496 15.7481 24.6515 15.726C25.1574 10.4921 23.8041 5.94578 21.064 1.91547C21.0573 1.90201 21.0459 1.89237 21.0325 1.88659ZM8.60035 12.9685C7.40483 12.9685 6.41976 11.8709 6.41976 10.523C6.41976 9.17502 7.38573 8.07744 8.60035 8.07744C9.82451 8.07744 10.8 9.18465 10.7809 10.523C10.7809 11.8709 9.81494 12.9685 8.60035 12.9685ZM16.6627 12.9685C15.4672 12.9685 14.4822 11.8709 14.4822 10.523C14.4822 9.17502 15.4481 8.07744 16.6627 8.07744C17.8869 8.07744 18.8624 9.18465 18.8433 10.523C18.8433 11.8709 17.8869 12.9685 16.6627 12.9685Z" fill="white"/>
</svg>
