<svg width="73" height="73" viewBox="0 0 73 73" fill="none" xmlns="http://www.w3.org/2000/svg">
<path d="M12.1177 55.8919V65.5606L20.4647 60.7263V51.0576L12.1177 55.8919Z" stroke="black" stroke-width="1.43958" stroke-linejoin="round"/>
<path d="M12.1184 65.5606V55.8919L3.66699 51.0576V60.7263L12.1184 65.5606Z" stroke="black" stroke-width="1.43958" stroke-linejoin="round"/>
<path d="M12.0662 55.8577L20.4654 51.006L12.0662 46.1543L3.66699 51.006L12.0662 55.8577Z" stroke="black" stroke-width="1.43958" stroke-linejoin="round"/>
<path d="M61.541 55.8929V65.5616L69.8881 60.7272V51.0586L61.541 55.8929Z" stroke="black" stroke-width="1.43958" stroke-linejoin="round"/>
<path d="M36.8286 16.3451V26.0137L45.1757 21.1794V11.5107L36.8286 16.3451Z" stroke="black" stroke-width="1.43958" stroke-linejoin="round"/>
<path d="M36.8293 26.0137V16.3451L28.3779 11.5107V21.1794L36.8293 26.0137Z" stroke="black" stroke-width="1.43958" stroke-linejoin="round"/>
<path d="M36.7771 16.3099L45.1763 11.4582L36.7771 6.60645L28.3779 11.4582L36.7771 16.3099Z" stroke="black" stroke-width="1.43958" stroke-linejoin="round"/>
<path d="M35.6134 57.6977C35.3319 57.3285 35.0987 56.9237 34.9202 56.4929C34.6495 55.8392 34.5101 55.1386 34.5101 54.4311C34.5101 53.7235 34.6495 53.0229 34.9202 52.3692C35.0987 51.9384 35.3319 51.5336 35.6134 51.1644L38.88 54.4311L35.6134 57.6977Z" stroke="black" stroke-width="1.43958"/>
<path d="M46.8668 35.2437L51.3291 36.4394C51.1501 36.8677 50.9161 37.2721 50.6323 37.642C50.2016 38.2034 49.6645 38.6743 49.0517 39.0281C48.439 39.3819 47.7626 39.6115 47.0611 39.7039C46.5988 39.7647 46.1316 39.7652 45.6711 39.706L46.8668 35.2437Z" stroke="black" stroke-width="1.43958"/>
<path d="M24.0052 39.3829L22.8095 34.9206C23.2699 34.8614 23.7371 34.8618 24.1994 34.9227C24.9009 35.0151 25.5774 35.2447 26.1901 35.5984C26.8029 35.9522 27.3399 36.4232 27.7706 36.9845C28.0545 37.3545 28.2885 37.7588 28.4675 38.1872L24.0052 39.3829Z" stroke="black" stroke-width="1.43958"/>
<path fill-rule="evenodd" clip-rule="evenodd" d="M43.5506 28.0597C43.3478 27.7178 42.9062 27.6051 42.5643 27.8079C42.2224 28.0107 42.1097 28.4523 42.3125 28.7942L44.7763 32.9478C44.9791 33.2897 45.4207 33.4024 45.7626 33.1996C46.1045 32.9968 46.2173 32.5552 46.0145 32.2133L43.5506 28.0597ZM31.0998 28.7989C31.3052 28.4586 31.1959 28.0162 30.8556 27.8107C30.5152 27.6053 30.0728 27.7146 29.8674 28.0549L25.8891 34.6449C26.1156 34.7413 26.3364 34.8515 26.5505 34.9751C26.7541 35.0926 26.9503 35.2216 27.1383 35.3612L31.0998 28.7989ZM52.1679 45.4086L48.9072 39.9118C49.0792 39.8328 49.2477 39.7458 49.4121 39.6508C49.6652 39.5047 49.907 39.3409 50.1356 39.1609L53.406 44.6742C53.6088 45.0161 53.4961 45.4577 53.1541 45.6605C52.8122 45.8633 52.3707 45.7505 52.1679 45.4086ZM23.071 42.1617C23.2793 41.8232 23.1737 41.3798 22.8352 41.1715C22.4966 40.9631 22.0533 41.0687 21.8449 41.4073L19.8408 44.6642C19.6324 45.0027 19.738 45.4461 20.0765 45.6544C20.4151 45.8628 20.8585 45.7572 21.0668 45.4186L23.071 42.1617ZM25.6502 53.8035C25.2526 53.8035 24.9304 54.1258 24.9304 54.5233C24.9304 54.9209 25.2526 55.2431 25.6502 55.2431H33.845C33.8089 54.974 33.7906 54.7022 33.7906 54.4295C33.7906 54.2201 33.8014 54.0111 33.8228 53.8035H25.6502ZM42.0308 53.8035C41.6333 53.8035 41.311 54.1258 41.311 54.5233C41.311 54.9209 41.6333 55.2431 42.0308 55.2431H47.491C47.8885 55.2431 48.2108 54.9209 48.2108 54.5233C48.2108 54.1258 47.8885 53.8035 47.491 53.8035H42.0308Z" fill="black"/>
<path d="M61.5412 65.5616V55.8929L53.0898 51.0586V60.7272L61.5412 65.5616Z" stroke="black" stroke-width="1.43958" stroke-linejoin="round"/>
<path d="M61.4891 55.8587L69.8883 51.007L61.4891 46.1553L53.0898 51.007L61.4891 55.8587Z" stroke="black" stroke-width="1.43958" stroke-linejoin="round"/>
</svg>
