<svg width="45" height="35" viewBox="0 0 45 35" fill="none" xmlns="http://www.w3.org/2000/svg">
<path d="M37.5033 3.33068C34.6912 2.04037 31.6757 1.08973 28.5227 0.545253C28.4653 0.534745 28.4079 0.561005 28.3784 0.613527C27.9905 1.30331 27.5609 2.20318 27.2601 2.91048C23.8689 2.40278 20.4951 2.40278 17.1735 2.91048C16.8726 2.18746 16.4274 1.30331 16.0378 0.613527C16.0082 0.562757 15.9509 0.536497 15.8935 0.545253C12.7422 1.08799 9.72669 2.03863 6.91285 3.33068C6.88849 3.34118 6.86761 3.35871 6.85376 3.38145C1.13389 11.9268 -0.433025 20.2621 0.335649 28.4941C0.339127 28.5344 0.361735 28.5729 0.393039 28.5974C4.16684 31.3688 7.82242 33.0513 11.4101 34.1665C11.4675 34.184 11.5284 34.163 11.5649 34.1157C12.4136 32.9568 13.1701 31.7347 13.8187 30.4497C13.857 30.3744 13.8205 30.2851 13.7422 30.2553C12.5423 29.8002 11.3997 29.2452 10.3006 28.6149C10.2136 28.5642 10.2067 28.4398 10.2867 28.3803C10.5179 28.207 10.7493 28.0266 10.9701 27.8446C11.0101 27.8113 11.0658 27.8043 11.1128 27.8253C18.3334 31.122 26.1506 31.122 33.286 27.8253C33.333 27.8025 33.3887 27.8096 33.4304 27.8428C33.6513 28.0249 33.8826 28.207 34.1156 28.3803C34.1956 28.4398 34.1903 28.5642 34.1034 28.6149C33.0043 29.2574 31.8617 29.8002 30.66 30.2536C30.5818 30.2834 30.547 30.3744 30.5853 30.4497C31.2478 31.7329 32.0043 32.955 32.8373 34.114C32.8721 34.163 32.9347 34.184 32.9921 34.1665C36.5972 33.0513 40.2528 31.3688 44.0266 28.5974C44.0596 28.5729 44.0805 28.5361 44.084 28.4959C45.0039 18.9788 42.5431 10.7118 37.5607 3.38319C37.5485 3.35871 37.5277 3.34118 37.5033 3.33068ZM14.897 23.4817C12.7231 23.4817 10.9319 21.4859 10.9319 19.0348C10.9319 16.5838 12.6884 14.588 14.897 14.588C17.123 14.588 18.8969 16.6013 18.8621 19.0348C18.8621 21.4859 17.1056 23.4817 14.897 23.4817ZM29.5574 23.4817C27.3836 23.4817 25.5924 21.4859 25.5924 19.0348C25.5924 16.5838 27.3488 14.588 29.5574 14.588C31.7835 14.588 33.5573 16.6013 33.5226 19.0348C33.5226 21.4859 31.7835 23.4817 29.5574 23.4817Z" fill="white"/>
</svg>
