<svg width="22" height="22" viewBox="0 0 22 22" fill="none" xmlns="http://www.w3.org/2000/svg">
<path d="M12.9504 13.9012C13.0248 13.9747 13.0248 14.0946 12.9504 14.1689C12.5436 14.5732 11.9057 14.7701 10.9983 14.7701L10.9913 14.7683L10.9843 14.7701C10.0778 14.7701 9.43906 14.5732 9.03219 14.1681C8.95781 14.0946 8.95781 13.9747 9.03219 13.9012C9.10569 13.8277 9.22644 13.8277 9.30081 13.9012C9.63244 14.2311 10.1828 14.3921 10.9843 14.3921L10.9913 14.3938L10.9983 14.3921C11.7989 14.3921 12.3493 14.2311 12.6818 13.9012C12.7562 13.8277 12.8769 13.8277 12.9504 13.9012ZM9.94044 11.7854C9.94044 11.3418 9.57819 10.9813 9.13369 10.9813C8.68831 10.9813 8.32606 11.3418 8.32606 11.7854C8.32606 12.2282 8.68831 12.5887 9.13369 12.5887C9.57819 12.5896 9.94044 12.2291 9.94044 11.7854ZM21.4922 10.9717C21.4922 16.7703 16.7908 21.4717 10.9922 21.4717C5.19356 21.4717 0.492188 16.7703 0.492188 10.9717C0.492188 5.17305 5.19356 0.47168 10.9922 0.47168C16.7908 0.47168 21.4922 5.17305 21.4922 10.9717ZM17.1172 10.8588C17.1172 10.1142 16.5091 9.50868 15.7609 9.50868C15.3961 9.50868 15.0653 9.6548 14.8212 9.8893C13.8972 9.28118 12.6468 8.89443 11.2634 8.84455L12.0203 6.46105L14.0704 6.94143L14.0678 6.97118C14.0678 7.58018 14.5657 8.07543 15.1773 8.07543C15.7889 8.07543 16.2859 7.58018 16.2859 6.97118C16.2859 6.36218 15.7889 5.86693 15.1773 5.86693C14.7074 5.86693 14.3076 6.16005 14.1457 6.57043L11.9363 6.05243C11.8401 6.0288 11.7412 6.0848 11.7114 6.1793L10.8671 8.83755C9.41806 8.85505 8.10644 9.2453 7.14131 9.87093C6.89894 9.6478 6.57781 9.5078 6.22256 9.5078C5.47531 9.50868 4.86719 10.1142 4.86719 10.8588C4.86719 11.3541 5.13931 11.7828 5.53919 12.0182C5.51294 12.1617 5.49544 12.3078 5.49544 12.4557C5.49544 14.4516 7.94981 16.0756 10.9668 16.0756C13.9838 16.0756 16.4382 14.4516 16.4382 12.4557C16.4382 12.3157 16.4233 12.1783 16.3997 12.0427C16.8249 11.8143 17.1172 11.3724 17.1172 10.8588ZM12.8542 10.9822C12.4088 10.9822 12.0474 11.3427 12.0474 11.7863C12.0474 12.2291 12.4097 12.5896 12.8542 12.5896C13.2987 12.5896 13.6609 12.2291 13.6609 11.7863C13.6609 11.3427 13.2996 10.9822 12.8542 10.9822Z" fill="white"/>
</svg>
