<svg width="73" height="73" viewBox="0 0 73 73" fill="none" xmlns="http://www.w3.org/2000/svg">
<path d="M41.8608 42.2034L61.7427 33.7002" stroke="black" stroke-width="1.43958" stroke-linecap="round" stroke-linejoin="round"/>
<path d="M13.3879 57.9041L8.24455 60.8736C5.3385 55.8402 3.80859 50.1305 3.80859 44.3184C3.80859 38.5063 5.3385 32.7966 8.24455 27.7632C11.1506 22.7298 15.3304 18.55 20.3638 15.644C25.3972 12.7379 31.1069 11.208 36.919 11.208C42.7311 11.208 48.4408 12.7379 53.4742 15.644C58.5076 18.55 62.6874 22.7298 65.5935 27.7632C68.4995 32.7966 70.0294 38.5063 70.0294 44.3184C70.0294 50.1305 68.4995 55.8402 65.5935 60.8736L60.4501 57.9041" stroke="black" stroke-width="1.43958" stroke-linecap="round" stroke-linejoin="round"/>
<path d="M59.9325 20.5615L56.3315 24.1625" stroke="black" stroke-width="1.43958" stroke-linecap="round" stroke-linejoin="round"/>
<path d="M14.2887 20.5615L17.8896 24.1625" stroke="black" stroke-width="1.43958" stroke-linecap="round" stroke-linejoin="round"/>
<path d="M36.7695 11.6074V15.3057" stroke="black" stroke-width="1.43958" stroke-linecap="round" stroke-linejoin="round"/>
<path d="M69.2762 39.0527L64.8599 39.7139" stroke="black" stroke-width="1.43958" stroke-linecap="round" stroke-linejoin="round"/>
<path d="M4.56168 39.0527L8.97803 39.7139" stroke="black" stroke-width="1.43958" stroke-linecap="round" stroke-linejoin="round"/>
<circle cx="36.9196" cy="44.382" r="5.3293" stroke="black" stroke-width="1.43958"/>
<circle cx="36.9195" cy="44.3814" r="1.6909" stroke="black" stroke-width="1.43958"/>
</svg>
