<svg width="40" height="39" viewBox="0 0 40 39" fill="none" xmlns="http://www.w3.org/2000/svg">
<path d="M23.52 24.7226C23.6552 24.8563 23.6552 25.0742 23.52 25.2095C22.7801 25.9446 21.6202 26.3026 19.9703 26.3026L19.9576 26.2994L19.9448 26.3026C18.2965 26.3026 17.135 25.9446 16.3951 25.2079C16.2599 25.0742 16.2599 24.8563 16.3951 24.7226C16.5288 24.589 16.7484 24.589 16.8836 24.7226C17.4866 25.3225 18.4874 25.6152 19.9448 25.6152L19.9576 25.6184L19.9703 25.6152C21.4261 25.6152 22.4269 25.3225 23.0315 24.7226C23.1668 24.589 23.3863 24.589 23.52 24.7226ZM18.0467 20.8754C18.0467 20.0687 17.388 19.4132 16.5797 19.4132C15.7699 19.4132 15.1111 20.0687 15.1111 20.8754C15.1111 21.6805 15.7699 22.336 16.5797 22.336C17.388 22.3376 18.0467 21.6821 18.0467 20.8754ZM39.0521 19.3957C39.0521 29.9398 30.5032 38.4886 19.9592 38.4886C9.41508 38.4886 0.866211 29.9398 0.866211 19.3957C0.866211 8.8516 9.41508 0.302734 19.9592 0.302734C30.5032 0.302734 39.0521 8.8516 39.0521 19.3957ZM31.0967 19.1904C31.0967 17.8364 29.9909 16.7354 28.6305 16.7354C27.9671 16.7354 27.3656 17.0011 26.9217 17.4275C25.2415 16.3217 22.9679 15.6185 20.4524 15.5278L21.8287 11.1937L25.5566 12.0672L25.5518 12.1213C25.5518 13.2287 26.4571 14.1292 27.5693 14.1292C28.6815 14.1292 29.5852 13.2287 29.5852 12.1213C29.5852 11.0139 28.6815 10.1133 27.5693 10.1133C26.7149 10.1133 25.9878 10.6463 25.6934 11.3926L21.6759 10.4506C21.5009 10.4077 21.3211 10.5095 21.267 10.6813L19.7316 15.515C17.0968 15.5469 14.7118 16.2565 12.9568 17.3941C12.5161 16.9884 11.9322 16.7338 11.2862 16.7338C9.92741 16.7354 8.82161 17.8364 8.82161 19.1904C8.82161 20.091 9.31643 20.8706 10.0436 21.2986C9.99582 21.5596 9.964 21.8253 9.964 22.0942C9.964 25.7234 14.427 28.6765 19.913 28.6765C25.3991 28.6765 29.862 25.7234 29.862 22.0942C29.862 21.8396 29.835 21.5898 29.792 21.3432C30.5653 20.9279 31.0967 20.1244 31.0967 19.1904ZM23.345 19.4148C22.5351 19.4148 21.878 20.0703 21.878 20.877C21.878 21.6821 22.5367 22.3376 23.345 22.3376C24.1532 22.3376 24.812 21.6821 24.812 20.877C24.812 20.0703 24.1548 19.4148 23.345 19.4148Z" fill="white"/>
</svg>
