<svg width="49" height="49" viewBox="0 0 49 49" fill="none" xmlns="http://www.w3.org/2000/svg">
<path d="M48.5096 22.9678V26.4206C48.466 26.4351 48.4225 26.45 48.375 26.4658C48.375 26.8274 48.3766 27.1822 48.3734 27.5371C48.3731 27.5849 48.3537 27.6714 48.335 27.6737C48.2223 27.6879 48.25 27.7673 48.2497 27.8312C48.2478 28.0734 48.2504 28.3152 48.2481 28.5574C48.2478 28.5968 48.2332 28.6694 48.2213 28.67C48.075 28.6797 48.1273 28.7889 48.1241 28.8622C48.1183 29.0013 48.1225 29.1411 48.1225 29.2809C48.107 29.2767 48.0915 29.2725 48.0757 29.268C48.0489 29.3329 48.0063 29.3962 47.9992 29.4634C47.9866 29.5802 47.9976 29.6997 47.9946 29.8179C47.9937 29.8537 47.984 29.9186 47.9717 29.9199C47.8103 29.9402 47.8826 30.0629 47.8713 30.1443C47.8587 30.2337 47.8787 30.3958 47.8506 30.4036C47.6921 30.4471 47.7615 30.5634 47.7451 30.6512C47.7247 30.7581 47.8122 30.903 47.6356 30.9579C47.623 30.9618 47.6237 31.0173 47.623 31.049C47.6214 31.1404 47.6256 31.2321 47.6208 31.3231C47.6191 31.356 47.6011 31.4142 47.5859 31.4158C47.4603 31.4287 47.5103 31.523 47.5003 31.5879C47.49 31.6553 47.4958 31.7777 47.4739 31.7826C47.3198 31.8171 47.3941 31.9327 47.3747 32.0141C47.3625 32.066 47.3489 32.1187 47.3276 32.1674C47.3082 32.212 47.2675 32.2485 47.2536 32.294C47.2239 32.3899 47.3227 32.5365 47.1384 32.5723C47.1284 32.5742 47.1303 32.6314 47.1245 32.6627C47.1054 32.7644 47.1907 32.9068 47.0121 32.9497C47.0012 32.9523 47.0002 33.0092 46.9992 33.0408C46.9976 33.1205 46.9986 33.2 46.9986 33.2797C46.9789 33.2755 46.9592 33.271 46.9398 33.2668C46.9179 33.321 46.8888 33.3737 46.8759 33.4299C46.8588 33.5054 46.8733 33.6397 46.8404 33.651C46.7341 33.6878 46.76 33.7595 46.749 33.8293C46.7442 33.8596 46.7167 33.8867 46.6996 33.9151C46.676 33.9548 46.647 33.9923 46.6305 34.0346C46.6157 34.0724 46.6195 34.1489 46.6056 34.1515C46.4397 34.1802 46.5288 34.3094 46.503 34.392C46.4826 34.4579 46.4513 34.5205 46.4248 34.5845C46.4116 34.5806 46.3984 34.577 46.3851 34.5732C46.3796 34.6368 46.3861 34.7511 46.3664 34.7559C46.2037 34.795 46.2682 34.9296 46.244 35.029C46.0506 35.03 46.1543 35.1821 46.0997 35.2589C46.0561 35.3135 46.0309 35.3736 46.0025 35.4326C45.9841 35.4707 45.9622 35.5069 45.9405 35.5434C45.9215 35.5757 45.895 35.6051 45.8818 35.6393C45.8333 35.7646 45.7894 35.8918 45.7426 36.0177C45.7397 36.0251 45.7229 36.0261 45.7174 36.0338C45.6884 36.0723 45.6574 36.1097 45.6341 36.1517C45.6028 36.2085 45.5779 36.2689 45.5502 36.3277C45.536 36.3235 45.5214 36.3196 45.5072 36.3154V36.4917C45.4191 36.5663 45.3435 36.6302 45.2573 36.7032C45.2547 36.7568 45.2518 36.8258 45.2483 36.9004C45.0546 36.903 45.1569 37.0548 45.1227 37.1284C45.0177 37.2265 44.8618 37.273 44.8763 37.4554C44.8783 37.479 44.8366 37.5048 44.8176 37.5316C44.7959 37.5623 44.7601 37.5949 44.7604 37.6266C44.7617 37.7987 44.6219 37.8519 44.5128 37.9401C44.4879 38.0211 44.5654 38.15 44.3978 38.1842C44.3449 38.1948 44.2638 38.2801 44.2687 38.3227C44.2835 38.456 44.2054 38.5277 44.1295 38.6046C44.0569 38.6782 43.9762 38.7444 43.8993 38.8138C43.8619 38.94 43.8112 39.063 43.723 39.1463C43.6132 39.2503 43.4647 39.3162 43.5038 39.4821C43.373 39.608 43.2561 39.7214 43.138 39.8337C43.0999 39.8702 43.0243 39.9051 43.0256 39.9383C43.0305 40.0581 42.9865 40.1401 42.8916 40.205C42.8487 40.2344 42.8061 40.2674 42.7722 40.3064C42.6747 40.4178 42.5955 40.5502 42.4829 40.6422C42.3682 40.7355 42.2381 40.8011 42.2565 40.9777C42.2575 40.987 42.2527 41.0009 42.2456 41.0071C42.1396 41.0968 42.0305 41.183 41.9275 41.2757C41.8691 41.3283 41.8194 41.3913 41.7671 41.4507C41.7096 41.5156 41.6576 41.586 41.5963 41.647C41.4894 41.7532 41.3767 41.854 41.2672 41.9576C41.1571 42.0622 41.0451 42.1652 40.9392 42.274C40.8675 42.3476 40.8042 42.4296 40.7439 42.5004C40.6673 42.5213 40.5831 42.5249 40.5243 42.5653C40.4439 42.6205 40.3835 42.7044 40.3131 42.7748C40.2182 42.8691 40.1146 42.9556 40.0284 43.057C39.9312 43.1713 39.8582 43.313 39.7071 43.2762C39.6306 43.3382 39.5705 43.3763 39.524 43.4267C39.392 43.5694 39.3177 43.7844 39.0691 43.777C39.0552 43.7767 39.0407 43.8015 39.0259 43.8135C38.8809 43.9297 38.8179 44.158 38.5754 44.1428C38.5606 44.1418 38.5435 44.1644 38.5289 44.1777C38.3895 44.3088 38.3197 44.5319 38.0731 44.5225C38.0595 44.5219 38.0385 44.5322 38.0327 44.5432C37.9649 44.6772 37.8787 44.7811 37.7082 44.7724C37.6904 44.7714 37.6733 44.8173 37.6507 44.8351C37.5732 44.8961 37.4958 44.9581 37.4134 45.012C37.3592 45.0475 37.2965 45.0701 37.2378 45.0985C37.1745 45.1376 37.0815 45.1344 37.0324 45.1796C36.9369 45.2671 36.8897 45.4149 36.7192 45.392C36.705 45.3901 36.6766 45.3985 36.6757 45.4052C36.653 45.5641 36.5236 45.4982 36.4438 45.5189C36.3424 45.6232 36.2914 45.7837 36.1051 45.763C36.0835 45.7604 36.0396 45.7804 36.0389 45.7917C36.0315 45.9112 35.9443 45.8805 35.8746 45.886C35.8491 45.8879 35.8032 45.8941 35.802 45.9038C35.7771 46.0626 35.6476 45.9926 35.5679 46.0319C35.5214 46.0771 35.4697 46.1091 35.4164 46.1372C35.3596 46.1672 35.3012 46.1937 35.2434 46.2218C35.1837 46.2644 35.0561 46.2657 35.0503 46.2935C35.0235 46.4171 34.9396 46.3845 34.865 46.392C34.8411 46.3942 34.7998 46.4065 34.7981 46.4184C34.782 46.5334 34.6951 46.5021 34.6251 46.5104C34.596 46.514 34.5447 46.5295 34.5444 46.5418C34.5389 46.6551 34.4569 46.626 34.392 46.6322C34.361 46.6351 34.3051 46.6393 34.3032 46.6503C34.2725 46.8211 34.1388 46.7336 34.05 46.7571C34.0045 46.7694 33.9606 46.7894 33.9186 46.8107C33.8783 46.8314 33.8421 46.8604 33.8018 46.8814C33.7452 46.9105 33.6865 46.9357 33.6287 46.9625L33.6416 47.0096H33.4346C33.4388 47.0261 33.443 47.0422 33.4472 47.0587C33.3894 47.0845 33.3336 47.1187 33.2732 47.1339C33.1818 47.1572 33.0504 47.0803 33.0181 47.2437C33.0165 47.2518 32.9913 47.2585 32.9765 47.2598C32.8473 47.2711 32.7246 47.2369 32.6078 47.3728C32.5412 47.45 32.3501 47.357 32.2264 47.4965C32.1615 47.5698 31.982 47.481 31.8635 47.6176C31.7957 47.6957 31.6085 47.6005 31.4851 47.7412C31.4199 47.8155 31.2204 47.7125 31.1132 47.871C31.0809 47.9188 30.9198 47.8781 30.8177 47.8817C30.7709 47.8833 30.6844 47.8911 30.6838 47.9014C30.6702 48.068 30.5443 47.9886 30.4648 48.0076C30.3567 48.0334 30.2024 47.9295 30.1491 48.1197C30.1458 48.1316 30.09 48.1322 30.0583 48.1329C29.9725 48.1345 29.8863 48.1306 29.8004 48.1345C29.7597 48.1364 29.6854 48.1474 29.6841 48.16C29.6693 48.3034 29.5621 48.2524 29.4872 48.2565C29.3745 48.2627 29.2612 48.2553 29.1485 48.2598C29.1168 48.2611 29.0849 48.2821 29.0552 48.2982C29.0077 48.324 28.9638 48.3725 28.9154 48.377C28.7927 48.3883 28.6684 48.3776 28.5447 48.3825C28.5073 48.3841 28.4695 48.4054 28.4346 48.4228C28.3859 48.447 28.3403 48.4977 28.2922 48.4994C28.0504 48.5071 27.8082 48.501 27.5664 48.5045C27.5238 48.5052 27.4469 48.5252 27.4447 48.5436C27.4302 48.6569 27.3485 48.6262 27.2858 48.6269C26.9633 48.6288 26.6404 48.6262 26.3179 48.6291C26.2752 48.6295 26.1971 48.6501 26.1955 48.6666C26.1858 48.7793 26.1067 48.7531 26.0424 48.7535C25.6928 48.7544 25.3434 48.7538 24.9937 48.7538C24.236 48.7538 23.4779 48.7538 22.7201 48.7538C22.7236 48.738 22.7275 48.7218 22.731 48.706C22.6678 48.6798 22.6054 48.633 22.5415 48.6311C22.2729 48.6227 22.0036 48.6353 21.735 48.6243C21.6252 48.6198 21.4722 48.705 21.4153 48.5168C21.4111 48.5026 21.3459 48.5039 21.3088 48.5035C21.1099 48.5026 20.9107 48.5042 20.7118 48.5023C20.6701 48.5019 20.5956 48.4971 20.5923 48.4822C20.5581 48.325 20.4361 48.3876 20.3479 48.3825C20.2139 48.3744 20.0793 48.3818 19.9446 48.3799C19.9085 48.3792 19.842 48.3718 19.8407 48.3612C19.821 48.201 19.6993 48.2666 19.6169 48.2598C19.5155 48.2514 19.4125 48.262 19.3108 48.2553C19.2757 48.253 19.2411 48.2256 19.2082 48.2065C19.1691 48.1839 19.1339 48.141 19.0939 48.1364C18.9983 48.1258 18.9005 48.1374 18.8039 48.1306C18.7691 48.128 18.7352 48.0993 18.7025 48.0799C18.6644 48.0573 18.6299 48.015 18.5905 48.0105C18.5004 47.9999 18.4081 48.0086 18.3167 48.0066C18.2854 48.006 18.2282 48.0012 18.227 47.9918C18.1995 47.8065 18.0552 47.9059 17.9635 47.8807C17.9202 47.8688 17.8405 47.8604 17.8395 47.8455C17.8301 47.7206 17.7401 47.758 17.6726 47.7545C17.5657 47.7487 17.3823 47.7781 17.3655 47.737C17.299 47.5769 17.1805 47.6505 17.0833 47.6328C17.0472 47.626 16.9816 47.6273 16.9787 47.6137C16.9419 47.4487 16.8121 47.5281 16.7207 47.5097C16.6804 47.5017 16.6084 47.4994 16.6052 47.4833C16.5761 47.3415 16.4673 47.3993 16.3869 47.387C16.331 47.3787 16.2284 47.3745 16.2268 47.3593C16.2125 47.2295 16.1189 47.2721 16.0472 47.2598C16.0166 47.2547 15.9888 47.2288 15.9607 47.2108C15.9236 47.1869 15.8903 47.1497 15.85 47.1384C15.7521 47.111 15.6081 47.2043 15.5691 47.0238C15.5668 47.0132 15.5103 47.0109 15.479 47.0103C15.3989 47.0083 15.3185 47.0096 15.2381 47.0096L15.2497 46.9602C15.1871 46.9344 15.1241 46.9086 15.0615 46.883C15.0299 46.8701 14.9721 46.8595 14.9704 46.844C14.9617 46.7458 14.8952 46.7587 14.8306 46.7558C14.7955 46.7542 14.7322 46.7445 14.7306 46.7323C14.7147 46.6096 14.6243 46.6364 14.5478 46.6306C14.5229 46.6286 14.4781 46.6167 14.4777 46.608C14.4713 46.4601 14.3596 46.5217 14.2866 46.5095C14.2249 46.4991 14.1145 46.5021 14.1093 46.4798C14.0832 46.3671 14.0044 46.3955 13.9343 46.3897C13.9092 46.3878 13.864 46.38 13.8627 46.37C13.8404 46.2047 13.7058 46.2886 13.6115 46.2531C13.6115 46.0681 13.4588 46.1614 13.3738 46.1101C13.317 46.0633 13.2544 46.0365 13.1911 46.011C13.163 45.9997 13.1213 46.001 13.1071 45.9809C13.0238 45.8641 12.9541 45.7323 12.7749 45.7569C12.7623 45.7585 12.7362 45.7449 12.7358 45.7372C12.7274 45.6116 12.6332 45.6439 12.5583 45.6355C12.5298 45.6322 12.4804 45.6151 12.4798 45.6019C12.4727 45.4898 12.3904 45.5234 12.3271 45.5124C12.2903 45.506 12.2483 45.4885 12.2238 45.4618C12.1288 45.3584 12.061 45.2151 11.8631 45.269C11.8783 45.0469 11.7097 45.1715 11.6497 45.1405C11.5344 45.0297 11.4895 44.8748 11.3107 44.8851C11.2839 44.8867 11.2519 44.8551 11.2277 44.8331C11.1605 44.7718 11.0979 44.6565 11.0301 44.6539C10.8422 44.6468 10.7889 44.4999 10.6849 44.3966C10.4141 44.4208 10.365 44.1473 10.158 44.0156C10.1341 44.0143 10.0653 44.0111 9.99657 44.0079C9.84612 43.8906 9.80188 43.6511 9.56489 43.6462C9.54003 43.6456 9.50871 43.6395 9.49192 43.6236C9.40733 43.5436 9.32112 43.4638 9.24525 43.3757C9.11255 43.2217 9.02569 43.0131 8.77482 43.0098C8.75964 43.0098 8.74738 42.9718 8.72994 42.9546C8.62468 42.851 8.51878 42.748 8.41191 42.6456C8.31311 42.5514 8.21141 42.4606 8.11422 42.3647C8.04254 42.294 7.97764 42.2162 7.90758 42.1436C7.81104 42.0435 7.70966 41.9479 7.61506 41.8462C7.51852 41.7429 7.43134 41.6312 7.33319 41.5295C7.21921 41.411 7.09846 41.2993 6.98029 41.185C6.88472 41.092 6.79076 40.9977 6.69293 40.907C6.58703 40.8085 6.47434 40.7171 6.37135 40.6157C6.28643 40.5321 6.21185 40.4385 6.12467 40.34C6.11176 40.2916 6.11337 40.2054 6.07107 40.1589C5.97615 40.0543 5.85765 39.9716 5.7524 39.876C5.70397 39.8321 5.61808 39.7672 5.62744 39.733C5.6678 39.5835 5.54027 39.5277 5.48118 39.4418C5.42629 39.3623 5.33105 39.3107 5.2429 39.2384V39.0592C5.12376 38.8984 4.86805 38.8541 4.86643 38.6026C4.86643 38.5836 4.85642 38.5574 4.84222 38.5468C4.72727 38.4615 4.5936 38.3908 4.6175 38.2113C4.61943 38.1977 4.5978 38.1761 4.5823 38.1658C4.44863 38.0776 4.32529 37.9843 4.36662 37.7938C4.32981 37.7867 4.2859 37.788 4.28203 37.7761C4.24619 37.6679 4.06893 37.6434 4.1122 37.4864C4.11769 37.4668 4.07733 37.4341 4.05731 37.4083C3.99693 37.3298 3.93171 37.2546 3.87682 37.1723C3.84098 37.119 3.81967 37.0561 3.79158 36.9976C3.79288 36.8007 3.62369 36.7261 3.50358 36.6234C3.49745 36.5579 3.50035 36.441 3.48453 36.4384C3.3147 36.41 3.39154 36.2741 3.34537 36.1946C3.29952 36.1433 3.26627 36.0852 3.24593 36.0229C3.2075 35.905 3.07577 35.8265 3.10289 35.6819C2.97116 35.6706 3.00539 35.5689 2.99408 35.4888C2.99053 35.464 2.9618 35.443 2.94662 35.4191C2.92176 35.3803 2.89658 35.3419 2.87527 35.3012C2.84524 35.2438 2.81909 35.1844 2.77066 35.0826C2.82619 34.9512 2.5595 34.8679 2.61568 34.6852C2.47652 34.6687 2.49976 34.5638 2.49654 34.4711C2.49589 34.455 2.47684 34.4262 2.46489 34.4256C2.32703 34.4179 2.38611 34.3126 2.37384 34.2441C2.3619 34.1783 2.36157 34.0585 2.34091 34.0549C2.22145 34.0352 2.2547 33.9526 2.2476 33.8835C2.24502 33.858 2.23888 33.8138 2.22758 33.8112C2.06905 33.7782 2.1446 33.6526 2.12555 33.5648C2.11522 33.517 2.10392 33.4683 2.08423 33.4237C2.06259 33.3753 2.02708 33.333 2.00448 33.2846C1.9893 33.2523 1.99059 33.1854 1.97703 33.1835C1.81753 33.1596 1.89954 33.0366 1.87823 32.9568C1.86435 32.9049 1.85273 32.8516 1.83109 32.8028C1.81107 32.758 1.76361 32.7211 1.75619 32.6759C1.74359 32.5985 1.75263 32.5174 1.75263 32.4451C1.51403 32.375 1.68741 32.1816 1.59862 32.0531C1.46851 32.079 1.50693 31.9714 1.49724 31.8875C1.48885 31.8165 1.46947 31.7454 1.44558 31.6776C1.43073 31.6363 1.38133 31.6034 1.37649 31.563C1.36583 31.4729 1.37519 31.3806 1.37197 31.2892C1.37067 31.2537 1.3626 31.1901 1.3484 31.1872C1.20472 31.1588 1.26897 31.0474 1.25509 30.9686C1.24604 30.9169 1.24734 30.8223 1.23216 30.8197C1.0859 30.7955 1.14951 30.6845 1.13078 30.6063C1.09333 30.4513 1.23539 30.2521 1.01551 30.1398C1.00066 30.1323 1.00776 30.0791 1.00744 30.0468C1.00647 29.9554 1.00938 29.8637 1.00583 29.7727C1.00486 29.7436 0.990329 29.6903 0.979674 29.6897C0.833412 29.6823 0.887978 29.5725 0.882489 29.4995C0.876031 29.4085 0.876031 29.3164 0.882489 29.2254C0.889269 29.1276 0.883135 29.0449 0.754308 29.0426C0.754308 28.8325 0.756568 28.6336 0.752371 28.4347C0.751402 28.393 0.731061 28.3191 0.711366 28.3162C0.613212 28.3023 0.627418 28.2358 0.627418 28.1725C0.627418 27.8874 0.629033 27.6023 0.626127 27.3175C0.625804 27.2756 0.606432 27.1994 0.589319 27.1974C0.477605 27.1848 0.502466 27.1054 0.502143 27.0405C0.501175 26.5459 0.502143 26.0509 0.502143 25.5563C0.502143 24.4914 0.501498 23.4266 0.503435 22.3617C0.503435 22.3088 0.521839 22.2135 0.543471 22.21C0.653248 22.1919 0.626773 22.116 0.627096 22.0521C0.62871 21.778 0.627741 21.5042 0.627741 21.2301C0.643885 21.2346 0.660352 21.2388 0.676495 21.2433C0.702325 21.1787 0.746236 21.1158 0.750756 21.0499C0.761734 20.8894 0.750756 20.7274 0.756568 20.5662C0.757859 20.5278 0.787241 20.4894 0.807905 20.4532C0.82986 20.4148 0.876031 20.3799 0.877646 20.3422C0.885718 20.1817 0.880874 20.0206 0.880874 19.8595C0.897018 19.863 0.913162 19.8666 0.929306 19.8704C0.955135 19.8075 0.996786 19.7458 1.00357 19.6806C1.01584 19.5634 1.00518 19.4442 1.00776 19.3261C1.00873 19.2909 1.01648 19.2282 1.03101 19.225C1.17921 19.1934 1.12174 19.0784 1.13078 18.9925C1.14014 18.9028 1.12432 18.742 1.15338 18.7339C1.31385 18.6894 1.23991 18.5725 1.25283 18.486C1.26509 18.4023 1.24217 18.2548 1.27478 18.2425C1.42072 18.1876 1.35162 18.0759 1.37423 17.9887C1.39134 17.9235 1.42427 17.8625 1.4501 17.7999C1.46624 17.8037 1.48239 17.8073 1.49853 17.8112C1.49853 17.6878 1.49466 17.5642 1.50112 17.4411C1.50273 17.4079 1.53373 17.3756 1.5531 17.344C1.57634 17.3052 1.61638 17.2694 1.62219 17.2284C1.63317 17.1496 1.62542 17.0682 1.62542 16.9881L1.67579 16.9994C1.7013 16.9375 1.73423 16.8771 1.75037 16.8125C1.76781 16.7421 1.75845 16.6094 1.7804 16.6049C1.90438 16.5807 1.87436 16.4954 1.8792 16.4202C1.88049 16.3995 1.88437 16.3627 1.89276 16.3608C2.06518 16.3237 1.98252 16.1858 2.00415 16.0889C2.01352 16.0473 2.03192 16.0066 2.05194 15.9688C2.07293 15.9291 2.1065 15.8952 2.12362 15.8545C2.13944 15.8168 2.13266 15.7406 2.1488 15.7367C2.29474 15.7028 2.23372 15.5891 2.24889 15.5045C2.25858 15.4516 2.27246 15.398 2.29409 15.3489C2.31379 15.3044 2.34801 15.2663 2.37223 15.2236C2.40419 15.1671 2.43293 15.1084 2.46296 15.0506C2.49944 14.9582 2.46683 14.8343 2.62569 14.8171C2.62569 14.7235 2.62181 14.6425 2.62762 14.5624C2.62988 14.5324 2.65442 14.5036 2.67089 14.4755C2.69607 14.4326 2.73514 14.3939 2.74612 14.3477C2.76032 14.2886 2.73223 14.214 2.83588 14.213C2.84879 14.213 2.86332 14.1646 2.87301 14.1375C2.92015 14.0064 2.96503 13.8747 3.01313 13.7442C3.01701 13.7333 3.04445 13.7326 3.05252 13.7213C3.07706 13.6874 3.09966 13.6519 3.11839 13.6148C3.1481 13.5566 3.17425 13.4966 3.20169 13.4372C3.24367 13.3736 3.24044 13.2748 3.28758 13.2325C3.40058 13.1317 3.53845 13.0581 3.49551 12.865C3.68213 12.8602 3.60399 12.7175 3.64823 12.6319C3.69504 12.579 3.71894 12.5196 3.74993 12.464C3.77318 12.4221 3.80385 12.3843 3.83291 12.3462C3.88457 12.2781 3.95625 12.218 3.98369 12.1415C4.00888 12.0714 3.99467 12.0127 4.08669 11.9571C4.17871 11.9019 4.21971 11.7615 4.30657 11.6204C4.43733 11.6204 4.34305 11.467 4.36404 11.4063C4.46316 11.3136 4.54485 11.2436 4.61846 11.1661C4.66625 11.116 4.7192 11.0602 4.73986 10.9972C4.76053 10.9352 4.73438 10.8697 4.83511 10.8435C4.89388 10.8284 4.97136 10.7493 4.97685 10.6928C4.98751 10.5801 5.01043 10.5003 5.1102 10.4303C5.20383 10.3644 5.27293 10.264 5.35978 10.171C5.36495 10.1238 5.34848 10.0386 5.38335 10.0012C5.4786 9.89945 5.59677 9.8197 5.703 9.72768C5.75724 9.68086 5.84732 9.62727 5.84764 9.57625C5.84829 9.4513 5.88897 9.36542 5.98584 9.296C6.02878 9.265 6.07301 9.23368 6.1082 9.19494C6.20474 9.08774 6.28288 8.95956 6.39395 8.87207C6.50728 8.78263 6.62674 8.71612 6.61221 8.54661C6.6106 8.5295 6.6248 8.50528 6.63901 8.49301C6.78785 8.36322 6.94025 8.23697 7.08748 8.10524C7.14237 8.05616 7.1866 7.99482 7.23503 7.93831C7.29218 7.87212 7.34513 7.80206 7.40648 7.74007C7.51271 7.63255 7.62539 7.53117 7.73226 7.4243C7.83235 7.32421 7.92663 7.21798 8.02737 7.11821C8.10938 7.03685 8.19655 6.9613 8.29503 6.87057C8.44194 6.92804 8.50651 6.77468 8.59982 6.69073C8.70476 6.59645 8.78806 6.4786 8.88783 6.37754C8.9721 6.2923 9.06605 6.21643 9.17002 6.12376C9.39215 6.178 9.43671 5.91712 9.59008 5.82317C9.69598 5.75827 9.74312 5.59974 9.91004 5.61846C9.92813 5.6204 9.95363 5.60975 9.96655 5.59619C10.1041 5.45218 10.1851 5.23392 10.4386 5.24199C10.4496 5.24232 10.4605 5.21132 10.4731 5.19647C10.5661 5.08734 10.6391 4.94463 10.7837 4.98563C10.9736 4.86649 11.0269 4.62627 11.2723 4.61885C11.2919 4.6182 11.3271 4.60852 11.3284 4.59915C11.3472 4.46936 11.4466 4.5052 11.5267 4.49648C11.5493 4.4939 11.5777 4.48001 11.5906 4.46225C11.6791 4.33827 11.7617 4.20815 11.9458 4.24948C11.9655 4.20589 11.9735 4.14584 12.0007 4.13518C12.102 4.09611 12.1479 3.94178 12.2932 3.99279C12.3025 3.99602 12.3232 3.95857 12.3423 3.94533C12.3797 3.91918 12.4181 3.894 12.4588 3.87333C12.5166 3.84395 12.5767 3.81877 12.6357 3.79164C12.6997 3.74935 12.793 3.74902 12.8404 3.70221C12.9328 3.61116 12.9886 3.48007 13.1523 3.4988C13.1701 3.50073 13.1911 3.472 13.2111 3.45812C13.2515 3.43035 13.2905 3.40032 13.3332 3.37675C13.3887 3.34576 13.4471 3.32025 13.5043 3.29248L13.491 3.25567C13.5837 3.22694 13.7342 3.31605 13.7361 3.14073C13.8204 3.12168 13.9376 3.1233 13.9508 3.08681C13.9857 2.99124 14.0464 3.00674 14.1139 2.99834C14.1484 2.99415 14.1807 2.96638 14.213 2.94797C14.253 2.92537 14.3018 2.87307 14.3302 2.88275C14.5246 2.94862 14.625 2.70776 14.8058 2.74521C14.8403 2.61638 14.9443 2.62801 15.0428 2.62575C15.0544 2.62575 15.0754 2.60831 15.076 2.59798C15.0844 2.46528 15.1848 2.51274 15.2559 2.50499C15.3192 2.49821 15.4354 2.50338 15.438 2.4882C15.4661 2.3174 15.6039 2.40135 15.6824 2.34872C15.7405 2.30223 15.8031 2.27091 15.8697 2.25283C15.9375 2.23442 16.064 2.23927 16.0685 2.2157C16.0889 2.1085 16.1577 2.12917 16.2248 2.124C16.2603 2.12142 16.3246 2.10979 16.3252 2.09882C16.3356 1.95223 16.446 2.01196 16.5196 2.00131C16.5722 1.99356 16.6649 2.00841 16.673 1.98775C16.7369 1.82211 16.8744 1.89379 16.9839 1.877C17.0139 1.87248 17.0672 1.86344 17.0688 1.85117C17.0875 1.71363 17.1931 1.77045 17.2677 1.75463C17.3836 1.73009 17.5428 1.83632 17.6077 1.64421C17.6119 1.63194 17.6677 1.63485 17.6997 1.6342C17.7746 1.63291 17.8495 1.63388 17.9383 1.63388C17.9351 1.50085 18.0232 1.51345 18.1169 1.50279C18.247 1.48794 18.4252 1.60256 18.4836 1.37848H18.9269L18.916 1.33134C18.9789 1.30551 19.04 1.26419 19.1048 1.25773C19.2221 1.24578 19.3412 1.25773 19.4594 1.25256C19.4968 1.25095 19.5349 1.2319 19.5701 1.21479C19.6237 1.18896 19.6731 1.13923 19.7277 1.1331C19.8446 1.12051 19.964 1.13116 20.0822 1.12826C20.1177 1.12729 20.181 1.11825 20.1836 1.10372C20.2107 0.961977 20.3192 1.01105 20.4002 1.00815C20.5452 1.00298 20.6908 1.00944 20.8358 1.00492C20.8729 1.00363 20.911 0.982964 20.9459 0.965206C20.9937 0.94099 21.0379 0.889007 21.0847 0.887716C21.3265 0.879967 21.5687 0.886102 21.8105 0.88255C21.8541 0.881904 21.9326 0.864792 21.9348 0.847034C21.9513 0.725956 22.0394 0.760504 22.1063 0.760181C22.5903 0.758566 23.0743 0.759535 23.5583 0.759535C24.6283 0.759535 25.6986 0.758566 26.7686 0.760826C26.8206 0.760826 26.8748 0.781813 26.9239 0.802477C26.9739 0.823464 27.0182 0.878998 27.0663 0.88029C27.3511 0.887716 27.6361 0.882873 27.9212 0.88481C27.9619 0.88481 28.0368 0.895142 28.0381 0.907088C28.0546 1.06142 28.1712 1.0004 28.2483 1.00427C28.393 1.01202 28.5386 1.00492 28.6839 1.0075C28.7187 1.00815 28.7814 1.0188 28.7836 1.03269C28.8053 1.16603 28.9076 1.1147 28.9832 1.13084C29.1443 1.16474 29.3471 1.02817 29.4649 1.2474C29.4717 1.25999 29.5156 1.25385 29.5424 1.25385C29.6231 1.2545 29.7054 1.24417 29.7839 1.25741C29.8443 1.26774 29.9001 1.30681 29.9579 1.33328C29.9541 1.3491 29.9499 1.3646 29.946 1.38042C29.9993 1.38042 30.0558 1.3688 30.1052 1.38268C30.2608 1.4253 30.4684 1.26483 30.5772 1.50053C30.5827 1.51215 30.6279 1.50667 30.6547 1.50699C30.7351 1.50763 30.8152 1.50699 30.8956 1.50699C30.8917 1.52378 30.8875 1.54024 30.8836 1.55703C30.9466 1.58254 31.0076 1.61999 31.0728 1.63097C31.1513 1.64389 31.2336 1.63226 31.3143 1.63485C31.3447 1.63581 31.3989 1.6426 31.4012 1.65422C31.4293 1.80629 31.5474 1.74172 31.6324 1.7556C31.6834 1.764 31.7764 1.76755 31.7783 1.78272C31.7964 1.92672 31.9032 1.86506 31.9769 1.87829C32.0376 1.88927 32.1448 1.88927 32.1506 1.91316C32.1777 2.02811 32.2591 1.99517 32.3282 2.00099C32.3918 2.00615 32.5048 1.99614 32.5112 2.01777C32.5626 2.1931 32.7011 2.10172 32.7995 2.12658C32.837 2.13595 32.8738 2.15144 32.908 2.16953C32.9555 2.19439 32.9984 2.22797 33.0465 2.25024C33.074 2.26284 33.1344 2.25541 33.1363 2.26542C33.1699 2.43913 33.3078 2.35615 33.4024 2.38068C33.4627 2.39618 33.5173 2.43267 33.5748 2.45979C33.6345 2.50467 33.7646 2.50467 33.7698 2.53018C33.8024 2.68742 33.9183 2.61251 33.999 2.63156C34.0517 2.64383 34.1088 2.64996 34.1556 2.6745C34.277 2.73778 34.3907 2.81753 34.514 2.8763C34.6341 2.93345 34.7629 2.97219 34.8876 3.02062C34.8953 3.02353 34.896 3.04129 34.9037 3.04677C34.9408 3.07325 34.9773 3.10134 35.0174 3.12233C35.0742 3.15203 35.1343 3.17625 35.193 3.20272C35.1885 3.21854 35.1843 3.23436 35.1798 3.25018H35.3913C35.4035 3.29539 35.4139 3.33381 35.4226 3.36674C35.5017 3.37643 35.6241 3.37223 35.6292 3.39483C35.6599 3.52818 35.7548 3.49847 35.8407 3.50558C35.8614 3.50719 35.8788 3.53367 35.8995 3.54594C35.9469 3.57403 35.9937 3.60341 36.0438 3.62666C36.0758 3.64151 36.1413 3.64377 36.1423 3.65539C36.151 3.77615 36.2394 3.74354 36.3089 3.75128C36.3386 3.75451 36.3828 3.75839 36.3944 3.77744C36.47 3.90271 36.5481 4.0183 36.7209 4.00022C36.7341 3.99893 36.7599 4.00991 36.7612 4.01798C36.7835 4.17716 36.9159 4.10386 36.9814 4.12485C37.0563 4.21299 37.119 4.28629 37.1842 4.36281C37.2494 4.37314 37.3582 4.35926 37.3879 4.40123C37.4741 4.52295 37.5477 4.63854 37.7201 4.62563C37.7356 4.62434 37.7586 4.64371 37.7683 4.65921C37.8529 4.7961 37.9533 4.90459 38.1086 4.87715C38.1854 4.96787 38.2484 5.04246 38.3207 5.12802C38.4879 5.05118 38.5506 5.21326 38.6387 5.29753C38.7446 5.39859 38.814 5.54259 38.9745 5.50481C39.0937 5.62718 39.2018 5.73793 39.3274 5.86708H39.4562C39.5944 6.00753 39.712 6.12635 39.8285 6.24581C39.8673 6.28552 39.9025 6.35978 39.9418 6.36172C40.0513 6.36656 40.1362 6.38335 40.195 6.48926C40.2234 6.54059 40.2838 6.57417 40.3286 6.61647C40.432 6.7143 40.5388 6.8089 40.637 6.91157C40.7368 7.01586 40.8214 7.13533 40.925 7.23542C41.0687 7.37425 41.2279 7.49694 41.3731 7.63384C41.5443 7.79528 41.7076 7.96447 41.8739 8.13075C42.0379 8.29444 42.2023 8.45782 42.3644 8.62313C42.416 8.67576 42.4583 8.73743 42.509 8.79135C42.5846 8.87174 42.6633 8.94923 42.7315 9.018C42.8306 9.37349 43.1677 9.51491 43.3514 9.7816C43.4053 9.88944 43.4483 10.0141 43.5335 10.0922C43.6413 10.1907 43.7837 10.2504 43.7631 10.4325C43.7614 10.4461 43.784 10.4635 43.797 10.4774C43.9248 10.6146 44.1369 10.6876 44.1344 10.9252C44.1344 10.942 44.1676 10.9594 44.1854 10.9766C44.2868 11.0728 44.4295 11.1451 44.3817 11.3111C44.4692 11.3853 44.5464 11.4512 44.6206 11.5141C44.6345 11.5845 44.6242 11.6817 44.6671 11.7208C44.7682 11.8131 44.8531 11.8884 44.898 12.0382C44.9241 12.125 45.0045 12.2157 45.0145 12.3281C45.0152 12.3371 45.0555 12.3378 45.0681 12.3514C45.1308 12.4182 45.1998 12.4818 45.2483 12.558C45.2899 12.6232 45.3067 12.7043 45.3345 12.7782C45.3781 12.8308 45.3761 12.9477 45.392 12.95C45.5647 12.9768 45.4817 13.1159 45.5243 13.1924C45.6086 13.2706 45.698 13.349 45.7516 13.4472C45.8156 13.5637 45.8143 13.741 45.9044 13.8111C45.9983 13.884 45.9938 13.9483 46.0045 14.0329C46.007 14.0542 46.0322 14.0719 46.0455 14.0926C46.0719 14.1336 46.0991 14.174 46.1226 14.2166C46.1543 14.2731 46.1827 14.3312 46.2124 14.3887L46.2514 14.3761V14.7112C46.4523 14.7009 46.3486 14.8569 46.4029 14.9356C46.4487 14.9879 46.4739 15.0474 46.503 15.1048C46.5233 15.1449 46.5495 15.1817 46.5724 15.2204C46.5914 15.2527 46.6153 15.284 46.6253 15.3192C46.637 15.3596 46.6253 15.4361 46.6412 15.4409C46.8107 15.4926 46.7312 15.6301 46.7509 15.7331C46.7574 15.7674 46.768 15.8271 46.7839 15.8297C46.9143 15.85 46.8614 15.9488 46.8723 16.0192C46.882 16.0812 46.8811 16.1952 46.8982 16.1978C47.0221 16.2165 46.9924 16.3037 46.9986 16.3789C47.0005 16.4034 47.0118 16.4457 47.0234 16.4477C47.1668 16.4693 47.1129 16.5794 47.1232 16.6604C47.1303 16.7169 47.1339 16.8212 47.1474 16.8225C47.3021 16.838 47.2362 16.9526 47.2498 17.0298C47.2604 17.0902 47.2627 17.2012 47.2808 17.2038C47.4148 17.2226 47.365 17.3194 47.3728 17.3898C47.3786 17.4431 47.3592 17.5341 47.3815 17.5448C47.5936 17.6465 47.4619 17.8331 47.4984 17.9761C47.5074 18.0113 47.5123 18.0759 47.5252 18.0775C47.6805 18.0969 47.6014 18.216 47.6208 18.2913C47.6346 18.3449 47.6366 18.4411 47.6592 18.4459C47.7657 18.4685 47.7409 18.5428 47.7435 18.608C47.7476 18.7152 47.7125 18.8918 47.7596 18.9173C47.9514 19.021 47.8358 19.1798 47.8681 19.3077C47.8794 19.3526 47.8797 19.4365 47.8939 19.4384C48.0421 19.4594 47.9885 19.5702 47.9934 19.6499C47.9995 19.7571 47.9927 19.865 47.9959 19.9725C47.9969 20.0073 48.0105 20.0706 48.0227 20.0716C48.1638 20.0845 48.118 20.1894 48.1202 20.265C48.1244 20.4155 48.1199 20.5662 48.1222 20.7167C48.1228 20.7522 48.1344 20.8178 48.1445 20.8187C48.2985 20.8297 48.2442 20.9453 48.2465 21.0234C48.252 21.2113 48.2462 21.3999 48.2497 21.5881C48.2504 21.6256 48.2707 21.6931 48.2865 21.6944C48.3986 21.705 48.3734 21.7848 48.3734 21.8497C48.3747 22.209 48.374 22.5684 48.374 22.9252C48.4276 22.9419 48.468 22.9545 48.5087 22.9671L48.5096 22.9678ZM26.1025 40.6629C26.2649 40.7423 26.2823 40.9115 26.4551 40.9079C26.4893 40.9073 26.5235 40.9502 26.559 40.9715C26.6553 41.0293 26.6888 41.1846 26.8432 41.1533C26.8622 41.1494 26.9003 41.1556 26.9029 41.1646C26.9513 41.3348 27.0918 41.2463 27.1915 41.2715C27.2316 41.2815 27.2694 41.3044 27.3062 41.3251C27.3446 41.3467 27.3778 41.3839 27.4182 41.3939C27.518 41.4184 27.6604 41.3312 27.6994 41.5101C27.7014 41.5195 27.7482 41.5227 27.7743 41.5227C28.3978 41.5233 29.0213 41.5233 29.6447 41.5233L29.6354 41.4688C29.7032 41.4446 29.7697 41.4158 29.8391 41.3977C29.9069 41.3797 30.0335 41.3822 30.0377 41.3587C30.0571 41.2489 30.1297 41.277 30.1943 41.2689C30.2275 41.2647 30.2598 41.2473 30.2905 41.2318C30.3396 41.2069 30.3867 41.1775 30.4355 41.1524C30.4694 41.1349 30.5065 41.123 30.5398 41.1042C30.5795 41.0816 30.6147 41.0513 30.6553 41.0306C30.7122 41.0016 30.7722 40.9783 30.8307 40.9528C30.8265 40.9396 30.8226 40.9263 30.8184 40.9131C31.1016 40.9351 31.1674 40.6635 31.3515 40.5537C31.4609 40.5021 31.5665 40.4424 31.6611 40.3684C31.714 40.3271 31.7954 40.2506 31.7848 40.2112C31.7412 40.0481 31.8884 39.9949 31.9539 39.9167C32.0414 39.8127 32.1925 39.7627 32.1709 39.5864C32.169 39.5709 32.1867 39.547 32.2019 39.5364C32.3143 39.4573 32.437 39.3872 32.4182 39.2174C32.4163 39.2003 32.4479 39.1809 32.4612 39.1605C32.4886 39.1192 32.5296 39.0792 32.5367 39.034C32.5493 38.9565 32.5403 38.8754 32.5403 38.796C32.5613 38.7989 32.5823 38.8022 32.6029 38.8051C32.6242 38.7537 32.6536 38.7043 32.6649 38.6507C32.6811 38.5752 32.6701 38.4354 32.6953 38.4296C32.828 38.3989 32.7908 38.3059 32.7924 38.2281C32.7957 38.0776 32.7924 37.9268 32.7937 37.7764C32.7937 37.7447 32.7902 37.6918 32.805 37.6847C33.0197 37.5833 32.8715 37.3935 32.9129 37.2514C32.919 37.2304 32.9029 37.1813 32.8935 37.1804C32.7447 37.1642 32.7983 37.0509 32.7947 36.9721C32.7886 36.8378 32.8015 36.7025 32.7895 36.5692C32.7837 36.503 32.7408 36.44 32.7146 36.3754C32.6985 36.3796 32.6823 36.3842 32.6665 36.3884V35.9383L32.6187 35.9505C32.5923 35.8876 32.5645 35.8253 32.5403 35.7617C32.5309 35.7374 32.5329 35.688 32.5254 35.6871C32.3514 35.668 32.4418 35.5192 32.3837 35.4414C32.3398 35.3984 32.3055 35.3516 32.291 35.2993C32.2755 35.2431 32.3046 35.186 32.209 35.1553C32.1412 35.1333 32.044 35.0229 32.0544 34.9706C32.086 34.8118 31.9494 34.7624 31.8865 34.6865C31.7576 34.5312 31.5707 34.425 31.4364 34.2732C31.3343 34.1579 31.2682 34.0162 31.0815 34.0378C31.0728 34.0388 31.0599 34.0181 31.0515 34.0059C30.974 33.8906 30.9023 33.7689 30.7312 33.7924C30.7144 33.7947 30.6792 33.7769 30.6789 33.7676C30.6747 33.6468 30.5862 33.6772 30.5162 33.6717C30.4904 33.6698 30.4458 33.6656 30.4429 33.6539C30.4038 33.4986 30.2779 33.5668 30.1849 33.5451C30.1229 33.5306 30.0671 33.4896 30.0086 33.4602L30.0215 33.4208H29.6786C29.7103 33.252 29.5918 33.2955 29.5056 33.2955C25.9779 33.2949 22.4501 33.2952 18.9224 33.2952C18.854 33.2952 18.7855 33.2952 18.709 33.2952V26.4429C18.7913 26.449 18.9205 26.4403 18.926 26.4622C18.9586 26.5943 19.0545 26.5601 19.1378 26.5701C19.1601 26.5727 19.1872 26.5898 19.2001 26.6088C19.276 26.7189 19.346 26.8332 19.5091 26.8142C19.5281 26.8119 19.5569 26.8323 19.5698 26.8503C19.6592 26.9737 19.7406 27.107 19.924 27.0935C19.9798 27.1422 20.0418 27.1735 20.1077 27.1894C20.1732 27.2052 20.294 27.1903 20.3014 27.2158C20.3473 27.3689 20.4648 27.2982 20.5533 27.3166C20.601 27.3266 20.6498 27.3375 20.6937 27.3582C20.7379 27.3789 20.7764 27.4347 20.8177 27.4354C21.3608 27.4409 21.9038 27.4399 22.4469 27.4376C22.485 27.4376 22.5544 27.4196 22.556 27.4044C22.5686 27.281 22.6594 27.3246 22.7252 27.3162C22.7927 27.3078 22.9122 27.3143 22.9193 27.2894C22.9603 27.1435 23.0697 27.2065 23.154 27.1906C23.207 27.181 23.2612 27.1687 23.3103 27.1471C23.3542 27.1274 23.3897 27.0899 23.4323 27.0663C23.4875 27.0357 23.5463 27.0108 23.6035 26.9837L23.5899 26.9446C23.6796 26.9201 23.8007 26.9872 23.844 26.8268C23.8598 26.7683 23.9731 26.6931 24.0355 26.6986C24.1875 26.7121 24.2221 26.5785 24.3054 26.5158C24.4184 26.4312 24.4956 26.3008 24.5969 26.1991C24.7332 26.0628 24.9421 25.985 24.9443 25.7445C24.9443 25.7258 24.9889 25.7099 25.008 25.6886C25.0674 25.6221 25.1691 25.5563 25.1736 25.4849C25.1852 25.3054 25.3263 25.2589 25.4361 25.1559C25.4361 25.0894 25.4345 25.009 25.4367 24.9286C25.4377 24.8976 25.4438 24.8411 25.4532 24.8401C25.5914 24.822 25.5568 24.7181 25.5643 24.6332C25.5659 24.6151 25.5801 24.5841 25.5914 24.5828C25.7183 24.5689 25.6841 24.4727 25.686 24.3984C25.6889 24.2854 25.6834 24.1724 25.6889 24.0597C25.6908 24.0229 25.7134 23.9861 25.7309 23.9512C25.7551 23.9022 25.8051 23.8557 25.8061 23.8072C25.8132 23.5008 25.8174 23.1938 25.8055 22.8877C25.8009 22.7737 25.8933 22.6155 25.6999 22.5529C25.687 22.5487 25.6879 22.4935 25.6873 22.4618C25.6857 22.3705 25.6895 22.2788 25.6853 22.1877C25.6837 22.1535 25.6689 22.0925 25.654 22.0905C25.5381 22.0757 25.5665 21.9911 25.5614 21.9207C25.5594 21.8952 25.552 21.8497 25.5423 21.8484C25.3889 21.8274 25.4535 21.7082 25.4348 21.6246C25.418 21.5504 25.3854 21.4793 25.3599 21.407C25.3444 21.4109 25.3286 21.4144 25.3131 21.4183C25.3076 21.2401 25.244 21.1451 25.0638 21.0425C25.057 20.9776 25.0735 20.893 25.0389 20.8549C24.9447 20.7519 24.8265 20.6712 24.7235 20.5756C24.7003 20.554 24.6999 20.5078 24.6864 20.4642H31.5423C31.5423 20.531 31.5423 20.5888 31.5423 20.6466C31.5423 21.6091 31.5413 22.5719 31.5445 23.5344C31.5445 23.5896 31.5759 23.6458 31.5988 23.6991C31.6165 23.7401 31.6614 23.7766 31.6634 23.8163C31.6705 23.9881 31.6634 24.1605 31.6688 24.3322C31.6701 24.371 31.6995 24.4104 31.7199 24.4469C31.7415 24.4856 31.7799 24.5182 31.7909 24.5589C31.818 24.658 31.727 24.8011 31.9036 24.8446C31.9142 24.8472 31.92 24.8937 31.9181 24.9189C31.9058 25.07 32.1109 25.1407 32.0611 25.306C32.0608 25.3073 32.0921 25.3131 32.1008 25.3235C32.1247 25.3506 32.167 25.3858 32.1625 25.4103C32.1341 25.5608 32.2723 25.6044 32.3407 25.6838C32.4344 25.7923 32.591 25.8552 32.5438 26.0189C32.6746 26.1413 32.7979 26.2478 32.91 26.3644C33.0001 26.458 33.0559 26.594 33.2235 26.5707C33.2412 26.5681 33.2677 26.593 33.2822 26.6114C33.3733 26.7283 33.4569 26.8555 33.6226 26.8148C33.6971 26.9036 33.7633 26.9821 33.8195 27.0483C33.9448 27.1138 34.1275 26.965 34.1892 27.1858C34.2573 27.1897 34.3261 27.1935 34.3946 27.1974L34.3826 27.242C34.431 27.2668 34.4775 27.3066 34.5282 27.313C34.618 27.3246 34.711 27.3117 34.802 27.3185C34.8379 27.3211 34.8727 27.3472 34.9066 27.365C34.9518 27.3886 34.9957 27.4351 35.0406 27.4357C35.5353 27.4409 36.0299 27.4393 36.5249 27.4383C36.5617 27.4383 36.6266 27.4373 36.6308 27.4231C36.6769 27.2601 36.8077 27.3311 36.9068 27.3162C36.9381 27.3114 36.9947 27.3149 36.9979 27.3033C37.0463 27.1206 37.1955 27.2197 37.2975 27.1887C37.3508 27.1726 37.3957 27.1303 37.4444 27.0999C37.5258 27.047 37.6724 27.1235 37.6753 26.9359H37.8574C37.9352 26.8448 37.9923 26.7167 38.0647 26.7073C38.1857 26.6918 38.2671 26.6492 38.3456 26.5668C38.4415 26.4658 38.5477 26.3744 38.6432 26.2727C38.7414 26.1681 38.8202 26.0422 38.929 25.9511C39.0397 25.8581 39.1763 25.7958 39.1534 25.6176C39.1521 25.6079 39.1582 25.5885 39.1624 25.5882C39.3313 25.5698 39.2551 25.4258 39.2732 25.3738C39.4023 25.2589 39.5395 25.1995 39.5202 25.0196C39.5137 24.9589 39.5218 24.8479 39.545 24.8417C39.6567 24.8114 39.6445 24.7355 39.6435 24.6561C39.6435 24.6354 39.6467 24.5996 39.6567 24.5963C39.8624 24.5327 39.73 24.3626 39.7688 24.2473C39.7936 24.1731 39.8198 24.0994 39.8456 24.0258C39.8608 24.0294 39.8763 24.0333 39.8915 24.0368V22.5826C39.761 22.6126 39.7656 22.5283 39.7681 22.4415C39.7707 22.3556 39.7704 22.2694 39.7681 22.1835C39.7672 22.1528 39.7617 22.0979 39.7497 22.0954C39.5838 22.0611 39.6613 21.9307 39.6425 21.8387C39.6338 21.7951 39.6241 21.7179 39.6073 21.7157C39.4989 21.7018 39.5279 21.624 39.5153 21.5594C39.5079 21.5216 39.4737 21.489 39.4524 21.4538C39.4353 21.426 39.4072 21.3986 39.4049 21.3692C39.3984 21.2904 39.3984 21.2391 39.3042 21.1845C39.2115 21.1309 39.1715 20.9866 39.1085 20.882C39.0911 20.8297 39.0594 20.7848 39.0217 20.7458C38.9671 20.6893 38.9093 20.6357 38.8509 20.583C38.785 20.5239 38.7123 20.472 38.651 20.409C38.5506 20.3063 38.4599 20.1946 38.3591 20.0923C38.3107 20.0429 38.25 19.9705 38.1941 19.9699C38.0127 19.967 37.962 19.822 37.8648 19.7093H37.6811L37.6904 19.6619C37.6268 19.6357 37.5639 19.6079 37.4996 19.5841C37.4754 19.575 37.426 19.5776 37.425 19.5702C37.4034 19.4 37.2639 19.4782 37.1822 19.4297C37.1299 19.3839 37.0731 19.3451 37.0121 19.3358C36.9281 19.3228 36.8403 19.3364 36.7544 19.3306C36.7228 19.3283 36.6924 19.3048 36.6624 19.2893C36.6137 19.2638 36.5668 19.216 36.5174 19.2137C36.3189 19.205 36.1197 19.2124 35.9208 19.2089C35.8765 19.2082 35.7984 19.194 35.7945 19.1746C35.7716 19.0587 35.6864 19.0884 35.6173 19.0881C34.7836 19.0868 33.9503 19.0872 33.1166 19.0872H32.9164V18.8547C32.9164 15.644 32.9164 12.4334 32.9164 9.22271C32.9164 9.17427 32.9222 9.12488 32.9138 9.07806C32.9084 9.04771 32.8809 9.02123 32.8638 8.99282C32.8406 8.95407 32.7992 8.91565 32.7976 8.87562C32.7902 8.70385 32.7976 8.53143 32.7921 8.35966C32.7908 8.32124 32.7602 8.28314 32.7398 8.24666C32.7179 8.20727 32.6769 8.17207 32.671 8.13107C32.6601 8.05229 32.6678 7.97092 32.6678 7.89085C32.6526 7.89505 32.6375 7.89925 32.6226 7.90344C32.5955 7.84629 32.5564 7.79173 32.5438 7.73135C32.5232 7.63287 32.5916 7.50243 32.4286 7.46111C32.416 7.45788 32.4195 7.39169 32.415 7.35488C32.4108 7.32356 32.4098 7.26609 32.4005 7.2648C32.2407 7.24026 32.3085 7.11046 32.2862 7.02975C32.2051 6.9642 32.1212 6.90802 32.0524 6.83699C31.9985 6.78146 31.9501 6.71204 31.9249 6.63971C31.9036 6.57901 31.9213 6.52735 31.8345 6.48215C31.7231 6.42436 31.6353 6.31232 31.5529 6.21094C31.4574 6.09341 31.3857 5.95135 31.2333 5.98751C31.048 5.86772 31.0021 5.62331 30.7538 5.62202C30.7273 5.62202 30.6786 5.59974 30.6776 5.58553C30.6725 5.48318 30.5998 5.50578 30.5388 5.50029C30.5033 5.49706 30.4406 5.48964 30.4377 5.47446C30.4077 5.32239 30.2886 5.39697 30.2072 5.37502C30.1416 5.35726 30.0797 5.32594 30.0161 5.30076L30.027 5.25071C29.9576 5.25071 29.8879 5.25394 29.8188 5.24974C29.7726 5.24684 29.6883 5.2365 29.6874 5.22424C29.6757 5.08152 29.5708 5.1277 29.4956 5.12544C29.3558 5.12124 29.2153 5.13254 29.0765 5.12092C29.0119 5.11543 28.9502 5.07152 28.8873 5.04536C28.8912 5.02954 28.8954 5.0134 28.8992 4.99758C28.7759 4.99758 28.6526 4.99596 28.5292 4.99855C28.4998 4.99919 28.4462 5.01082 28.4453 5.02179C28.4294 5.17128 28.3164 5.12027 28.2364 5.12285C28.0591 5.12802 27.8819 5.12447 27.6975 5.12447C27.6465 5.36598 27.4482 5.19324 27.3391 5.28203C27.2855 5.32465 27.2277 5.35306 27.168 5.37631C27.1344 5.38922 27.0669 5.39148 27.0663 5.40085C27.0605 5.53258 26.9636 5.49383 26.8903 5.50384C26.8622 5.50772 26.8351 5.52612 26.8093 5.54065C26.7618 5.56745 26.7176 5.59974 26.6685 5.62331C26.6414 5.63655 26.5836 5.63138 26.5807 5.64397C26.5464 5.79637 26.4157 5.71985 26.3492 5.76925C25.9692 6.14927 25.5888 6.52897 25.182 6.93579C25.1723 6.99132 25.1917 7.08238 25.0725 7.16729C24.9812 7.23251 25.0109 7.44884 24.9276 7.54893C24.8494 7.64321 24.8068 7.72425 24.8065 7.83887C24.8065 7.84759 24.7794 7.85372 24.771 7.86534C24.7429 7.90473 24.7061 7.94283 24.6935 7.98739C24.6544 8.12429 24.7832 8.30897 24.573 8.39905C24.5617 8.4039 24.5656 8.44975 24.5656 8.47622C24.5653 8.98184 24.5646 9.48714 24.5669 9.99276C24.5669 10.0302 24.5863 10.0977 24.6037 10.1003C24.7245 10.1171 24.6841 10.2062 24.6915 10.2737C24.699 10.3411 24.6977 10.4645 24.7154 10.4674C24.8801 10.4939 24.7936 10.6175 24.8165 10.6963C24.8326 10.7518 24.8478 10.808 24.8701 10.861C24.8875 10.9026 24.9153 10.9401 24.9389 10.9791C24.965 11.0221 24.9928 11.0644 25.018 11.108C25.0328 11.1338 25.0564 11.1622 25.0548 11.188C25.0441 11.3698 25.2017 11.416 25.2753 11.4877C25.3102 11.5865 25.3192 11.6743 25.366 11.7301C25.4622 11.8451 25.5807 11.9413 25.687 12.0482C25.7841 12.1463 25.8752 12.2506 25.9733 12.3478C26.055 12.4288 26.1432 12.5031 26.2404 12.5909C26.2881 12.6055 26.376 12.608 26.4276 12.6529C26.5206 12.7336 26.569 12.8705 26.7279 12.8547C26.7495 12.8525 26.7925 12.8722 26.7934 12.8847C26.8031 12.9919 26.8813 12.97 26.9481 12.9764C26.982 12.9797 27.0417 12.9948 27.043 13.0084C27.053 13.1298 27.1415 13.0943 27.21 13.0998C27.2784 13.1053 27.4004 13.0975 27.4066 13.1198C27.446 13.2699 27.5603 13.2086 27.6478 13.228C27.7143 13.2425 27.776 13.2783 27.8399 13.3045L27.8273 13.349H29.5385C29.514 13.1889 29.6289 13.2334 29.7158 13.2247C29.7849 13.2176 29.9082 13.2092 29.9121 13.186C29.9302 13.072 30.0112 13.0885 30.069 13.103C30.2556 13.1505 30.3496 12.9232 30.5278 12.9571C30.5304 12.9574 30.5336 12.9354 30.5407 12.9309C30.5827 12.9035 30.625 12.876 30.6692 12.8528C30.7228 12.8247 30.7787 12.8005 30.8339 12.775L30.81 12.7214C31.0066 12.7824 31.0709 12.6271 31.1771 12.5289C31.2724 12.4408 31.346 12.2713 31.53 12.3723V19.0865H31.3108C28.1812 19.0865 25.0512 19.0865 21.9216 19.0865C21.8732 19.0865 21.8241 19.0826 21.7766 19.0888C21.7498 19.0923 21.7243 19.112 21.6995 19.1265C21.6533 19.1533 21.6084 19.2044 21.5619 19.206C21.3201 19.214 21.0779 19.2079 20.8361 19.2108C20.7919 19.2115 20.7115 19.2273 20.7095 19.2431C20.695 19.3651 20.6062 19.3238 20.5394 19.3322C20.4722 19.3406 20.3544 19.3358 20.3473 19.3616C20.315 19.4775 20.2333 19.4491 20.1577 19.4581C20.0751 19.4678 19.953 19.4013 19.9372 19.5621C19.9362 19.5718 19.8788 19.5721 19.85 19.5834C19.7861 19.6083 19.7238 19.6373 19.6608 19.6644C19.665 19.6796 19.6689 19.6948 19.6731 19.7103H19.4862C19.3883 19.8498 19.3083 20.0012 19.1168 19.965C19.008 20.0894 18.9131 20.2124 18.8026 20.3196C18.7 20.4193 18.5766 20.4981 18.4707 20.595C18.4162 20.6447 18.34 20.7154 18.3422 20.7742C18.3493 20.9689 18.186 21.016 18.0862 21.1255C18.0817 21.182 18.0862 21.2985 18.0697 21.3014C17.9034 21.3311 17.9725 21.4632 17.9435 21.5726C17.8285 21.5481 17.8234 21.6253 17.8269 21.7153C17.8282 21.7496 17.8159 21.8129 17.8017 21.8154C17.6571 21.84 17.7175 21.9507 17.7036 22.0301C17.6942 22.0847 17.6903 22.1825 17.6697 22.1864C17.5521 22.2087 17.5838 22.2926 17.5819 22.3614C17.5786 22.4689 17.5831 22.5764 17.5802 22.684C17.5793 22.7253 17.5751 22.7976 17.5583 22.8021C17.4065 22.8425 17.4601 22.9626 17.4601 23.052C17.4579 26.4025 17.4582 29.753 17.4582 33.1034C17.4582 33.1648 17.4582 33.2261 17.4582 33.2952H17.2535C16.1619 33.2952 15.0702 33.2933 13.9786 33.2981C13.8807 33.2984 13.7374 33.2242 13.6974 33.405C13.6948 33.4166 13.6392 33.4205 13.6082 33.4211C13.5114 33.4231 13.4145 33.4192 13.318 33.4234C13.2847 33.425 13.224 33.4428 13.2234 33.4554C13.2182 33.5664 13.1391 33.5409 13.0729 33.5503C13.038 33.5551 13.0061 33.5826 12.9738 33.601C12.9334 33.6242 12.8963 33.6543 12.8534 33.6707C12.8201 33.6836 12.7488 33.6775 12.7481 33.6843C12.7326 33.8835 12.4456 33.7101 12.4372 33.9122C12.3135 33.8909 12.2247 33.9432 12.156 34.043C12.1259 34.0866 12.093 34.1302 12.0539 34.1657C11.9477 34.2619 11.8315 34.3478 11.7301 34.4492C11.6245 34.5547 11.5331 34.6745 11.433 34.7859C11.3062 34.9273 11.084 34.9984 11.0979 35.2431C10.9742 35.297 10.9671 35.4058 10.9646 35.5188C10.9646 35.5269 10.9348 35.5311 10.9261 35.5424C10.899 35.5779 10.8722 35.6144 10.8512 35.6535C10.8205 35.711 10.795 35.7713 10.7673 35.8307C10.7518 35.8262 10.7363 35.8217 10.7211 35.8172V36.0229L10.6643 36.0128C10.6417 36.0642 10.6062 36.1142 10.5997 36.1675C10.589 36.2576 10.6003 36.3503 10.5949 36.4413C10.5929 36.4729 10.571 36.5043 10.5555 36.5346C10.53 36.5837 10.4793 36.6315 10.4786 36.6802C10.4728 37.1697 10.4748 37.6589 10.4757 38.1483C10.4757 38.1851 10.4738 38.2491 10.4893 38.2549C10.6765 38.3237 10.5661 38.4812 10.5974 38.5952C10.6191 38.6737 10.6481 38.7502 10.6736 38.8277L10.7259 38.8173V39.0094C10.7408 39.0049 10.7557 39.0007 10.7708 38.9962C10.7973 39.0546 10.826 39.1121 10.8493 39.1722C10.8603 39.2009 10.8567 39.2603 10.8658 39.2613C11.0275 39.2832 10.9587 39.4137 11.001 39.4938C11.0472 39.5528 11.0717 39.6187 11.1024 39.6817C11.1199 39.7175 11.1421 39.7533 11.1702 39.7811C11.2241 39.835 11.2887 39.8789 11.3401 39.9351C11.477 40.0849 11.6029 40.2451 11.7449 40.3894C11.8486 40.4943 11.9848 40.5686 12.081 40.6787C12.1773 40.7885 12.237 40.9315 12.4201 40.9099C12.434 40.9083 12.4501 40.9444 12.4688 40.9577C12.5056 40.9838 12.5431 41.0119 12.5841 41.029C12.7071 41.08 12.864 41.0965 12.9467 41.184C13.0119 41.2531 13.06 41.2679 13.1372 41.2738C13.163 41.2757 13.1869 41.3012 13.2114 41.3167C13.2528 41.3432 13.2905 41.3851 13.3351 41.3939C13.4026 41.4071 13.4762 41.3871 13.5437 41.3997C13.6195 41.4139 13.6919 41.4484 13.7658 41.4739C13.7623 41.4904 13.7584 41.5072 13.7548 41.5237C14.2872 41.5237 14.8193 41.5246 15.3518 41.5214C15.3895 41.5214 15.4283 41.4901 15.4644 41.4694C15.5029 41.4475 15.5368 41.4045 15.5762 41.4C15.6662 41.3893 15.7586 41.3994 15.85 41.3955C15.8839 41.3942 15.9452 41.3797 15.9462 41.3684C15.9533 41.2486 16.0405 41.2799 16.1105 41.2679C16.1467 41.2618 16.1767 41.225 16.2113 41.2043C16.2435 41.1853 16.2765 41.1662 16.3113 41.153C16.4366 41.1049 16.5632 41.0603 16.6881 41.0116C16.6988 41.0074 16.6988 40.9803 16.7098 40.9709C16.7379 40.947 16.7773 40.9024 16.7982 40.9092C16.9548 40.9593 16.9939 40.7994 17.0714 40.7397C17.2244 40.6212 17.2887 40.3884 17.5389 40.3946C17.5521 40.3949 17.5683 40.3684 17.5789 40.352C17.6629 40.2228 17.7384 40.0872 17.8321 39.9655C17.8963 39.8818 17.9854 39.8173 18.0862 39.723C18.1043 39.6642 18.0152 39.5138 18.1905 39.5112C18.2095 39.4269 18.2115 39.3049 18.2434 39.2965C18.3555 39.2668 18.3303 39.1928 18.3354 39.1221C18.3374 39.0966 18.3435 39.0508 18.3532 39.0492C18.482 39.0291 18.4455 38.9297 18.4552 38.8509C18.4581 38.8283 18.4756 38.7896 18.4885 38.7886C18.6144 38.7802 18.5656 38.6856 18.5757 38.6204C18.586 38.5539 18.5815 38.4363 18.6073 38.4292C18.7371 38.3944 18.6993 38.3001 18.6993 38.2229C18.7009 37.0667 18.7003 35.9105 18.7003 34.7543C18.7003 34.6913 18.7003 34.6284 18.7003 34.5593H25.5459C25.6321 34.8034 25.3844 34.847 25.3063 34.9874C25.2856 35.0249 25.2307 35.0433 25.1949 35.0681C25.1833 35.1411 25.18 35.2741 25.1591 35.2767C25.0318 35.2935 25.0638 35.3797 25.0544 35.4546C25.0506 35.4853 25.0235 35.5134 25.007 35.5424C24.9841 35.5828 24.9569 35.6215 24.9398 35.6641C24.9266 35.6974 24.9337 35.7642 24.9195 35.7678C24.7577 35.8081 24.8323 35.9363 24.8155 36.0296C24.8081 36.071 24.8055 36.1468 24.7932 36.1485C24.6315 36.1685 24.7093 36.2918 24.6906 36.3719C24.678 36.4252 24.6741 36.5188 24.6499 36.5246C24.5582 36.5459 24.564 36.6031 24.564 36.6693C24.5646 37.1639 24.564 37.6589 24.565 38.1535C24.565 38.1903 24.5637 38.2555 24.5776 38.2597C24.7748 38.3208 24.6634 38.4812 24.689 38.5955C24.7015 38.6517 24.6944 38.7599 24.7074 38.7618C24.8488 38.7812 24.8065 38.8861 24.8178 38.9678C24.821 38.9901 24.8426 39.0094 24.8552 39.0304C24.883 39.0769 24.9127 39.1224 24.9369 39.1706C24.9524 39.2019 24.9544 39.2639 24.9708 39.2671C25.0738 39.2865 25.0532 39.3617 25.0564 39.4289C25.0577 39.455 25.0609 39.5028 25.069 39.5038C25.2433 39.5299 25.1542 39.6804 25.2017 39.7608C25.2847 39.8211 25.3599 39.8889 25.4345 39.9574C25.4764 39.9958 25.5514 40.0352 25.5517 40.0749C25.5526 40.1876 25.5798 40.269 25.6815 40.3274C25.7289 40.3545 25.7696 40.3997 25.8025 40.4446C25.891 40.5647 25.9685 40.6977 26.1019 40.6642L26.1025 40.6629Z" fill="black"/>
<path d="M20.9225 26.0677H20.6006C20.6048 26.0525 20.6093 26.0374 20.6135 26.0222C20.5496 25.9954 20.4853 25.9696 20.4224 25.9408C20.3885 25.9253 20.3562 25.906 20.3255 25.885C20.2948 25.864 20.2635 25.8156 20.2386 25.8194C20.0801 25.8443 20.0443 25.6942 19.9513 25.628C19.9326 25.6147 19.9213 25.5737 19.9067 25.574C19.6614 25.5776 19.5806 25.3664 19.4441 25.2276C19.4176 25.2008 19.3733 25.1911 19.3298 25.1698C19.3782 24.9884 19.2374 24.9128 19.1276 24.8159C19.1018 24.793 19.095 24.7488 19.0799 24.7142C19.0537 24.6548 19.0279 24.5954 18.9853 24.5415C18.8913 24.4362 19.065 24.2425 18.8264 24.1728C18.8264 24.0417 18.8425 23.9003 18.8216 23.7647C18.8035 23.6484 18.9365 23.4712 18.6976 23.4302C18.7299 23.3417 18.6236 23.2083 18.8044 23.187C18.8157 23.1857 18.8251 23.1212 18.8254 23.086C18.8277 22.9139 18.8209 22.7415 18.8296 22.57C18.8322 22.5209 18.8764 22.4738 18.9016 22.426C18.9187 22.4312 18.9359 22.4364 18.953 22.4412C18.953 22.3618 18.9442 22.2807 18.9562 22.2029C18.9633 22.1574 19.002 22.1161 19.0298 22.0754C19.0405 22.0599 19.0753 22.0489 19.074 22.0389C19.0508 21.8513 19.1835 21.7722 19.3107 21.687C19.3214 21.6799 19.3288 21.6582 19.3278 21.644C19.3107 21.409 19.539 21.3515 19.6459 21.2069C19.7072 21.1242 19.7869 21.0554 19.8719 20.966C20.0314 21.0083 20.0995 20.8578 20.207 20.7613C20.2548 20.7187 20.3478 20.7293 20.4182 20.708C20.4837 20.6883 20.5457 20.6583 20.6096 20.6328C20.6054 20.616 20.6016 20.5992 20.5974 20.5824C20.6723 20.5824 20.7472 20.5827 20.8221 20.5824C20.8844 20.5821 20.9558 20.6002 20.9583 20.4962C20.9587 20.482 21.0152 20.4575 21.0458 20.4575C21.4759 20.4549 21.9063 20.4529 22.3364 20.4597C22.3848 20.4604 22.4326 20.5165 22.4739 20.5576C22.5805 20.6428 22.7745 20.4691 22.8417 20.7064C23.0167 20.6693 23.0967 20.7968 23.1978 20.9075C23.242 20.956 23.336 20.9586 23.396 20.9786C23.4806 21.0567 23.5633 21.1319 23.6446 21.2081C23.6999 21.2598 23.7547 21.3118 23.808 21.3651C23.8803 21.4374 23.9527 21.5097 24.0218 21.5849C24.0405 21.6053 24.056 21.6356 24.0583 21.6627C24.065 21.7399 24.0389 21.83 24.1609 21.8449C24.1722 21.8461 24.1809 21.8997 24.1838 21.9298C24.19 21.9953 24.1619 22.0751 24.2726 22.0854C24.2881 22.087 24.3062 22.1445 24.3091 22.1774C24.3159 22.2614 24.2797 22.3702 24.4376 22.3305C24.4376 22.4661 24.4376 22.5787 24.4376 22.6914C24.4376 22.7541 24.4218 22.8222 24.5206 22.8348C24.5393 22.837 24.5619 22.9016 24.5626 22.9375C24.5661 23.1954 24.5674 23.4537 24.5613 23.7117C24.5603 23.7508 24.5148 23.7882 24.4915 23.8273C24.4725 23.8593 24.4418 23.8919 24.4402 23.9254C24.4341 24.0485 24.4376 24.1721 24.4376 24.2958C24.4221 24.2916 24.4063 24.2874 24.3908 24.2832C24.364 24.3462 24.3369 24.4088 24.3111 24.4721C24.2978 24.504 24.2891 24.5638 24.2743 24.5651C24.1635 24.5741 24.1945 24.6542 24.1819 24.7188C24.1748 24.7559 24.1409 24.7885 24.116 24.8208C24.1012 24.8405 24.0654 24.856 24.0657 24.8734C24.0683 25.1169 23.8545 25.1921 23.7199 25.33C23.6191 25.4333 23.5303 25.5482 23.4351 25.657C23.4225 25.6712 23.4012 25.6896 23.386 25.688C23.2081 25.6674 23.1465 25.8039 23.0506 25.9102C23.0115 25.9534 22.9004 25.9273 22.8245 25.9437C22.769 25.956 22.7174 25.9864 22.6641 26.009C22.6686 26.0277 22.6731 26.0464 22.6776 26.0651H22.3428L22.3567 26.1155C22.2973 26.142 22.2382 26.1904 22.1785 26.1917C21.813 26.1988 21.4472 26.1978 21.0817 26.1923C21.0294 26.1917 20.9774 26.1513 20.9254 26.1294C20.9241 26.109 20.9231 26.0884 20.9219 26.068L20.9225 26.0677Z" fill="black"/>
<path d="M33.4226 21.4978C33.5075 21.4197 33.5895 21.3506 33.6641 21.2744C33.7607 21.1756 33.8504 21.0697 33.9457 20.9696C33.9573 20.9576 33.9867 20.9593 34.0073 20.9602C34.1794 20.9683 34.2195 20.8149 34.3302 20.709C34.4193 20.6474 34.6137 20.8195 34.6834 20.5821C34.7509 20.5821 34.8252 20.5828 34.8998 20.5821C34.9608 20.5815 35.0312 20.6022 35.0415 20.5005C35.0434 20.482 35.108 20.4575 35.1435 20.4572C35.5684 20.4543 35.993 20.4549 36.4179 20.4559C36.4492 20.4559 36.5051 20.4591 36.5077 20.4704C36.5477 20.6496 36.6908 20.5579 36.7886 20.5844C36.8293 20.5954 36.8612 20.6348 36.9013 20.6525C36.9726 20.6838 37.0472 20.7087 37.1144 20.752C37.1722 20.7797 37.2319 20.8043 37.2874 20.8359C37.3555 20.875 37.4288 20.9111 37.4844 20.9647C37.588 21.0645 37.6768 21.1798 37.7782 21.2821C37.8902 21.3945 38.0094 21.4997 38.1427 21.6241C38.1114 21.7761 38.2286 21.8698 38.3577 21.964C38.3894 21.9873 38.3884 22.0557 38.4004 22.1038C38.4217 22.1888 38.3364 22.3186 38.504 22.3437C38.5147 22.3454 38.5214 22.4019 38.5224 22.4332C38.525 22.5245 38.5224 22.6159 38.524 22.7073C38.5247 22.7389 38.5256 22.7941 38.5386 22.798C38.7084 22.849 38.6383 22.9875 38.6435 23.0909C38.6525 23.2733 38.648 23.4564 38.6451 23.6391C38.6438 23.7176 38.6822 23.8177 38.5508 23.8412C38.5369 23.8438 38.5263 23.8961 38.5247 23.9258C38.5211 24.0062 38.524 24.0873 38.5234 24.1677C38.5224 24.2526 38.5511 24.3572 38.412 24.3307C38.3839 24.4379 38.4498 24.5664 38.2916 24.5922C38.2819 24.5938 38.2874 24.6539 38.2748 24.6817C38.2525 24.7307 38.2147 24.773 38.1957 24.8228C38.1689 24.8928 38.1534 24.9671 38.1324 25.0417C38.0604 25.1056 37.9774 25.1731 37.9019 25.248C37.7976 25.3513 37.6968 25.4585 37.5977 25.567C37.5244 25.6471 37.4456 25.6861 37.3307 25.7049C37.2513 25.7178 37.1902 25.844 37.0918 25.9512C37.0172 25.9996 36.8193 25.8275 36.7576 26.0674C36.6785 26.0674 36.5971 26.06 36.5183 26.0707C36.4786 26.0762 36.4447 26.1165 36.4063 26.1382C36.3698 26.1588 36.3314 26.1914 36.2936 26.1921C35.912 26.1959 35.53 26.195 35.1484 26.194C35.1171 26.194 35.0609 26.1914 35.0583 26.1804C35.0179 26.0016 34.8759 26.0868 34.7755 26.0678C34.7403 26.061 34.6754 26.0571 34.6744 26.0468C34.6566 25.8705 34.5149 25.9728 34.45 25.9034C34.3922 25.874 34.3312 25.8498 34.2776 25.814C34.1956 25.7594 34.1174 25.6987 34.0403 25.6374C34.0216 25.6225 34.0112 25.5757 33.9993 25.5767C33.8149 25.5912 33.7287 25.4688 33.6431 25.3371C33.6289 25.3151 33.5773 25.3177 33.5372 25.3071V25.114C33.4433 25.0333 33.3532 24.9755 33.2909 24.8961C33.2283 24.8163 33.112 24.7524 33.1569 24.6177C32.99 24.5444 33.0946 24.3504 33.0281 24.2761C32.8182 24.0427 32.9422 23.7821 32.9209 23.5377C32.8976 23.2707 32.9076 23.0001 32.9193 22.7318C32.9238 22.6292 32.8353 22.48 33.0232 22.429C33.0394 22.4245 33.0307 22.3392 33.0387 22.2924C33.0529 22.2088 32.9842 22.0877 33.1388 22.0635C33.1472 22.0622 33.1585 22.0364 33.1575 22.0228C33.1433 21.8501 33.2618 21.7787 33.3819 21.6928C33.4246 21.6625 33.4123 21.5553 33.4223 21.4981L33.4226 21.4978Z" fill="black"/>
<path d="M30.6324 35.1674C30.6983 35.2536 30.7432 35.3727 30.8203 35.3992C30.9327 35.4379 30.9014 35.5067 30.9249 35.5758C30.9498 35.6484 31.0021 35.7479 31.0622 35.765C31.2146 35.8079 31.1545 35.9213 31.1758 36.0084C31.189 36.0046 31.2023 36.0007 31.2155 35.9968C31.2414 36.0607 31.2685 36.1244 31.2924 36.1893C31.3014 36.2138 31.2972 36.2616 31.3075 36.2642C31.4732 36.3052 31.3941 36.4395 31.4183 36.5351C31.4299 36.5812 31.4703 36.62 31.4951 36.6636C31.5119 36.6926 31.5381 36.7239 31.5381 36.7546C31.541 37.1902 31.5403 37.6257 31.5394 38.0613C31.5394 38.0874 31.5365 38.1336 31.5265 38.1365C31.3531 38.1811 31.4325 38.3205 31.4154 38.4229C31.4102 38.4539 31.4089 38.5104 31.3986 38.5123C31.2401 38.5395 31.3127 38.6702 31.2895 38.7429C31.2446 38.7793 31.1719 38.8197 31.1771 38.8371C31.2229 38.9921 31.0854 39.099 31.0179 39.1293C30.8826 39.1904 30.9366 39.2814 30.9152 39.3618C30.9027 39.3486 30.8897 39.3357 30.8771 39.3224C30.7864 39.4164 30.6957 39.5103 30.5743 39.6363C30.4665 39.6095 30.3912 39.7473 30.2869 39.8487C30.2388 39.8955 30.1523 39.9026 30.0897 39.943C30.0309 39.9717 29.9705 39.9982 29.9134 40.0302C29.8708 40.0541 29.8317 40.0844 29.7923 40.1131C29.7803 40.1219 29.7681 40.1467 29.7619 40.1448C29.5385 40.0728 29.3858 40.2923 29.1685 40.2804C28.804 40.2604 28.4375 40.2759 28.072 40.2739C28.0094 40.2736 27.93 40.3033 27.9125 40.191C27.9093 40.1706 27.8134 40.1635 27.7598 40.1525C27.6813 40.1367 27.57 40.2016 27.5425 40.0576C27.5396 40.0424 27.4747 40.0437 27.4431 40.0285C27.395 40.0056 27.3498 39.9756 27.3046 39.9469C27.2884 39.9365 27.2755 39.9094 27.2616 39.9101C27.0107 39.9188 26.9349 39.6973 26.7934 39.5604C26.6901 39.4606 26.5645 39.3818 26.4728 39.2733C26.3921 39.1778 26.2323 39.1084 26.3107 38.9498C26.2226 38.8762 26.1483 38.8139 26.056 38.7367C26.056 38.6841 26.0654 38.6079 26.0528 38.5353C26.0447 38.4891 25.9982 38.4507 25.9798 38.4048C25.9578 38.3502 25.9446 38.2918 25.932 38.234C25.9149 38.1568 25.9824 38.0429 25.8339 38.0222C25.8209 38.0203 25.81 37.9563 25.81 37.9212C25.808 37.5825 25.8084 37.2438 25.8096 36.9051C25.8096 36.8737 25.8116 36.8182 25.8242 36.8147C25.984 36.7695 25.9178 36.6403 25.932 36.5409C25.9462 36.443 25.8713 36.3094 26.0399 36.269C26.0518 36.2661 26.0554 36.2106 26.0554 36.1796C26.0557 36.0963 26.0389 36.003 26.1874 36.0401C26.1364 35.837 26.2759 35.7618 26.3818 35.6636C26.4835 35.5697 26.5784 35.4686 26.6769 35.3711C26.746 35.3023 26.8164 35.2352 26.8845 35.1654C26.9232 35.1257 26.9804 35.0876 26.9917 35.0398C27.0346 34.8568 27.2903 34.9907 27.3291 34.8061C27.3313 34.7951 27.3904 34.8015 27.4185 34.789C27.4679 34.7667 27.5115 34.7299 27.5619 34.7105C27.6174 34.6892 27.6781 34.6808 27.7366 34.6675C27.8086 34.6511 27.9183 34.7192 27.9364 34.5752C27.938 34.5626 28.0007 34.5503 28.0352 34.5503C28.4598 34.5487 28.8847 34.5491 29.3096 34.5494C29.3364 34.5494 29.3826 34.5458 29.3868 34.5568C29.4523 34.7244 29.597 34.6511 29.7116 34.6698C29.7416 34.6747 29.7678 34.7027 29.7958 34.7199C29.8343 34.7434 29.8717 34.7693 29.9118 34.7896C29.9696 34.819 30.0293 34.8448 30.0884 34.8719C30.0842 34.8858 30.08 34.9 30.0761 34.9139H30.2475C30.3622 35.0366 30.4296 35.2187 30.6343 35.1696L30.6324 35.1674Z" fill="black"/>
<path d="M11.9797 38.7485C11.9603 38.6607 12.0046 38.569 11.8764 38.5047C11.8254 38.4792 11.8644 38.2852 11.8502 38.1696C11.8434 38.1144 11.8086 38.0624 11.7863 38.0091C11.7663 38.0136 11.7463 38.0182 11.7266 38.0224C11.7266 37.6362 11.7266 37.2504 11.7272 36.8642C11.7272 36.8439 11.7337 36.8077 11.7424 36.8061C11.9274 36.7693 11.8309 36.6233 11.8522 36.5249C11.8719 36.4332 11.8002 36.3137 11.9542 36.262C11.9829 36.2524 11.9752 36.1339 12.0191 36.0777C12.0452 36.0183 12.0669 35.9563 12.0985 35.8998C12.1376 35.8304 12.1754 35.7551 12.2312 35.7006C12.3358 35.5985 12.4598 35.5165 12.5635 35.4139C12.6677 35.3105 12.7439 35.1753 12.8579 35.0868C12.9393 35.0235 12.9777 34.8792 13.1278 34.9111C13.1521 34.9163 13.1879 34.875 13.2153 34.8517C13.2257 34.8427 13.2237 34.8143 13.2334 34.8104C13.3613 34.761 13.4888 34.709 13.6199 34.6693C13.7058 34.6435 13.8317 34.721 13.8659 34.5647C13.8685 34.5534 13.9244 34.5499 13.9554 34.5499C14.3803 34.5489 14.8048 34.5473 15.2297 34.5524C15.2672 34.5528 15.3024 34.6009 15.3421 34.6196C15.3854 34.6399 15.4315 34.6567 15.4784 34.6667C15.571 34.6864 15.7021 34.6093 15.737 34.7736C15.7389 34.7826 15.7751 34.7881 15.7957 34.7888C15.8729 34.792 15.954 34.7704 15.9785 34.8905C15.9833 34.9144 16.1041 34.9144 16.1696 34.925C16.2784 35.0419 16.3885 35.1604 16.5096 35.2905C16.5587 35.2934 16.6268 35.2976 16.7069 35.3025C16.6833 35.4875 16.7957 35.5763 16.9187 35.6828C16.9913 35.7458 17.1408 35.8104 17.0908 35.9724C17.0843 35.9934 17.1486 36.036 17.1899 36.0606C17.2319 36.1442 17.1544 36.2885 17.3229 36.3192C17.3333 36.3211 17.3297 36.3889 17.3359 36.4254C17.3513 36.5187 17.2777 36.6463 17.4388 36.6866C17.4537 36.6905 17.4592 36.7541 17.4595 36.7899C17.4608 37.2039 17.4627 37.6181 17.4573 38.032C17.4566 38.0766 17.4082 38.1192 17.3869 38.1647C17.3665 38.2074 17.3475 38.2516 17.3368 38.2974C17.3155 38.3885 17.3946 38.5138 17.2306 38.558C17.2051 38.5648 17.2103 38.6852 17.1641 38.7411C17.1379 38.8044 17.1169 38.8709 17.084 38.9303C17.0437 39.0033 17.001 39.0782 16.9445 39.1379C16.8893 39.1967 16.7992 39.226 16.7547 39.2896C16.7134 39.3481 16.7117 39.4346 16.6898 39.5202C16.4189 39.496 16.3537 39.763 16.1816 39.8895C16.0992 39.9263 15.9623 39.8518 15.9343 40.0161C15.9326 40.0258 15.8755 40.0264 15.8439 40.03C15.8122 40.0335 15.7564 40.0274 15.7518 40.0397C15.6908 40.2166 15.5429 40.1346 15.4296 40.1533C15.4041 40.1575 15.3582 40.1624 15.3566 40.1721C15.3331 40.339 15.2039 40.2715 15.119 40.2728C14.748 40.2793 14.377 40.2763 14.0061 40.2747C13.9373 40.2744 13.8579 40.3031 13.8304 40.1866C13.8243 40.1608 13.6948 40.1691 13.6247 40.1511C13.5585 40.134 13.4959 40.1026 13.4365 40.0584C13.3635 40.0003 13.2218 40.0962 13.2053 39.9238C13.2047 39.9167 13.1772 39.9063 13.163 39.9076C12.9906 39.9247 12.9306 39.7927 12.8385 39.6858C12.743 39.5744 12.6087 39.4976 12.5021 39.3946C12.4004 39.2964 12.3255 39.1663 12.2144 39.083C12.1189 39.0113 12.0898 38.9387 12.0895 38.8295C12.0895 38.804 12.0233 38.7789 11.98 38.7482L11.9797 38.7485Z" fill="black"/>
<path d="M26.1866 7.84395C26.1278 7.65184 26.2802 7.58339 26.3816 7.48427C26.481 7.38709 26.5769 7.2857 26.6767 7.18852C26.79 7.0781 26.9389 6.98866 27.0112 6.8566C27.08 6.73068 27.243 6.76265 27.2501 6.73294C27.294 6.54697 27.5446 6.69549 27.5807 6.51274C27.5843 6.49466 27.6989 6.50015 27.7615 6.49208C27.8274 6.48369 27.9194 6.5305 27.9336 6.40555C27.9353 6.38973 28.0044 6.37133 28.0421 6.371C28.5045 6.36874 28.9668 6.36777 29.4292 6.37262C29.4689 6.37294 29.5073 6.41814 29.5477 6.4401C29.5819 6.45882 29.6161 6.48336 29.6529 6.48982C29.7172 6.5008 29.7995 6.4698 29.8041 6.58249C29.8047 6.59411 29.856 6.60993 29.8848 6.61316C29.959 6.62155 30.0556 6.58507 30.0591 6.71712C30.0591 6.7252 30.115 6.73585 30.1453 6.73876C30.2105 6.74489 30.2926 6.71583 30.3 6.8269C30.301 6.84014 30.3307 6.86339 30.3445 6.86177C30.5231 6.84111 30.5844 6.97865 30.6787 7.08746C30.7724 7.19562 30.8979 7.27537 31.0068 7.37094C31.0271 7.3887 31.042 7.42163 31.0445 7.44876C31.0523 7.52366 31.0203 7.61471 31.1466 7.62634C31.1582 7.6273 31.1566 7.70544 31.173 7.74289C31.1921 7.7868 31.2234 7.82555 31.2512 7.86559C31.2563 7.87301 31.2751 7.87301 31.2773 7.87979C31.3245 8.02605 31.3735 8.17167 31.4152 8.31955C31.4333 8.38348 31.3813 8.47743 31.5046 8.49067C31.5201 8.49228 31.5395 8.55105 31.5398 8.58366C31.5421 9.01373 31.5414 9.44379 31.5411 9.87386C31.5411 9.90034 31.5424 9.94748 31.5324 9.95071C31.3526 10.0075 31.4368 10.157 31.4145 10.2694C31.4087 10.2994 31.3823 10.3259 31.3632 10.3527C31.3416 10.3834 31.3048 10.4095 31.2977 10.4428C31.2825 10.5141 31.3254 10.6132 31.1943 10.6155C31.1872 10.6155 31.174 10.642 31.1747 10.6555C31.1879 10.9016 30.9622 10.9655 30.8347 11.104C30.7778 11.1657 30.7233 11.2296 30.6671 11.2919C30.6112 11.3536 30.5573 11.4169 30.4979 11.4753C30.4178 11.5541 30.3332 11.6287 30.226 11.7275C30.2031 11.7284 30.1392 11.7317 30.0753 11.7346C30.0795 11.7475 30.0837 11.7604 30.0879 11.773C30.0288 11.8005 29.969 11.8263 29.9112 11.856C29.8712 11.8766 29.8341 11.9031 29.7947 11.9254C29.7621 11.9441 29.7291 11.9729 29.6949 11.9754C29.6042 11.9826 29.5122 11.9758 29.4211 11.9787C29.3853 11.98 29.321 11.9864 29.3184 11.9997C29.2894 12.1508 29.1725 12.0972 29.0879 12.0985C28.787 12.1033 28.4858 12.104 28.1848 12.0965C28.1387 12.0956 28.096 12.0397 28.0473 12.0194C27.9979 11.9987 27.9433 11.989 27.8904 11.9777C27.8071 11.9599 27.6928 12.0297 27.654 11.8799C27.6482 11.8576 27.5378 11.8579 27.4755 11.8557C27.3534 11.8518 27.2027 11.7385 27.1633 11.607C26.9786 11.6439 26.8953 11.5112 26.7939 11.3891C26.7035 11.2806 26.5798 11.2009 26.4833 11.0966C26.3971 11.0036 26.2502 10.9358 26.3122 10.7702C26.1633 10.6691 26.0219 10.5774 26.0516 10.3659C26.0577 10.3233 25.9977 10.2739 25.977 10.2242C25.9564 10.1745 25.9431 10.1205 25.9325 10.0676C25.9157 9.98461 25.9845 9.86611 25.8308 9.83996C25.8178 9.8377 25.8101 9.77216 25.8101 9.73599C25.8085 9.3973 25.8069 9.0586 25.8127 8.71991C25.8133 8.68149 25.8605 8.645 25.8831 8.60594C25.9018 8.57333 25.9273 8.53845 25.9299 8.50326C25.9367 8.41221 25.9247 8.31987 25.9354 8.22979C25.9402 8.18911 25.9822 8.15359 26.0051 8.1142C26.0242 8.08159 26.041 8.04769 26.0565 8.01314C26.0842 7.9505 26.1101 7.88722 26.1368 7.82426C26.154 7.83039 26.1711 7.83685 26.1882 7.84298L26.1866 7.84395Z" fill="black"/>
</svg>
