<svg width="58" height="41" viewBox="0 0 58 41" fill="none" xmlns="http://www.w3.org/2000/svg">
<path d="M2.65743 22.3583C2.68495 22.1414 2.85468 22.0287 2.99983 21.8989C3.0647 21.8 2.97329 21.6083 3.13973 21.6063C3.21804 21.5175 3.26981 21.4592 3.34681 21.3721C3.3704 21.3518 3.42577 21.316 3.46509 21.2679C3.54274 21.1725 3.61646 21.0733 3.68199 20.9694C3.71967 20.9098 3.68658 20.8236 3.80879 20.7941C3.86908 20.7794 3.94182 20.6653 4.01128 20.5975C4.10826 20.5025 4.17543 20.3819 4.30453 20.3128C4.37857 20.2728 4.42969 20.1909 4.49194 20.1283C4.58893 20.031 4.69082 19.9383 4.78224 19.836C4.85596 19.7535 4.90969 19.6526 4.98669 19.5736C5.06271 19.4956 5.15805 19.437 5.24193 19.3665C5.30353 19.3148 5.36349 19.2604 5.41788 19.2014C5.49226 19.1201 5.55975 19.0327 5.63249 18.9498C5.65379 18.9252 5.68065 18.9045 5.70719 18.8859C5.73177 18.8685 5.77272 18.8626 5.78452 18.8403C5.8507 18.7138 5.95293 18.6277 6.06925 18.5497C6.13248 18.5074 6.18392 18.4458 6.23536 18.3882C6.35659 18.2522 6.46931 18.1087 6.59512 17.9776C6.67442 17.8951 6.77304 17.8318 6.85921 17.7555C6.93129 17.6916 7.00862 17.6297 7.0653 17.553C7.14787 17.4413 7.23863 17.3459 7.35298 17.2637C7.43948 17.2017 7.49354 17.0959 7.56497 17.012C7.61706 16.9508 7.6708 16.8902 7.72945 16.8358C7.80907 16.7624 7.89524 16.6965 7.97682 16.6251C8.05022 16.5609 8.1282 16.4999 8.1911 16.4262C8.28121 16.3214 8.35657 16.2096 8.48075 16.1307C8.56856 16.075 8.61017 15.9518 8.68717 15.8728C8.76318 15.7948 8.85918 15.7368 8.94306 15.6664C9.00466 15.6146 9.06495 15.5602 9.11901 15.5012C9.19339 15.42 9.26186 15.3335 9.33165 15.248C9.34443 15.2322 9.34509 15.2008 9.35983 15.1933C9.49712 15.1228 9.5882 15.0134 9.6747 14.8856C9.73302 14.7994 9.8536 14.7572 9.93912 14.6867C9.99842 14.6379 9.99154 14.5452 10.0997 14.5111C10.1816 14.4852 10.2232 14.3489 10.2963 14.2752C10.3769 14.1939 10.4794 14.1343 10.5603 14.0534C10.6252 13.9885 10.6914 13.922 10.7527 13.8584C10.8549 13.7526 10.9453 13.6422 11.0689 13.5537C11.154 13.4928 11.1953 13.3741 11.2707 13.2952C11.3454 13.2169 11.4388 13.1566 11.5226 13.0868C11.5967 13.0252 11.656 12.9466 11.7261 12.8814C11.8244 12.7896 11.9162 12.6877 12.0223 12.5983C12.1042 12.5295 12.1527 12.422 12.2284 12.3437C12.3044 12.265 12.3975 12.2031 12.48 12.1304C12.5561 12.0632 12.6426 12.001 12.6976 11.9187C12.7733 11.8057 12.8637 11.7179 12.9741 11.6402C13.056 11.5826 13.1291 11.5056 13.1884 11.4243C13.2677 11.3155 13.3585 11.2274 13.4676 11.1478C13.5541 11.0845 13.6091 10.979 13.6835 10.8974C13.75 10.8244 13.8257 10.7595 13.8942 10.6881C13.9843 10.5944 14.0675 10.4934 14.1619 10.4043C14.2418 10.329 14.3434 10.2749 14.4168 10.1946C14.4826 10.1222 14.5613 10.058 14.6176 9.98854C14.6645 9.93055 14.7271 9.9027 14.7628 9.85715C14.8624 9.73068 14.9613 9.616 15.098 9.52393C15.1838 9.46594 15.2169 9.33324 15.3001 9.26771C15.3719 9.21136 15.4282 9.15402 15.4879 9.08456C15.6042 8.94793 15.7716 8.85553 15.8932 8.72217C15.943 8.66778 15.9194 8.54623 16.02 8.56785C16.0848 8.49413 16.1369 8.43483 16.1894 8.37519C16.251 8.28771 16.2028 8.13666 16.3738 8.09342C16.3909 8.08916 16.3814 8.01085 16.3991 7.97382C16.4308 7.90731 16.477 7.84801 16.5108 7.78215C16.5314 7.74185 16.5442 7.69663 16.5537 7.65174C16.5819 7.51741 16.5177 7.35227 16.6894 7.26512C16.7064 7.2566 16.7057 7.2045 16.7057 7.17239C16.7061 6.85064 16.7113 6.52856 16.6992 6.20714C16.6966 6.13538 16.6199 6.06952 16.5966 5.99515C16.5714 5.91487 16.5688 5.82739 16.5567 5.74286C16.5419 5.6403 16.5642 5.5158 16.4135 5.50793C16.3637 5.38998 16.4666 5.20518 16.2424 5.18782C16.2372 5.13769 16.2323 5.09018 16.2267 5.03644C16.1805 5.02727 16.1396 5.01875 16.0901 5.00892C16.0858 4.97878 16.0842 4.947 16.077 4.9162C16.058 4.83756 16.0642 4.76417 15.9525 4.71764C15.883 4.68881 15.7886 4.58494 15.7559 4.51679C15.7094 4.42014 15.6356 4.42767 15.576 4.38639C15.4531 4.30185 15.3348 4.2111 15.2274 4.10658C15.1301 4.04072 14.9463 4.13803 14.9243 3.92244C14.824 3.91621 14.732 3.91261 14.6399 3.90376C14.5636 3.89655 14.4689 3.91949 14.4564 3.79433C14.4548 3.7786 14.3958 3.7573 14.363 3.75697C13.9538 3.75501 13.5446 3.75566 13.1353 3.75828C13.1006 3.75828 13.0393 3.77073 13.0354 3.78777C13.0036 3.9267 12.8909 3.89196 12.8002 3.90835C12.6956 3.92735 12.5524 3.86215 12.5135 4.03842C12.5095 4.05546 12.4335 4.05284 12.3935 4.0666C12.3211 4.0915 12.2209 4.05841 12.2042 4.19471C12.1956 4.26385 12.0452 4.21273 12.0144 4.3451C11.9961 4.42341 11.8516 4.46961 11.7697 4.53711C11.7101 4.58593 11.658 4.64458 11.6059 4.70191C11.5299 4.78514 11.4574 4.87164 11.3827 4.95617C11.3182 5.02924 11.2609 5.1118 11.1855 5.17144C11.0751 5.25892 10.9715 5.34509 10.8886 5.46403C10.8287 5.54987 10.7166 5.59804 10.637 5.67274C10.6029 5.70452 10.5921 5.76088 10.5485 5.78185C10.0115 6.31886 9.47451 6.85588 8.93749 7.3929C8.24025 8.09047 7.54269 8.78771 6.84545 9.48494L6.84479 9.48429C6.30876 10.021 5.7724 10.5573 5.23636 11.094H5.23669C4.53945 11.7916 3.84188 12.4885 3.11123 13.2192C3.01686 13.25 2.94511 13.4891 2.75376 13.3696C2.69773 13.3145 2.64138 13.2595 2.58535 13.2044L2.58764 13.1946C2.53948 13.1559 2.49033 13.1179 2.44282 13.0783C2.42382 13.0625 2.40776 13.0429 2.39072 13.0249C2.35698 12.9892 2.32061 12.9557 2.29046 12.9171C2.25737 12.8748 2.2305 12.828 2.18889 12.7981C1.92153 12.5298 1.65417 12.2618 1.38681 11.9934C1.31898 11.9564 1.22036 11.9505 1.27934 11.787L1.21905 11.8362C1.1794 11.7824 1.14631 11.7215 1.09782 11.6776C1.06243 11.6455 1.00673 11.636 0.98052 11.5976C0.874362 11.4892 0.767876 11.3811 0.661717 11.2726L0.658769 11.2765C0.614863 11.2277 0.566371 11.1822 0.528364 11.1291C0.509688 11.1029 0.491667 11.0452 0.504118 11.0328C0.575873 10.9613 0.657458 10.8997 0.734456 10.8332C0.794743 10.7811 0.857324 10.7307 0.910731 10.672C0.985763 10.5898 1.04736 10.4951 1.12501 10.4155C1.20136 10.3368 1.2931 10.2736 1.37337 10.1982C1.45332 10.1232 1.5277 10.0423 1.60437 9.96397C1.6332 9.93448 1.6617 9.90433 1.69185 9.87616C1.69873 9.8696 1.71773 9.87386 1.72199 9.86731C1.8157 9.7238 1.9366 9.61174 2.07553 9.50952C2.15973 9.44759 2.1902 9.31096 2.27539 9.25329C2.34616 9.20546 2.39367 9.16319 2.44282 9.09144C2.50278 9.00395 2.6191 8.95644 2.7056 8.88502C2.7554 8.84406 2.79635 8.79196 2.83829 8.74216C2.91005 8.6573 2.97132 8.56195 3.05159 8.48692C3.12171 8.42139 3.18822 8.35259 3.25408 8.2864C3.35369 8.18614 3.47131 8.11111 3.54995 7.98038C3.60205 7.89388 3.72491 7.85325 3.8006 7.77691C3.86875 7.70777 3.9392 7.63929 4.00473 7.57147C4.10335 7.46957 4.19706 7.36865 4.3078 7.27593C4.44509 7.16125 4.54109 6.99841 4.66592 6.86669C4.74194 6.78642 4.84416 6.73105 4.92477 6.65438C5.00406 6.57869 5.06991 6.48957 5.14298 6.40766C5.16461 6.38341 5.18983 6.3608 5.21637 6.34213C5.24095 6.32476 5.28485 6.31952 5.29468 6.2979C5.35431 6.16454 5.47653 6.09705 5.5781 6.00563C5.66198 5.93027 5.72259 5.82936 5.7973 5.74286C5.85988 5.67012 5.91623 5.58395 5.99487 5.53546C6.11512 5.46173 6.2026 5.36606 6.28156 5.25368C6.32612 5.19044 6.39034 5.14064 6.44998 5.08952C6.53222 5.01908 6.62527 4.96043 6.70063 4.88376C6.77992 4.80316 6.84119 4.70519 6.91524 4.61869C6.96471 4.56135 7.02074 4.50926 7.0771 4.45847C7.15803 4.38573 7.24321 4.31758 7.32447 4.24517C7.35298 4.21994 7.37722 4.18882 7.3995 4.15802C7.41425 4.1377 7.41589 4.10101 7.43391 4.09183C7.56824 4.02434 7.65769 3.92113 7.73829 3.79334C7.79268 3.70717 7.90769 3.6613 7.98927 3.59053C8.06299 3.52631 8.12754 3.45193 8.19733 3.38313C8.29169 3.2904 8.39195 3.20292 8.48075 3.10495C8.55512 3.02304 8.60919 2.92212 8.68618 2.84349C8.7622 2.76616 8.85591 2.7062 8.94208 2.63871C8.94601 2.63576 8.95584 2.63739 8.95715 2.63445C8.99909 2.54041 9.07707 2.487 9.15636 2.42475C9.23958 2.35955 9.28382 2.24684 9.35721 2.16591C9.40472 2.11348 9.47451 2.08137 9.52398 2.02272C9.6095 1.95326 9.78021 2.02895 9.79823 1.83531C9.79986 1.8186 9.88407 1.80975 9.90897 1.77306C9.96795 1.72129 10.0266 1.66952 10.0856 1.61775L10.1101 1.64101C10.1183 1.59973 10.1262 1.55844 10.1357 1.51061C10.1586 1.50602 10.1793 1.50307 10.1993 1.49816C10.2943 1.47358 10.4306 1.51814 10.444 1.35203C10.4447 1.34252 10.4912 1.33728 10.5161 1.32942C10.5449 1.31992 10.5983 1.31009 10.5987 1.2996C10.6006 1.16199 10.7248 1.2072 10.7903 1.1669C10.8477 1.13184 10.9067 1.09974 10.9591 1.0496C11.0639 0.981126 11.233 1.07057 11.2936 0.88578C11.3012 0.862845 11.3834 0.862845 11.4316 0.854653C11.5469 0.834667 11.6852 0.878244 11.7513 0.724577C11.7605 0.702952 11.8319 0.71016 11.8736 0.70033C12.0056 0.668876 12.174 0.741614 12.2576 0.563045C12.2661 0.544697 12.329 0.548629 12.367 0.547318C12.5521 0.539782 12.7389 0.544369 12.9224 0.523072C13.022 0.511604 13.1163 0.455249 13.2143 0.422811C13.2592 0.408067 13.3074 0.39365 13.3539 0.393323C13.6596 0.390702 13.9653 0.391685 14.271 0.392668C14.3087 0.392668 14.3689 0.387097 14.3804 0.406429C14.4928 0.598431 14.6799 0.508 14.8349 0.532902C14.997 0.558786 15.1694 0.499481 15.3142 0.65577C15.3699 0.716058 15.5232 0.681327 15.6297 0.701313C15.6805 0.710815 15.7274 0.745546 15.7739 0.772413C15.7916 0.78257 15.8044 0.816974 15.8175 0.815991C16.0481 0.797315 16.2175 0.961795 16.4226 1.01815C16.4734 1.03191 16.5128 1.08466 16.5603 1.11448C16.593 1.13512 16.63 1.15085 16.6671 1.1633C16.7506 1.1918 16.8764 1.14954 16.8869 1.29993C16.8876 1.31041 16.9331 1.31533 16.9551 1.32778C17.0295 1.37037 17.1012 1.41788 17.1772 1.45786C17.2224 1.48177 17.2736 1.49488 17.2985 1.54108C17.5177 1.70097 17.7368 1.86087 17.9878 2.04369C17.9878 2.04566 17.9957 2.09186 18.0032 2.13806C18.017 2.13052 18.0304 2.12298 18.0442 2.11512C18.0815 2.16525 18.115 2.21899 18.1575 2.2642C18.2264 2.33727 18.3017 2.40444 18.3738 2.47455C18.4082 2.50797 18.4347 2.55581 18.4754 2.57514C18.6362 2.6505 18.611 2.85856 18.7686 2.95358C18.8718 3.0155 18.9115 3.17933 18.9862 3.29335C19.0642 3.41196 19.15 3.52533 19.2637 3.61936C19.2716 3.68391 19.2794 3.74845 19.2879 3.81267C19.2915 3.83921 19.2922 3.88639 19.3024 3.88902C19.4672 3.92801 19.4439 4.06103 19.4537 4.17833C19.455 4.19406 19.46 4.22027 19.4685 4.22289C19.6651 4.27826 19.5894 4.44766 19.6123 4.57249C19.6251 4.64228 19.6156 4.70683 19.7096 4.73632C19.7414 4.74615 19.7555 4.83297 19.7653 4.88671C19.7899 5.02039 19.7159 5.1829 19.8967 5.27006C19.9252 5.28382 19.9252 5.37065 19.9272 5.42405C19.9337 5.62032 19.9321 5.81691 19.9409 6.01317C19.9468 6.14292 19.938 6.26316 20.0294 6.39259C20.0976 6.48924 20.0602 6.6665 20.0546 6.80739C20.0504 6.92305 20.112 7.06328 19.9544 7.13897C19.9367 7.14749 19.9426 7.2104 19.9419 7.24841C19.9373 7.46105 19.937 7.67402 19.9285 7.88667C19.9249 7.97644 19.9606 8.09014 19.8171 8.12159C19.7987 8.12552 19.7853 8.18516 19.7824 8.22022C19.7729 8.33981 19.7774 8.46104 19.7591 8.57899C19.7512 8.63011 19.7011 8.67499 19.6677 8.72086C19.6559 8.73692 19.6202 8.75101 19.6221 8.75953C19.6818 8.99445 19.4144 9.12912 19.44 9.35749C19.4452 9.40532 19.3794 9.46037 19.3479 9.51312C19.3253 9.55146 19.3063 9.59241 19.2843 9.6314C19.2453 9.70054 19.206 9.76934 19.1657 9.83782C19.0992 9.95119 19.0376 10.0685 18.9629 10.1763C18.8833 10.2906 18.7906 10.3958 18.7031 10.5046C18.6874 10.5239 18.6674 10.5396 18.6523 10.5593C18.6172 10.6052 18.5838 10.6527 18.5311 10.6913L18.3106 10.9636L18.3034 10.9551C18.2473 11.0088 18.1916 11.0626 18.1356 11.1163L18.1369 11.1189C18.0819 11.174 18.0268 11.229 17.9721 11.2837L17.9734 11.285C17.4393 11.8198 16.9053 12.3548 16.3709 12.8895L16.3683 12.8869C16.3132 12.942 16.2585 12.997 16.2034 13.0521L16.2254 13.0799C16.1835 13.0861 16.1419 13.0924 16.0911 13.1002C16.0835 13.1471 16.0763 13.1933 16.0688 13.2395L16.0409 13.2192C15.5062 13.7532 14.9712 14.287 14.4364 14.821L14.4338 14.8194C14.3794 14.8751 14.3254 14.9308 14.2867 14.9701C13.7372 15.5209 13.2035 16.0563 12.6697 16.5913L12.6652 16.5874L12.502 16.7535C12.5092 16.7624 12.5167 16.7715 12.5239 16.7804L12.3985 16.8L12.4198 16.8318C12.368 16.8738 12.312 16.9121 12.2651 16.9586C12.1969 17.0265 12.1327 17.0985 12.0705 17.1723C12.0007 17.2552 11.9375 17.3433 11.867 17.4255C11.8231 17.477 11.774 17.5248 11.7222 17.5681C11.6386 17.6378 11.5446 17.6958 11.4669 17.7709C11.3896 17.8456 11.3323 17.9403 11.2569 18.0166C11.1789 18.0956 11.0898 18.1637 11.0046 18.2355C10.9856 18.2515 10.945 18.2627 10.9447 18.2768C10.9424 18.3633 10.9044 18.3967 10.8185 18.4108C10.79 18.4154 10.7736 18.495 10.7471 18.55C10.7147 18.5549 10.6727 18.5615 10.6757 18.5612C10.5987 18.6454 10.5463 18.7027 10.4938 18.7597V18.7637C9.95746 19.3 9.42045 19.8364 8.88343 20.3731L8.8795 20.3672C8.83035 20.4199 8.78087 20.4727 8.73173 20.5254L8.72354 20.5241C8.67242 20.5683 8.61934 20.6103 8.57052 20.6571C8.49811 20.7259 8.42439 20.7941 8.35984 20.8701C8.29071 20.9514 8.23992 21.049 8.16588 21.1244C8.09445 21.1968 7.99583 21.2423 7.92276 21.3137C7.84576 21.3888 7.78842 21.4831 7.71634 21.5637C7.65048 21.6375 7.57938 21.7076 7.50533 21.7734C7.40638 21.8616 7.28384 21.9232 7.22618 22.0562C7.21307 22.0863 7.13444 22.0827 7.1056 22.1135C7.07644 22.1447 7.0712 22.1987 7.05318 22.2498C7.01484 22.2557 6.97323 22.2623 6.9752 22.262C6.89885 22.3458 6.84676 22.4032 6.79499 22.4599C6.73569 22.5074 6.68293 22.548 6.63215 22.5909C6.57022 22.6434 6.58333 22.7498 6.46505 22.7777C6.42409 22.7872 6.30286 22.9045 6.29762 22.9431C6.27567 23.107 6.15378 23.1968 6.07285 23.3127C6.01158 23.4002 5.90378 23.454 5.83596 23.5382C5.74913 23.6456 5.68327 23.7695 5.60529 23.8845C5.57417 23.9304 5.53485 23.9703 5.5011 24.0146C5.48374 24.0375 5.47161 24.064 5.45556 24.088C5.37201 24.2095 5.26192 24.3176 5.26749 24.4844C5.26782 24.4959 5.19246 24.5103 5.1456 24.5254C5.13643 24.6142 5.1266 24.7052 5.11644 24.8026C5.07155 24.8176 5.02699 24.8324 4.98145 24.8478C4.97359 24.9395 4.96605 25.026 4.95851 25.1125C4.94311 25.1069 4.92772 25.1014 4.91232 25.0958C4.87758 25.1689 4.8304 25.239 4.81206 25.3163C4.79371 25.393 4.81435 25.4716 4.70852 25.5129C4.67084 25.5276 4.66166 25.6259 4.64692 25.6875C4.62169 25.7917 4.69082 25.9277 4.52503 25.985C4.49423 25.9955 4.49686 26.1046 4.48572 26.1685C4.4595 26.3206 4.5234 26.4932 4.354 26.6138C4.31272 26.6433 4.32975 26.758 4.32484 26.8337C4.31632 26.9644 4.31861 27.0961 4.30158 27.2255C4.29404 27.2819 4.24784 27.3323 4.22294 27.3871C4.20394 27.429 4.17773 27.4739 4.17773 27.5175C4.17412 28.2209 4.17117 28.9247 4.17773 29.6282C4.17838 29.7016 4.24326 29.7733 4.27176 29.8484C4.29076 29.8982 4.30485 29.9519 4.30911 30.005C4.31861 30.1301 4.31567 30.256 4.32779 30.3808C4.33762 30.482 4.30911 30.5944 4.4405 30.6629C4.48047 30.6839 4.46507 30.8041 4.48178 30.8772C4.51258 31.0125 4.42903 31.1799 4.62202 31.2756C4.66822 31.2985 4.64594 31.4591 4.65609 31.5698C4.81631 31.5833 4.80157 31.7094 4.80812 31.8277C4.81402 31.9316 4.78781 32.0593 4.95753 32.0679C4.96671 32.1589 4.97555 32.2445 4.98538 32.3421C5.19606 32.3631 5.1112 32.5456 5.15183 32.6648C5.16592 32.656 5.18001 32.6471 5.19409 32.6383C5.29927 32.808 5.40412 32.9774 5.49062 33.1173C5.54533 33.1992 5.56958 33.2818 5.61578 33.2969C5.80909 33.3601 5.70981 33.6258 5.91296 33.6933C5.99192 33.7195 6.02567 33.8647 6.09415 33.9437C6.1682 34.0288 6.25797 34.1003 6.34185 34.1763C6.41328 34.2412 6.50338 34.2933 6.55515 34.3706C6.63739 34.4935 6.72586 34.5963 6.85561 34.675C6.93785 34.7248 6.98798 34.827 7.05416 34.9043C7.07251 34.9256 7.09741 34.9417 7.11936 34.9597C7.1636 34.9964 7.20816 35.0331 7.28221 35.094C7.31202 35.136 7.34413 35.2143 7.40212 35.2556C7.52729 35.3444 7.66588 35.4138 7.80284 35.4915C7.86509 35.5301 7.9588 35.5547 7.9837 35.6101C8.05153 35.7595 8.17538 35.7654 8.30447 35.7893C8.33068 35.7942 8.34379 35.8683 8.36312 35.9102C8.46993 35.9528 8.6236 35.8987 8.67406 36.0622C8.67832 36.076 8.72419 36.0731 8.74713 36.0848C8.82412 36.1245 8.89883 36.1684 8.97583 36.208C9.00794 36.2248 9.0443 36.2326 9.07641 36.2487C9.14915 36.2857 9.21894 36.3286 9.29299 36.3627C9.33493 36.382 9.38244 36.3889 9.427 36.402C9.50858 36.4263 9.61179 36.3948 9.65308 36.5213C9.66356 36.5534 9.77857 36.5527 9.84606 36.5649C9.95026 36.5839 10.0813 36.5347 10.1308 36.6913C10.1377 36.7133 10.2183 36.7133 10.2655 36.7208C10.4407 36.7483 10.6419 36.6831 10.7736 36.8702C10.7877 36.8902 10.8457 36.881 10.8834 36.8827C11.0849 36.8928 11.2874 36.8928 11.4873 36.9158C11.5688 36.9253 11.6439 36.9852 11.7235 37.018C11.7569 37.0318 11.7949 37.0413 11.831 37.0413C12.3493 37.0419 12.8676 37.0413 13.386 37.0386C13.4263 37.0386 13.4672 37.0209 13.5059 37.0065C13.5973 36.9724 13.6855 36.9138 13.7792 36.9033C13.9682 36.882 14.1606 36.8902 14.3509 36.8771C14.3938 36.8742 14.4328 36.8299 14.4761 36.8099C14.5373 36.7818 14.5989 36.747 14.6638 36.7365C14.7602 36.7208 14.8611 36.7326 14.9567 36.7146C15.0092 36.7048 15.0518 36.651 15.1039 36.6287C15.1697 36.6006 15.2395 36.5799 15.3096 36.5642C15.4145 36.5409 15.555 36.6074 15.5996 36.4358C15.6042 36.4174 15.6782 36.4184 15.7198 36.4082C15.8001 36.3886 15.8915 36.4243 15.943 36.2981C15.9643 36.246 16.1179 36.2477 16.1976 36.1985C16.2618 36.1625 16.3237 36.1209 16.3912 36.0924C16.4633 36.0622 16.5786 36.1048 16.5832 35.9662C16.5832 35.9564 16.6409 35.9512 16.67 35.939C16.751 35.9059 16.8302 35.9141 16.901 35.8077C16.98 35.689 17.1658 35.6415 17.3424 35.5419C17.3823 35.4528 17.6281 35.2864 17.7604 35.2664C17.8463 35.1861 17.9033 35.1324 17.9606 35.079C17.9701 35.0868 17.98 35.0947 17.9895 35.1029C17.9957 35.0609 18.0016 35.0193 18.0091 34.9682C18.054 34.96 18.1002 34.9512 18.1464 34.9427C18.1399 34.9318 18.133 34.921 18.1264 34.9099C18.1756 34.8722 18.225 34.8349 18.2739 34.7965C18.2929 34.7815 18.3112 34.7647 18.3283 34.7474C18.363 34.7117 18.3987 34.6766 18.4295 34.6376C18.4623 34.5957 18.4898 34.5492 18.5307 34.52C18.7971 34.2523 19.0638 33.9846 19.3302 33.7173L19.3259 33.7159L19.4872 33.5701C19.478 33.5574 19.4691 33.5446 19.46 33.5315C19.5055 33.522 19.5514 33.5128 19.6031 33.502C19.609 33.4591 19.6146 33.4171 19.6218 33.3654C19.6667 33.3572 19.7126 33.349 19.7647 33.3395C19.7706 33.2956 19.7761 33.2536 19.7827 33.2032C19.8295 33.1956 19.8757 33.1878 19.9275 33.1792C19.9341 33.134 19.94 33.0924 19.939 33.099C20.0248 33.0167 20.0812 32.963 20.1644 32.8834C20.1877 32.8519 20.2204 32.7897 20.2693 32.7461C20.3295 32.6924 20.4131 32.6884 20.4498 32.5787C20.4783 32.4935 20.6231 32.4532 20.7004 32.3772C20.7781 32.3008 20.8354 32.2038 20.9039 32.1173C20.9187 32.0987 20.9436 32.0878 20.9619 32.0718C20.9963 32.0413 21.0297 32.0095 21.0628 31.9778C21.0867 31.9548 21.1084 31.9289 21.1339 31.908C21.1601 31.8867 21.1945 31.8749 21.2171 31.851C21.2594 31.8061 21.2961 31.7553 21.3348 31.7071L21.3708 31.7294C21.377 31.6878 21.3833 31.6458 21.3908 31.5951C21.438 31.5882 21.4845 31.5816 21.531 31.5751C21.5228 31.5656 21.5146 31.5564 21.5068 31.5469C21.5559 31.4941 21.6051 31.4417 21.6542 31.389C21.6663 31.3981 21.6788 31.4073 21.6909 31.4165C21.6994 31.3703 21.7083 31.3238 21.7168 31.2776C21.7243 31.2845 21.7316 31.2917 21.7391 31.2985L21.9072 31.1364L21.918 31.1377C21.9563 31.0892 21.9927 31.039 22.0336 30.9928C22.0527 30.9715 22.0821 30.9601 22.1038 30.9407C22.1346 30.9129 22.1641 30.8828 22.1916 30.8516C22.2109 30.83 22.223 30.8015 22.2437 30.7818C22.2594 30.7668 22.4999 30.522 22.5222 30.5027C22.6047 30.4313 22.7007 30.3729 22.7732 30.2927C22.838 30.2209 22.8868 30.1406 22.9802 30.0928C23.0333 30.0656 23.0625 29.9919 23.1083 29.9309C23.166 29.8883 23.226 29.8556 23.2699 29.8077C23.302 29.7727 23.3121 29.7176 23.3367 29.6613C23.3685 29.6564 23.4104 29.6501 23.4615 29.6426C23.4688 29.5977 23.4763 29.5515 23.4845 29.5007C23.5317 29.4945 23.5736 29.4889 23.5762 29.4886C23.649 29.4077 23.7011 29.35 23.7627 29.2812C23.8111 29.2435 23.8698 29.2085 23.9153 29.1606C23.9897 29.0823 24.0549 28.9952 24.1254 28.9133C24.1876 28.8408 24.2407 28.7537 24.3174 28.7022C24.4396 28.62 24.5487 28.5371 24.6211 28.4018C24.6545 28.3389 24.7407 28.3042 24.7895 28.2386C24.878 28.215 24.9579 28.1898 24.9337 28.1118C25.0123 28.0299 25.066 27.9736 25.1201 27.9175C25.1129 27.909 25.106 27.9008 25.0988 27.8923C25.1407 27.8871 25.1827 27.8815 25.2345 27.8749C25.2407 27.8271 25.2466 27.7809 25.2528 27.7347C25.2623 27.7426 25.2718 27.7504 25.2816 27.7586C25.3344 27.7108 25.3871 27.6626 25.4396 27.6148L25.4274 27.5981C25.5182 27.5201 25.6086 27.4421 25.7223 27.3441C25.7158 27.275 25.7561 27.2105 25.8514 27.1944C25.9006 27.1541 25.954 27.1181 25.9976 27.0725C26.0736 26.9936 26.1427 26.9077 26.2171 26.8271C26.2878 26.7501 26.3609 26.6751 26.435 26.601C26.4779 26.5581 26.5247 26.5194 26.6024 26.4497C26.6191 26.4284 26.6574 26.3782 26.6977 26.3297C26.7131 26.3111 26.7341 26.297 26.7511 26.2796C26.7859 26.2449 26.8163 26.2052 26.8544 26.1748C26.8953 26.1417 26.9428 26.1164 27.0028 26.0784C26.9897 25.9844 27.0414 25.9267 27.1637 25.949C27.1709 25.8949 27.1764 25.853 27.183 25.8029C27.2312 25.7957 27.2773 25.7888 27.3285 25.7812C27.3347 25.7331 27.3399 25.6911 27.3465 25.6404C27.3933 25.6325 27.4395 25.6246 27.4854 25.6168C27.4769 25.6063 27.4687 25.5958 27.4602 25.5853C27.6849 25.3792 27.9055 25.1689 28.1194 24.952C28.3298 24.7387 28.5411 24.5277 28.7449 24.3085C28.8003 24.2541 28.8556 24.1994 28.9113 24.145C28.9199 24.1522 28.9284 24.1594 28.9369 24.1666C28.9421 24.1247 28.9477 24.0827 28.9543 24.0313C29.0024 24.0247 29.0486 24.0182 29.0968 24.0116C29.1033 23.9612 29.1089 23.9192 29.1145 23.8776C29.1266 23.8848 29.1391 23.892 29.1512 23.8996C29.1915 23.8475 29.2259 23.7885 29.274 23.7449C29.3098 23.7125 29.3632 23.6997 29.3995 23.6827C29.5316 23.4343 29.7665 23.2774 29.9516 23.0906C30.1328 22.9078 30.2881 22.6764 30.5142 22.5274C30.5673 22.4884 30.6279 22.4559 30.6715 22.4081C30.7036 22.373 30.7134 22.3177 30.7373 22.2613C30.7701 22.2567 30.812 22.2505 30.8628 22.2433C30.8697 22.1977 30.8769 22.1519 30.8848 22.1011C30.9333 22.0949 30.9752 22.0893 31.026 22.0827C31.0335 22.0365 31.0407 21.99 31.0483 21.9438C31.0614 21.9514 31.0742 21.9586 31.0873 21.9661C31.1266 21.9133 31.1587 21.8531 31.2065 21.8101C31.2976 21.7279 31.3979 21.6558 31.5145 21.5637C31.5201 21.548 31.5217 21.4845 31.5528 21.4622C31.8871 21.222 32.1325 20.8849 32.469 20.6394C32.4788 20.5936 32.4889 20.5477 32.5004 20.4956C32.5424 20.4891 32.584 20.4825 32.6351 20.4746C32.642 20.4288 32.6485 20.3826 32.656 20.3311C32.7036 20.3246 32.7452 20.319 32.7963 20.3118C32.8028 20.2653 32.8094 20.2191 32.8159 20.1732C32.8258 20.1794 32.8359 20.186 32.8458 20.1922C32.9293 20.1162 33.0132 20.0402 33.0967 19.9642C33.0961 19.9583 33.0954 19.9524 33.0948 19.9465C33.1482 19.9075 33.2209 19.8793 33.2501 19.8272C33.2982 19.7397 33.3818 19.6955 33.4375 19.6296C33.4807 19.5788 33.5158 19.5444 33.5725 19.5064C33.6564 19.4498 33.7058 19.3449 33.7786 19.2689C33.8562 19.1873 33.9444 19.1159 34.0269 19.0389C34.0515 19.0159 34.0751 18.9917 34.0944 18.9645C34.1115 18.9403 34.1161 18.9045 34.1367 18.8859C34.1862 18.8413 34.2422 18.8036 34.293 18.7541L34.4499 18.6044C34.4408 18.5923 34.4316 18.5802 34.4224 18.568C34.4686 18.5595 34.5148 18.551 34.5728 18.5405C34.5558 18.4255 34.6082 18.3685 34.7301 18.3882C34.7369 18.3344 34.7422 18.2925 34.7484 18.2417C34.7953 18.2338 34.8415 18.226 34.8877 18.2184C34.8788 18.2076 34.8703 18.1968 34.8615 18.186C35.0918 17.9858 35.3008 17.766 35.52 17.5536C35.735 17.3453 35.9384 17.1244 36.1478 16.9131C36.1963 16.8597 36.2445 16.8059 36.293 16.7525C36.2972 16.7575 36.3018 16.762 36.3061 16.767C36.3532 16.7073 36.4004 16.6477 36.4479 16.5881C36.463 16.5976 36.4781 16.6071 36.4932 16.6166C36.502 16.5707 36.5108 16.5245 36.5207 16.4727C36.5636 16.4662 36.6055 16.4599 36.657 16.4521C36.6655 16.4095 36.6747 16.3636 36.6838 16.3177L36.711 16.3413C37.0862 15.9668 37.4617 15.592 37.8368 15.2175L37.8359 15.2165C37.888 15.1641 37.9401 15.1113 37.9925 15.0589L37.9899 15.0566C38.0446 15.0013 38.0993 14.9462 38.154 14.8908L38.1321 14.863C38.174 14.8574 38.2159 14.8522 38.2172 14.8518C38.2906 14.7703 38.3427 14.7129 38.3945 14.6556C38.406 14.6638 38.4174 14.672 38.4286 14.6805C38.4348 14.6385 38.4414 14.5966 38.4492 14.5452C38.4918 14.536 38.5377 14.5262 38.5839 14.5163C38.5767 14.5085 38.5695 14.5006 38.5623 14.4927L38.8873 14.1713L38.8866 14.1638C38.9358 14.1238 38.9866 14.0858 39.0337 14.0432C39.0901 13.9924 39.1461 13.9406 39.1969 13.8846C39.2706 13.803 39.3388 13.7165 39.4115 13.634C39.4777 13.5586 39.5446 13.4836 39.616 13.4135C39.6602 13.3699 39.7133 13.3355 39.7628 13.288L39.9272 13.1219V13.1235C39.9793 13.073 40.0311 13.0229 40.0832 12.9724C40.0744 12.9603 40.0652 12.9482 40.0563 12.9364C40.1022 12.9282 40.1484 12.9203 40.1999 12.9112C40.2057 12.8663 40.2113 12.8243 40.2179 12.7742C40.2654 12.7667 40.3116 12.7595 40.3627 12.7513C40.3692 12.7051 40.3755 12.6635 40.3827 12.613C40.48 12.6055 40.5776 12.5924 40.5495 12.5065C40.842 12.2139 41.1087 11.9472 41.4138 11.6422C41.4226 11.631 41.4567 11.576 41.5019 11.5331C41.593 11.4459 41.6903 11.3653 41.8129 11.2575C41.8129 11.2579 41.8191 11.2162 41.8266 11.1655C41.8741 11.1589 41.9207 11.1527 41.9774 11.1451C41.9551 11.0193 42.0121 10.9679 42.1313 10.9872C42.1386 10.9328 42.1438 10.8912 42.1431 10.8974C42.2293 10.8165 42.286 10.7634 42.3761 10.6786C42.3905 10.6609 42.4279 10.6114 42.4695 10.5652C42.4885 10.5439 42.517 10.5315 42.5386 10.5121C42.5697 10.4843 42.6005 10.4558 42.6271 10.424C42.6428 10.405 42.6444 10.368 42.6628 10.3581C42.7932 10.288 42.8879 10.191 42.9685 10.0626C43.0226 9.97609 43.1467 9.93644 43.2244 9.86043C43.3014 9.7854 43.3551 9.68677 43.4282 9.60683C43.4626 9.56915 43.5183 9.55047 43.5484 9.501C43.6012 9.46102 43.6608 9.42728 43.7047 9.37911C43.7368 9.34405 43.7483 9.28999 43.7739 9.23331C43.8037 9.22839 43.8456 9.22151 43.897 9.21332C43.9046 9.17007 43.9128 9.1242 43.9216 9.07309C43.9668 9.06653 44.0088 9.06031 44.0602 9.05277C44.0681 9.00854 44.0766 8.96234 44.0868 8.90533C44.1873 8.90664 44.2752 8.88534 44.2506 8.80245C44.3302 8.72381 44.383 8.67172 44.4354 8.61962L44.4387 8.62257C44.8115 8.24708 45.1847 7.87127 45.5576 7.49578C45.5491 7.4853 45.5405 7.47514 45.532 7.46466C45.574 7.45876 45.6159 7.45286 45.6677 7.44565C45.6752 7.40076 45.6834 7.35489 45.6922 7.30312C45.7361 7.29624 45.7778 7.28969 45.8292 7.2815C45.8367 7.23759 45.8443 7.19172 45.8521 7.14552C45.8639 7.15339 45.8757 7.16092 45.8872 7.16879C45.9265 7.12128 45.9609 7.0682 46.0065 7.02757C46.0458 6.99219 46.0972 6.97089 46.1283 6.92174C46.1778 6.88373 46.2306 6.84966 46.2758 6.80706C46.3482 6.73826 46.4144 6.6629 46.4855 6.59245C46.5749 6.50366 46.6703 6.42044 46.7564 6.32869C46.8315 6.24875 46.8954 6.15799 46.9684 6.07575C47.0376 5.9981 47.1103 5.92372 47.1847 5.85131C47.2292 5.80806 47.2807 5.77104 47.3246 5.72353C47.3777 5.67438 47.4307 5.62523 47.4835 5.57608L47.4557 5.53873C47.4809 5.53349 47.5058 5.52759 47.5313 5.523C47.552 5.5194 47.573 5.51743 47.5998 5.51383C47.6064 5.46796 47.6126 5.42602 47.6198 5.37556C47.6647 5.36737 47.7109 5.35885 47.7627 5.34935C47.7692 5.30643 47.7758 5.26449 47.7836 5.21338C47.8265 5.20453 47.8724 5.1947 47.9183 5.1852C47.9111 5.1734 47.9042 5.16128 47.897 5.14948C47.9504 5.11017 48.0107 5.0774 48.0556 5.03022C48.13 4.95191 48.1929 4.86279 48.2633 4.78055C48.3256 4.70814 48.3816 4.62524 48.4579 4.57151C48.5775 4.48698 48.6791 4.39687 48.7607 4.2704C48.8157 4.18521 48.9337 4.14294 49.0136 4.07053C49.0484 4.03908 49.0579 3.98043 49.0955 3.95487L49.2564 3.80874C49.2446 3.79662 49.2328 3.78417 49.221 3.77205C49.3144 3.75501 49.4261 3.7537 49.3662 3.60068H39.7932C39.6976 3.66884 39.6317 3.70324 39.5826 3.75402C39.5088 3.82971 39.4482 3.91785 39.3794 3.99845C39.325 4.06202 39.2703 4.12656 39.2087 4.18292C39.1311 4.25336 39.041 4.31005 38.9659 4.38246C38.8879 4.45782 38.8244 4.54759 38.7497 4.62688C38.674 4.70716 38.5924 4.78186 38.5141 4.85919C38.4178 4.95421 38.3218 5.04988 38.2356 5.13572C38.1717 5.20125 38.1167 5.25728 38.0619 5.31364L38.059 5.31003C37.5787 5.78906 37.098 6.26775 36.6177 6.74678L36.6236 6.75235C36.5138 6.85981 36.4044 6.96761 36.2946 7.07508L36.2966 7.07836C36.2543 7.12161 36.214 7.16649 36.1698 7.20712C36.1285 7.24513 36.0829 7.27888 36.0469 7.32999C35.9938 7.37029 35.9244 7.40011 35.8913 7.45286C35.8392 7.53576 35.7753 7.59244 35.6957 7.64945C35.5852 7.72809 35.4941 7.83523 35.4014 7.93647C35.327 8.0174 35.2691 8.11373 35.1927 8.19237C35.1174 8.27002 35.0217 8.32768 34.946 8.40501C34.866 8.48627 34.7995 8.58063 34.7265 8.66844C34.7111 8.68712 34.694 8.70481 34.6754 8.71988C34.6262 8.76018 34.5757 8.79884 34.5558 8.81457C34.4712 8.90205 34.4165 8.95841 34.3621 9.01509L34.3661 9.01673C34.0047 9.36502 33.6383 9.7084 33.2835 10.0629C32.9404 10.406 32.6095 10.7605 32.2648 11.1006C31.8392 11.5265 31.4136 11.9525 30.988 12.3784L30.9922 12.3823C30.9365 12.4374 30.8805 12.4928 30.8248 12.5478L30.8235 12.5472C30.7154 12.6563 30.6076 12.765 30.4995 12.8741L30.4959 12.8705C30.0145 13.3515 29.5335 13.8322 29.0522 14.3132L29.0542 14.3155C28.9464 14.4246 28.8386 14.534 28.7308 14.6431L28.7213 14.6421C28.6823 14.6913 28.6446 14.7421 28.6033 14.7896C28.585 14.8109 28.5604 14.8279 28.5362 14.8423C28.51 14.8577 28.4756 14.8623 28.4533 14.8817C28.4294 14.9023 28.1885 15.1484 28.1699 15.1684C28.0981 15.245 28.0319 15.3266 27.9589 15.4016C27.8278 15.5363 27.6948 15.6687 27.5601 15.7994C27.4874 15.8698 27.4061 15.9318 27.335 16.0035C27.2888 16.0504 27.2538 16.1087 27.2099 16.1674C27.1502 16.2126 27.0899 16.2466 27.0454 16.2951C27.0126 16.3309 27.0002 16.3852 26.9585 16.4101L26.6358 16.7381L26.6306 16.7326C26.1512 17.2129 25.6722 17.6935 25.1928 18.1739L25.1964 18.1772C25.1404 18.2322 25.0844 18.2873 25.028 18.342L25.0271 18.3413C24.5461 18.8203 24.0654 19.2997 23.5844 19.7787L23.588 19.7826L23.4226 19.9504L23.4199 19.9475L23.0972 20.2761L23.0861 20.2738C23.0477 20.3226 23.0107 20.3724 22.9701 20.4196C22.9517 20.4409 22.9285 20.4596 22.9042 20.474C22.8777 20.4894 22.8302 20.4913 22.8216 20.5117C22.7646 20.6467 22.6427 20.7132 22.5399 20.8023C22.4576 20.8737 22.3957 20.9678 22.3226 21.05C22.2594 21.1214 22.1965 21.1932 22.1277 21.2594C22.0281 21.355 21.9062 21.4196 21.8357 21.5549C21.7902 21.6421 21.6719 21.6909 21.5871 21.758C21.5674 21.7738 21.5494 21.7921 21.5333 21.8114C21.494 21.8586 21.4567 21.9071 21.4144 21.9602C21.3548 22.0061 21.2955 22.0411 21.2509 22.0896C21.2181 22.1253 21.2047 22.1791 21.1578 22.2056C21.1182 22.2548 21.0831 22.3088 21.0379 22.3521C20.9586 22.4278 20.8728 22.4969 20.7899 22.569C20.7227 22.6273 20.6497 22.6804 20.5897 22.7452C20.5186 22.8219 20.4619 22.9114 20.3928 22.99C20.3299 23.0614 20.2594 23.126 20.1913 23.1928C20.1811 23.203 19.9308 23.4762 19.92 23.4815C19.8751 23.5044 19.8286 23.5234 19.802 23.5716C19.7486 23.6122 19.6887 23.6466 19.6441 23.6954C19.6113 23.7311 19.5982 23.7852 19.5569 23.8121C19.5163 23.8557 19.4776 23.9022 19.4337 23.9425C19.3921 23.9808 19.3446 24.0133 19.3099 24.067C19.2562 24.106 19.1815 24.1338 19.1539 24.1866C19.1064 24.2767 19.034 24.3248 18.9587 24.3835C18.8551 24.4641 18.7683 24.5667 18.6772 24.663C18.6051 24.7393 18.5402 24.8225 18.4665 24.8976C18.3856 24.9798 18.2952 25.0532 18.2146 25.1361C18.1248 25.2285 18.0416 25.3275 17.9511 25.4169C17.843 25.5247 17.7352 25.6325 17.6271 25.7403L17.6258 25.739C17.0901 26.2747 16.554 26.8104 16.0183 27.3461L16.0206 27.3484C15.9125 27.4572 15.804 27.566 15.6959 27.6747L15.7031 27.6803C15.4541 27.912 15.1982 28.1371 14.9577 28.3772C14.7162 28.6184 14.4898 28.8746 14.251 29.1171C14.1429 29.2262 14.0347 29.3349 13.9266 29.444L13.9174 29.4434C13.8784 29.4929 13.8414 29.5436 13.8001 29.5912C13.7818 29.6125 13.7572 29.6292 13.7326 29.6436C13.7064 29.659 13.6629 29.6616 13.6511 29.6829C13.5793 29.813 13.4745 29.9024 13.3526 29.9863C13.27 30.0433 13.2323 30.1681 13.1484 30.2196C13.0197 30.2982 12.9636 30.5299 12.7838 30.4444C12.0538 29.713 11.351 29.0089 10.6478 28.3048C10.6377 28.3123 10.6272 28.3199 10.617 28.3271C10.6095 28.2412 10.602 28.1557 10.5987 28.1167C10.6688 28.0286 10.7068 27.968 10.7576 27.9205C10.8372 27.8458 10.927 27.7816 11.0099 27.7101C11.0715 27.657 11.1341 27.6036 11.1878 27.5433C11.2589 27.4637 11.3175 27.3726 11.3899 27.2947C11.466 27.2124 11.5528 27.14 11.634 27.0624C11.7137 26.986 11.7939 26.9107 11.8706 26.8314C11.9483 26.7511 12.0203 26.6652 12.0973 26.584C12.1855 26.4909 12.2723 26.3962 12.366 26.3091C12.4456 26.235 12.5367 26.1741 12.618 26.1017C12.693 26.0349 12.7694 25.967 12.831 25.8884C12.9145 25.7813 13 25.6849 13.1163 25.6076C13.2012 25.5512 13.2523 25.4451 13.3214 25.3635C13.3742 25.3012 13.4279 25.2387 13.4882 25.1833C13.5711 25.1076 13.6622 25.0411 13.7461 24.9664C13.8218 24.8986 13.8925 24.8255 13.9646 24.7534C14.0524 24.6656 14.1406 24.5778 14.2258 24.4877C14.3037 24.4051 14.3784 24.319 14.4545 24.2344C14.519 24.1627 14.5773 24.084 14.6488 24.0205C14.731 23.9477 14.8519 23.9045 14.906 23.8176C14.9508 23.7449 14.9974 23.7095 15.0626 23.6627C15.1484 23.6011 15.1913 23.4828 15.267 23.4028C15.3401 23.3258 15.4361 23.2711 15.5137 23.1977C15.5937 23.122 15.6632 23.0355 15.7375 22.9536C15.7926 22.8933 15.8437 22.8288 15.9036 22.7744C15.996 22.6909 16.095 22.6142 16.1779 22.5231C16.8725 21.8285 17.5671 21.1342 18.2617 20.4399L18.2657 20.4429C18.3679 20.3446 18.4695 20.2456 18.5724 20.1483C18.6359 20.0883 18.7077 20.0362 18.7644 19.9707C18.8368 19.8868 18.8895 19.7849 18.9665 19.706C19.0438 19.6264 19.1434 19.569 19.2277 19.4953C19.3001 19.4321 19.3649 19.3593 19.4331 19.2912C19.5242 19.1998 19.6179 19.1106 19.7064 19.0163C19.783 18.9347 19.8525 18.8465 19.9275 18.7637C19.9495 18.7394 19.9832 18.7266 20.0068 18.7037C20.0854 18.6273 20.1634 18.55 20.2385 18.4704C20.3145 18.3895 20.382 18.2997 20.4622 18.223C20.5389 18.15 20.6467 18.1031 20.7057 18.0199C20.7922 17.898 20.8872 17.7994 21.0127 17.7158C21.0962 17.6601 21.1388 17.5461 21.2112 17.4688C21.2876 17.3875 21.3797 17.3217 21.4609 17.245C21.5412 17.1693 21.6156 17.0874 21.6945 17.0101C21.7882 16.9183 21.8836 16.8286 21.977 16.7286C22.0304 16.6867 22.0903 16.6513 22.1352 16.6018C22.2066 16.5229 22.2656 16.4328 22.3348 16.3515C22.3983 16.2765 22.4586 16.1936 22.5376 16.1382C22.6549 16.056 22.7466 15.9586 22.8318 15.8436C22.8957 15.7571 23.0055 15.706 23.0893 15.633C23.1624 15.5694 23.2322 15.5006 23.2961 15.4279C23.3691 15.345 23.4212 15.2388 23.5061 15.1726C23.6162 15.0864 23.7184 15.0039 23.799 14.8836C23.857 14.7968 23.9714 14.749 24.0549 14.6772C24.1247 14.6172 24.1978 14.5556 24.2489 14.4806C24.3298 14.3614 24.4235 14.265 24.5444 14.1828C24.6286 14.1258 24.6788 14.0199 24.7482 13.9393C24.8118 13.8653 24.8796 13.7945 24.9481 13.7247C25.0444 13.6261 25.1394 13.5265 25.241 13.4338C25.3187 13.3627 25.4094 13.3053 25.4874 13.2342C25.5687 13.1602 25.6437 13.0793 25.7174 12.9977C25.7882 12.9194 25.8504 12.8335 25.9225 12.7562C26.0136 12.6586 26.108 12.5632 26.2063 12.4728C26.2882 12.3974 26.3793 12.3316 26.4641 12.2592C26.5306 12.2025 26.5998 12.1474 26.6565 12.0819C26.7259 12.0019 26.7764 11.905 26.8485 11.8283C26.9215 11.751 27.0133 11.6917 27.0935 11.6209C27.1728 11.5504 27.2482 11.4757 27.3249 11.4023C27.4156 11.3155 27.5129 11.2343 27.5935 11.1389C27.6541 11.0675 27.7249 11.0043 27.7826 10.9394C27.8802 10.8293 27.9772 10.729 28.0945 10.6386C28.1797 10.5727 28.2233 10.4554 28.3006 10.3758C28.3779 10.2962 28.4805 10.2415 28.5604 10.1638C28.6394 10.0872 28.7016 9.99345 28.775 9.91121C28.8399 9.83848 28.9074 9.76738 28.9795 9.70185C29.0811 9.60945 29.2046 9.54916 29.2714 9.40991C29.3121 9.32538 29.4316 9.28115 29.5083 9.21103C29.5863 9.1396 29.6571 9.05965 29.7285 8.98135C29.8039 8.89878 29.8746 8.81195 29.9513 8.73037C30.0388 8.63699 30.1279 8.54492 30.2213 8.45743C30.3032 8.38044 30.393 8.31196 30.4768 8.23693C30.5525 8.1691 30.6266 8.09899 30.699 8.02789C30.7904 7.93811 30.8812 7.84735 30.9693 7.7543C31.0447 7.67501 31.1161 7.59244 31.1892 7.51118C31.2567 7.43615 31.3189 7.35522 31.393 7.2874C31.4739 7.21335 31.5705 7.15601 31.6521 7.08262C31.7553 6.98956 31.8536 6.88996 31.948 6.78773C32.0201 6.70975 32.0807 6.62129 32.1502 6.54068C32.2137 6.46664 32.2714 6.37915 32.3517 6.32935C32.4758 6.25202 32.5541 6.14062 32.6459 6.03512C32.717 5.95354 32.8254 5.9057 32.9054 5.83034C32.985 5.75564 33.0502 5.6652 33.1216 5.58165C33.1842 5.50859 33.2363 5.42045 33.3123 5.36606C33.4326 5.28054 33.5309 5.18323 33.6187 5.06331C33.6819 4.97681 33.7989 4.93225 33.8778 4.85427C33.9562 4.77662 34.0142 4.67898 34.0859 4.59412C34.1423 4.52728 34.2016 4.46109 34.2681 4.40441C34.3493 4.33527 34.4473 4.28514 34.5233 4.21142C34.6023 4.13508 34.6606 4.03777 34.7333 3.95422C34.7959 3.88246 34.8657 3.81693 34.9332 3.74944C35.0269 3.65573 35.1213 3.56268 35.215 3.46897C35.2841 3.39984 35.3497 3.32677 35.4227 3.26222C35.505 3.18916 35.5974 3.12723 35.6786 3.05318C35.7818 2.9598 35.8827 2.86315 35.9761 2.76026C36.0505 2.67835 36.1055 2.57875 36.1816 2.49847C36.255 2.42115 36.348 2.36315 36.425 2.2891C36.5085 2.2085 36.5842 2.11905 36.6622 2.03255C36.6753 2.01781 36.6802 1.99455 36.6947 1.9821C36.7215 1.95916 36.9646 1.71244 36.9866 1.69376C37.0705 1.62201 37.1622 1.55877 37.2422 1.48309C37.3192 1.41002 37.3847 1.32516 37.4555 1.24587C37.5269 1.16559 37.598 1.08499 37.6704 1.00603C37.7081 0.965071 37.7464 0.924115 37.7887 0.888074C37.8742 0.815335 37.9679 0.751771 38.0482 0.674118C38.1383 0.586964 38.2176 0.488341 38.3159 0.378906H57.2596C57.2678 0.460163 57.3041 0.538144 57.1757 0.54699C57.1524 0.548629 57.1289 0.578117 57.1102 0.599087C57.0692 0.645285 57.0312 0.694105 56.9883 0.746857C56.9336 0.789779 56.8795 0.823199 56.8366 0.867759C56.7616 0.945412 56.6947 1.03093 56.6223 1.1112C56.5977 1.1384 56.5656 1.15937 56.5374 1.18361C56.5119 1.20557 56.4863 1.22752 56.4614 1.25045C56.428 1.28093 56.3936 1.31074 56.3631 1.34416C56.277 1.43885 56.1928 1.53485 56.0984 1.62561C56.0584 1.67443 56.0188 1.72391 55.9781 1.77207C55.9624 1.79075 55.9437 1.80713 55.9264 1.8245C55.8913 1.8589 55.8589 1.89625 55.8205 1.9264C55.7786 1.95949 55.7314 1.9857 55.7016 2.03747C55.6485 2.07679 55.5889 2.11021 55.545 2.15772C55.5126 2.19277 55.5011 2.24651 55.4519 2.27239C55.412 2.32547 55.3785 2.38543 55.3304 2.42934C55.2947 2.46177 55.2396 2.47324 55.2137 2.52436C55.1646 2.56171 55.1138 2.59677 55.0673 2.63674C55.046 2.65509 55.0348 2.68523 55.0155 2.70686C54.988 2.73798 54.9588 2.76813 54.927 2.79467C54.9077 2.81072 54.8694 2.81269 54.8609 2.83104C54.8009 2.96144 54.6915 3.03877 54.5801 3.11871C54.5437 3.14492 54.5332 3.20783 54.4929 3.23372C54.3327 3.39558 54.1725 3.55776 54.0122 3.71962H54.0044C53.9657 3.76746 53.9274 3.81595 53.8881 3.86346C53.8723 3.88246 53.8543 3.90016 53.8363 3.91752C53.8009 3.95127 53.7668 3.98731 53.7285 4.01745C53.6866 4.05022 53.6404 4.07774 53.6092 4.11575C53.5545 4.17178 53.4998 4.22781 53.4451 4.28383V4.29563C53.3963 4.33265 53.3468 4.36902 53.2983 4.40703C53.2793 4.42177 53.2629 4.4398 53.2462 4.45716C53.2115 4.49287 53.1744 4.52695 53.144 4.56627C53.1112 4.60821 53.0847 4.65539 53.0368 4.68586C52.9975 4.73665 52.9641 4.79366 52.9179 4.83658C52.8389 4.90997 52.7524 4.97517 52.6679 5.04234C52.6561 5.05184 52.6279 5.05184 52.6256 5.06069C52.605 5.14817 52.5477 5.18192 52.47 5.22779C52.3812 5.28054 52.3403 5.40898 52.2672 5.49483C52.2413 5.5253 52.182 5.52792 52.1545 5.56167C52.0781 5.64653 52.0018 5.73106 51.9254 5.81592L51.911 5.81232C51.8727 5.86048 51.835 5.9093 51.7957 5.95681C51.7796 5.97614 51.7606 5.99253 51.7423 6.00989C51.7069 6.04364 51.6735 6.08034 51.6352 6.11015C51.5929 6.14292 51.546 6.16946 51.5162 6.20943C51.4081 6.31755 51.3003 6.42601 51.1614 6.56493C51.1404 6.58066 51.087 6.61473 51.0408 6.65667C50.9854 6.7068 50.9356 6.76316 50.8852 6.81853C50.8118 6.89946 50.7407 6.98203 50.6676 7.06328C50.6456 7.08753 50.6224 7.11112 50.5972 7.13176C50.5713 7.15306 50.5408 7.16879 50.5156 7.19074C50.4782 7.22351 50.4396 7.2566 50.4094 7.29592C50.377 7.33818 50.3537 7.38733 50.3039 7.41747C50.2639 7.47023 50.2299 7.52986 50.182 7.57409C50.1466 7.60653 50.0926 7.61898 50.068 7.65961C49.9609 7.76708 49.854 7.87487 49.7331 7.99643C49.6955 8.0269 49.6421 8.06196 49.5991 8.10718C49.5126 8.19892 49.432 8.2959 49.3377 8.38535C49.298 8.43581 49.2636 8.49216 49.2171 8.53541C49.1381 8.60881 49.052 8.67467 48.9681 8.74216C48.9563 8.75166 48.9278 8.75068 48.9255 8.75953C48.9025 8.84472 48.8501 8.88174 48.7699 8.92728C48.6807 8.97774 48.6398 9.10782 48.5667 9.19366C48.5408 9.22413 48.4818 9.22708 48.4592 9.26509C48.416 9.30605 48.3705 9.34471 48.3305 9.38861C48.2928 9.43023 48.261 9.47773 48.2122 9.51181C48.1732 9.55997 48.1391 9.61305 48.0942 9.65467C48.0018 9.74084 47.9039 9.82078 47.7823 9.9253C47.7797 9.98199 47.7646 10.0773 47.6749 10.0492C47.3302 10.3938 47.01 10.714 46.6932 11.0305C46.6411 11.0862 46.5916 11.1392 46.5422 11.1923L46.5307 11.1792C46.4793 11.2385 46.4275 11.2978 46.376 11.3571L46.3629 11.3529C46.2859 11.4371 46.2093 11.5213 46.1323 11.6055L46.1172 11.6042C46.0776 11.6573 46.0441 11.7175 45.996 11.7615C45.9603 11.7939 45.9052 11.805 45.8803 11.8463L45.7227 12.0023L45.7221 12.0013C45.4547 12.2696 45.1873 12.5377 44.92 12.806C44.8784 12.8692 44.8787 12.9741 44.7611 12.9708C44.7077 13.0111 44.6474 13.0455 44.6031 13.0943C44.571 13.1297 44.5602 13.1844 44.5137 13.211C44.4731 13.2634 44.438 13.3224 44.3895 13.3663C44.3538 13.3987 44.3004 13.4122 44.268 13.4482C44.1919 13.5311 44.1159 13.6143 44.0399 13.6972C44.0451 13.7067 44.0504 13.7162 44.0556 13.726C44.0137 13.7329 43.9718 13.7395 43.9308 13.7464C43.8895 13.9633 43.6775 14.0491 43.5514 14.1828C43.4328 14.3086 43.3296 14.5013 43.1887 14.5363C43.0432 14.6818 42.9351 14.7899 42.8269 14.898L42.8276 14.8987C42.7195 15.0058 42.611 15.113 42.5029 15.2204L42.5062 15.2237C42.3981 15.3302 42.2903 15.4367 42.1471 15.5776C42.132 15.5894 42.0812 15.6264 42.0347 15.6674C42.0134 15.686 42.0009 15.7149 41.9816 15.7365C41.9544 15.7676 41.9266 15.7994 41.8951 15.8259C41.8761 15.842 41.8378 15.8427 41.8279 15.861C41.7591 15.9904 41.6703 16.094 41.5327 16.1572C41.5023 16.171 41.498 16.2414 41.4613 16.265C41.3008 16.4265 41.1402 16.5884 40.9797 16.7499L40.982 16.7558C40.9 16.8318 40.8181 16.9078 40.7362 16.9839L40.7356 16.9911C40.6271 17.0982 40.5187 17.205 40.4099 17.3122L40.4125 17.3148L40.0881 17.6352L40.0875 17.6346C39.8204 17.9023 39.5534 18.1696 39.2864 18.4373L39.287 18.4465C39.2372 18.4845 39.1864 18.5215 39.1376 18.5612C39.1193 18.5762 39.1065 18.5982 39.0898 18.6152C39.055 18.6509 39.0154 18.6831 38.9853 18.722C38.9528 18.764 38.9289 18.8121 38.8797 18.8429C38.8401 18.896 38.807 18.956 38.7592 18.9999C38.7238 19.0323 38.6694 19.0441 38.6419 19.0893C38.5931 19.1283 38.5436 19.167 38.4954 19.207C38.4767 19.2224 38.46 19.2397 38.4433 19.2571C38.4086 19.2931 38.3719 19.3272 38.3414 19.3662C38.3087 19.4081 38.2821 19.4553 38.232 19.4855C38.1917 19.5399 38.1589 19.6028 38.1098 19.647C38.0295 19.7191 37.9328 19.7731 37.8536 19.8462C37.7736 19.9199 37.7091 20.0094 37.6337 20.0883C37.5439 20.1824 37.4502 20.2725 37.3588 20.3649C37.3031 20.4196 37.2477 20.4743 37.192 20.529L37.1943 20.531C37.0859 20.6378 36.9771 20.7449 36.8686 20.8518L36.8726 20.8557C36.7651 20.9619 36.6576 21.068 36.5505 21.1742L36.5495 21.1729C36.2821 21.4396 36.0145 21.7066 35.7471 21.9733L35.7494 21.9756C35.5892 22.1361 35.4286 22.2967 35.2684 22.4572C35.2491 22.5483 35.1986 22.608 35.1295 22.5962C34.9942 22.7295 34.8857 22.8363 34.7773 22.9435L34.7792 22.9533C34.7311 22.9923 34.6806 23.029 34.6357 23.0716C34.6121 23.0939 34.6003 23.1283 34.5793 23.1542C34.5584 23.18 34.5358 23.2059 34.5086 23.2239C34.4876 23.238 34.4434 23.2325 34.4352 23.2485C34.3644 23.3907 34.2553 23.49 34.119 23.5686C34.0925 23.584 34.0938 23.6466 34.0581 23.665C33.8978 23.8268 33.7376 23.9887 33.5771 24.1505H33.5699C33.5309 24.1984 33.4922 24.2465 33.4526 24.2944C33.4365 24.3134 33.4191 24.3314 33.4014 24.3488C33.3661 24.3825 33.3317 24.4179 33.2933 24.448C33.2517 24.4808 33.2058 24.5087 33.1741 24.5457L33.0112 24.7144H33.0099C32.6898 25.0332 32.3694 25.3524 32.0492 25.6712L32.0502 25.6721C31.9414 25.7803 31.8323 25.8884 31.7236 25.9965L31.7258 25.9985C31.6194 26.106 31.5129 26.2134 31.4064 26.3209L31.4031 26.3179C31.2956 26.4261 31.1885 26.5342 31.081 26.6426L31.0801 26.642C31.0247 26.697 30.9693 26.7521 30.9143 26.8068V26.8186C30.8648 26.8556 30.8094 26.8874 30.7675 26.9313C30.6928 27.0093 30.6249 27.0941 30.5565 27.1777C30.5437 27.1931 30.5401 27.2327 30.5325 27.2327C30.4287 27.2321 30.3936 27.292 30.3799 27.3835C30.3782 27.3953 30.3104 27.389 30.2937 27.4087C30.2672 27.4401 30.2334 27.5089 30.2455 27.5224C30.3258 27.6095 30.4179 27.6859 30.5004 27.7711C30.5565 27.8261 30.6125 27.8812 30.6685 27.9362L30.6643 27.9398L30.9873 28.2606L30.9827 28.2652C31.5188 28.7992 32.0551 29.3336 32.5912 29.8677L32.5948 29.8641C32.6501 29.9198 32.7055 29.9755 32.7612 30.0312L32.7504 30.042C33.0266 30.3041 33.3084 30.5607 33.5777 30.8297C33.8431 31.0947 34.0957 31.3723 34.3634 31.636C34.4201 31.6907 34.4765 31.7451 34.5331 31.7998L34.522 31.8093C34.7956 32.0708 35.0744 32.327 35.3415 32.5947C35.6088 32.8627 35.8647 33.1422 36.134 33.408C36.2412 33.5154 36.3487 33.6226 36.4558 33.73L36.4584 33.7274C36.5141 33.7828 36.5695 33.8385 36.6252 33.8939C36.6249 33.8975 36.6245 33.9011 36.6239 33.9047C36.6734 33.9433 36.7261 33.9787 36.772 34.0213C36.828 34.0734 36.8804 34.1298 36.9312 34.1871C37.0004 34.2651 37.0629 34.349 37.1347 34.4246C37.2137 34.5079 37.3005 34.5836 37.3817 34.6648C37.4614 34.7444 37.5361 34.8293 37.617 34.9076C37.6992 34.9872 37.7887 35.059 37.8703 35.1389C37.9633 35.2303 38.0508 35.3273 38.1524 35.4191C38.193 35.4721 38.2274 35.5321 38.2759 35.5767C38.3116 35.6094 38.3657 35.6225 38.3916 35.6694C38.4397 35.7094 38.4898 35.747 38.536 35.7893C38.6071 35.8542 38.6773 35.92 38.7451 35.9885C38.8411 36.0852 38.9368 36.1818 39.0282 36.2831C39.098 36.3604 39.1566 36.4479 39.2274 36.5239C39.3021 36.6038 39.383 36.6782 39.4653 36.7503C39.5423 36.8175 39.6684 36.864 39.6949 36.9453C39.7398 37.0819 39.8267 37.0498 39.9105 37.0498C43.1854 37.0508 46.4603 37.0508 49.7351 37.0504C49.8062 37.0504 49.8776 37.0534 49.9478 37.0455C49.972 37.0429 50.0116 37.0111 50.0113 36.9937C50.0103 36.9629 49.989 36.9282 49.9668 36.9036C49.9251 36.8574 49.877 36.8168 49.8301 36.7703C49.7754 36.7149 49.7204 36.6595 49.6656 36.6042C49.6729 36.5953 49.6801 36.5862 49.6873 36.5773C49.6457 36.5704 49.604 36.5639 49.5621 36.557L49.5847 36.5311L48.6329 35.5763L48.6306 35.579C48.4681 35.4145 48.3056 35.2497 48.1431 35.0852L48.1385 35.0917C48.0847 35.0347 48.0313 34.9777 47.993 34.9368C47.8695 34.8136 47.763 34.7067 47.6454 34.5895C47.6008 34.5537 47.5389 34.5193 47.4982 34.4682C47.4406 34.3955 47.3783 34.3349 47.3089 34.2729C47.2057 34.1812 47.1382 34.0557 47.0064 33.9781C46.9196 33.9269 46.8787 33.8028 46.8056 33.7212C46.7512 33.6602 46.6791 33.6153 46.6028 33.5538C46.5661 33.5082 46.5323 33.4548 46.4874 33.4132C46.4491 33.3775 46.398 33.3555 46.3633 33.3172C46.2866 33.234 46.2099 33.1504 46.1021 33.0331C46.1087 33.0341 46.0671 33.0275 46.0713 33.0282C45.9924 32.9424 45.9393 32.885 45.8865 32.8277L45.8833 32.8287C45.7742 32.7212 45.665 32.6141 45.5559 32.5066L45.5582 32.4954C45.5088 32.4568 45.4573 32.4201 45.4098 32.3788C45.3449 32.3224 45.3331 32.2304 45.2244 32.193C45.1441 32.1652 45.1084 32.0256 45.0369 31.9509C44.9626 31.8729 44.8656 31.8166 44.7853 31.7432C44.747 31.7084 44.7247 31.656 44.6739 31.6255C44.6349 31.5721 44.6022 31.5122 44.5543 31.4679C44.5193 31.4355 44.4645 31.4237 44.4377 31.3867C44.3826 31.3313 44.3273 31.2756 44.2722 31.2202L44.2755 31.2166C44.1677 31.1111 44.0599 31.0056 43.9151 30.8638C43.8984 30.851 43.8427 30.8133 43.7938 30.7684C43.7352 30.7143 43.7355 30.6246 43.6244 30.5908C43.5402 30.5653 43.4944 30.425 43.4223 30.3444C43.3558 30.2701 43.2765 30.2078 43.2041 30.1387C43.1061 30.0453 43.0098 29.9509 42.9167 29.8493C42.8325 29.7723 42.7483 29.6954 42.6638 29.6187C42.6654 29.6161 42.6667 29.6131 42.6684 29.6105C42.5609 29.5043 42.4534 29.3985 42.3188 29.2651C42.3283 29.2006 42.2749 29.1436 42.1451 29.1629C42.1572 29.1475 42.1694 29.1318 42.1815 29.1164C42.1323 29.079 42.0727 29.0496 42.037 29.002C41.9773 28.9237 41.8813 28.8697 41.8358 28.8035C41.7539 28.6846 41.6464 28.6102 41.5468 28.5181C41.4643 28.4418 41.4102 28.3359 41.3316 28.2547C41.2565 28.177 41.1628 28.118 41.0842 28.0437C41.0465 28.008 41.0245 27.9552 40.9869 27.9247C40.9341 27.8756 40.881 27.8264 40.8283 27.7773C40.8375 27.7648 40.8466 27.7521 40.8558 27.7396C40.8099 27.7295 40.7641 27.7196 40.7185 27.7095C40.7254 27.7026 40.7323 27.6957 40.7388 27.6892C40.6841 27.6331 40.6297 27.5768 40.575 27.5207L40.5763 27.5181C40.4689 27.4123 40.3617 27.3061 40.2277 27.1741C40.1999 27.1521 40.1294 27.1213 40.0986 27.0673C40.0475 26.9782 39.9846 26.9116 39.8955 26.8648C39.8899 26.8618 39.8902 26.8438 39.8915 26.8333C39.9082 26.7157 39.6658 26.7871 39.7444 26.641C39.7785 26.5774 39.862 26.5407 39.9125 26.5004C39.9685 26.4307 40.0026 26.3759 40.0485 26.3347C40.0871 26.2996 40.1399 26.2796 40.2002 26.2452C40.2035 26.2206 40.209 26.1787 40.2159 26.1272C40.2618 26.1197 40.308 26.1125 40.3597 26.104C40.3663 26.0588 40.3725 26.0172 40.3804 25.9657C40.4253 25.9585 40.4715 25.9513 40.5177 25.9438C40.5098 25.9313 40.5016 25.9185 40.4938 25.9061C40.5416 25.8674 40.595 25.8337 40.6356 25.7888C40.671 25.7495 40.6917 25.6974 40.7326 25.6685C41.1068 25.294 41.4813 24.9199 41.8555 24.5454L41.8528 24.5395C41.9331 24.4703 42.0134 24.4015 42.1156 24.3137C42.149 24.4395 42.1431 24.5588 42.2463 24.5191C42.3204 24.5968 42.3741 24.6535 42.4279 24.7098L42.4377 24.7003C42.557 24.833 42.6726 24.969 42.7961 25.0974C42.918 25.2242 43.0468 25.3442 43.1736 25.4657C43.3004 25.5873 43.4285 25.7072 43.5435 25.816C43.6018 25.8805 43.6503 25.9343 43.6988 25.9877C43.7119 25.9785 43.7247 25.9693 43.7378 25.9601C43.747 26.006 43.7562 26.0519 43.7663 26.1033C43.8102 26.1105 43.8518 26.1174 43.902 26.1256C43.9092 26.1708 43.9164 26.2174 43.9246 26.2685C43.9714 26.275 44.0134 26.2809 44.0645 26.2881C44.0723 26.3324 44.0805 26.3782 44.0887 26.4244C44.0992 26.4162 44.1094 26.4077 44.1199 26.3995C44.495 26.774 44.8705 27.1485 45.2807 27.5578C45.2974 27.5755 45.3482 27.6282 45.4252 27.7085C45.4891 27.7003 45.5484 27.7501 45.5245 27.873C45.5776 27.8812 45.6192 27.8874 45.6716 27.8956C45.6798 27.9385 45.6883 27.9844 45.6981 28.0358C45.743 28.0427 45.785 28.0492 45.781 28.0486C45.8593 28.1325 45.9124 28.1895 45.9655 28.2462C45.9983 28.3261 46.0261 28.4083 46.1811 28.3638C46.1654 28.3834 46.1496 28.4031 46.1342 28.4228C46.184 28.4598 46.2397 28.4906 46.2817 28.5348C46.3567 28.6141 46.4242 28.7009 46.4933 28.7855C46.5061 28.8012 46.5091 28.8323 46.5235 28.8379C46.6693 28.8929 46.7505 29.007 46.8285 29.1344C46.8662 29.196 46.9485 29.2307 47.01 29.291C47.1178 29.3995 47.2256 29.5079 47.3331 29.6164L47.3105 29.6446C47.3521 29.6505 47.3937 29.6567 47.4478 29.6646C47.4321 29.7792 47.4802 29.8408 47.6047 29.8192C47.6116 29.8726 47.6172 29.9146 47.6237 29.9653C47.6696 29.9735 47.7158 29.9817 47.7689 29.9912L47.7872 30.1177C47.7954 30.1105 47.8033 30.1029 47.8115 30.0957C47.9209 30.2029 48.0303 30.3097 48.1401 30.4168C48.3023 30.5826 48.453 30.7632 48.6224 30.9178C48.7905 31.0718 48.9297 31.2442 49.0808 31.3664C49.1552 31.4358 49.2082 31.4856 49.2613 31.5351C49.2525 31.5476 49.2436 31.56 49.2348 31.5725C49.2807 31.581 49.3265 31.5892 49.3724 31.5977C49.3642 31.6065 49.3563 31.6154 49.3482 31.6242L49.4959 31.7818C49.5084 31.7727 49.5205 31.7635 49.533 31.7543C49.5415 31.8002 49.55 31.8464 49.5595 31.8968C49.6057 31.9044 49.6473 31.9109 49.6892 31.9178C49.6824 31.9253 49.6755 31.9325 49.6686 31.9401C49.722 31.9968 49.7754 32.0538 49.8393 32.1216C49.8822 32.1557 49.9333 32.1927 49.9799 32.2343C50.0359 32.2848 50.0903 32.3372 50.1414 32.3926C50.2158 32.4735 50.2846 32.559 50.3586 32.6403C50.4291 32.7173 50.5012 32.7929 50.5752 32.8663C50.6748 32.965 50.777 33.0606 50.8819 33.1557C50.932 33.2091 50.9821 33.2621 51.0323 33.3156L51.0087 33.3434C51.0503 33.3503 51.0916 33.3568 51.1427 33.3654C51.1496 33.4102 51.1571 33.4568 51.165 33.5079C51.2115 33.5144 51.2531 33.5203 51.3052 33.5279C51.3131 33.5721 51.3213 33.618 51.3301 33.6691C51.3766 33.676 51.4186 33.6825 51.4117 33.6812C51.4933 33.7667 51.547 33.8231 51.6299 33.9102C51.6525 33.9273 51.7138 33.9561 51.7485 34.0043C51.8065 34.0852 51.8842 34.1409 51.9507 34.2071C52.0467 34.3021 52.1299 34.407 52.2423 34.4905C52.3275 34.5537 52.3792 34.6609 52.451 34.7438C52.5159 34.8188 52.5863 34.8893 52.6577 34.9584C52.7023 35.0013 52.7531 35.038 52.8006 35.0852C52.8556 35.1406 52.9107 35.1963 52.9657 35.2516C52.9585 35.2602 52.9516 35.269 52.9444 35.2775C52.986 35.2834 53.028 35.2896 53.0814 35.2972C53.0621 35.4174 53.1181 35.4708 53.2364 35.4528C53.2442 35.5065 53.2501 35.5482 53.2573 35.5966C53.3032 35.6032 53.3452 35.6094 53.3959 35.617C53.4048 35.6609 53.4143 35.7071 53.4235 35.7526C53.4706 35.7674 53.5368 35.767 53.5575 35.7975C53.7901 36.1396 54.1495 36.3656 54.4077 36.6871C54.4516 36.7395 54.4909 36.7975 54.5411 36.8437C54.6331 36.9285 54.7321 37.0065 54.851 37.1065C54.852 37.1137 54.8573 37.1556 54.8638 37.2067C54.9113 37.2139 54.9575 37.2211 55.0145 37.23C54.9916 37.3551 55.0571 37.3994 55.1692 37.3863C55.177 37.4403 55.1833 37.4819 55.1892 37.5236C55.1987 37.516 55.2078 37.5085 55.2173 37.5009C55.3261 37.6068 55.4349 37.7129 55.5561 37.8309C55.5889 37.8715 55.6269 37.9233 55.6702 37.9705C55.7213 38.0262 55.7743 38.0806 55.8307 38.131C55.912 38.2038 55.9988 38.2696 56.0791 38.343C56.1564 38.4138 56.2291 38.4891 56.3015 38.5648C56.3418 38.6068 56.3779 38.6533 56.4316 38.6844C56.4595 38.7699 56.4699 38.8702 56.5666 38.8378C56.6357 38.9138 56.6846 38.9675 56.7331 39.0209C56.7458 39.0117 56.7589 39.0026 56.7717 38.9934C56.7806 39.0393 56.7894 39.0851 56.7996 39.1366C56.8438 39.1438 56.8857 39.1503 56.9359 39.1582C56.9427 39.2037 56.95 39.2503 56.9578 39.3014C57.0053 39.3079 57.0473 39.3138 57.0984 39.3207C57.1062 39.3656 57.1141 39.4115 57.122 39.4573C57.1351 39.4495 57.1485 39.4413 57.1616 39.4334C57.1993 39.4822 57.2442 39.5271 57.2733 39.5802C57.314 39.6543 57.4581 39.6117 57.4545 39.7529C57.4539 39.7748 57.5817 39.8594 57.639 39.938C57.7006 40.0225 57.8153 40.0668 57.8949 40.1411C57.909 40.1543 57.8785 40.2509 57.8461 40.2696C57.8048 40.2935 57.7402 40.2781 57.6855 40.2781C51.2996 40.2781 44.9137 40.2775 38.5279 40.2824C38.3129 40.2824 38.2077 40.1706 38.0983 40.0196C38.0377 39.936 37.942 39.8787 37.8627 39.8086C37.7825 39.7375 37.7009 39.667 37.6239 39.5923C37.5325 39.5042 37.4453 39.4118 37.3562 39.3217C37.2844 39.249 37.2127 39.1762 37.1403 39.1041C37.0492 39.0134 36.9535 38.9269 36.8667 38.8325C36.7933 38.7526 36.7245 38.6667 36.6629 38.5773C36.6127 38.5045 36.5059 38.5114 36.4728 38.3918C36.4496 38.307 36.2998 38.2621 36.2202 38.1854C36.1409 38.1091 36.081 38.0131 36.0076 37.9298C35.944 37.8574 35.8739 37.7906 35.8057 37.7221C35.7111 37.6274 35.618 37.5311 35.5197 37.4407C35.4391 37.3663 35.35 37.3011 35.2687 37.2277C35.1937 37.1599 35.1239 37.0861 35.0515 37.0157C34.9584 36.9249 34.8611 36.8384 34.7733 36.7431C34.6986 36.6618 34.6347 36.5711 34.5662 36.4839C34.5125 36.4158 34.4139 36.4122 34.3772 36.2978C34.3497 36.212 34.2026 36.1697 34.1236 36.093C34.0443 36.0164 33.986 35.9184 33.9129 35.8345C33.8497 35.7618 33.7786 35.6959 33.7108 35.6274C33.6167 35.5328 33.5217 35.4384 33.428 35.3434C33.3706 35.2851 33.3189 35.2202 33.257 35.1674C33.1734 35.0963 33.08 35.0367 32.9958 34.9666C32.9404 34.9204 32.89 34.867 32.8428 34.8119C32.771 34.7284 32.7058 34.6389 32.6341 34.555C32.5738 34.4846 32.5142 34.4125 32.4441 34.3526C32.3598 34.2808 32.2589 34.2281 32.1777 34.1537C32.1298 34.1101 32.1393 34.0344 32.0453 33.9987C31.9536 33.9636 31.8969 33.8385 31.8225 33.7553C31.7553 33.6799 31.6869 33.6052 31.6158 33.5334C31.5257 33.4427 31.431 33.3568 31.3409 33.2661C31.2832 33.2078 31.2354 33.1393 31.1741 33.0852C31.0909 33.0118 30.9962 32.9515 30.9116 32.8795C30.8415 32.8198 30.7704 32.7582 30.7147 32.6858C30.6295 32.5751 30.5421 32.4741 30.4257 32.3906C30.3386 32.328 30.2862 32.2192 30.2131 32.1354C30.1499 32.0626 30.0797 31.9958 30.0116 31.9273C29.9176 31.8326 29.8219 31.7392 29.7282 31.6442C29.6669 31.5823 29.6125 31.5125 29.5463 31.4565C29.4628 31.3857 29.3674 31.329 29.2826 31.2596C29.2308 31.217 29.1902 31.1609 29.1427 31.1131C29.0778 31.0479 28.9985 30.9928 28.9477 30.9181C28.8674 30.8002 28.7724 30.7068 28.6551 30.6239C28.5683 30.5626 28.5162 30.4529 28.4454 30.3677C28.3897 30.3005 28.3383 30.2232 28.2678 30.1763C28.0939 30.0604 27.9451 29.8412 27.7564 29.967C27.5988 30.1272 27.492 30.236 27.3851 30.3448L27.3829 30.3421C27.3281 30.3978 27.2737 30.4535 27.219 30.5092L27.2174 30.5191C27.1682 30.5567 27.1135 30.5895 27.0709 30.6337C26.9962 30.7117 26.9277 30.7959 26.8589 30.8791C26.8462 30.8945 26.8435 30.9349 26.836 30.9352C26.7338 30.9358 26.7236 31.0122 26.6787 31.081C26.624 31.1652 26.5034 31.2038 26.4222 31.2746C26.3868 31.3054 26.3783 31.367 26.3354 31.3923C26.2846 31.4463 26.2338 31.5 26.1833 31.5541L26.1722 31.5521C26.1322 31.6049 26.0985 31.6645 26.0503 31.7084C26.0149 31.7409 25.9609 31.7533 25.9363 31.7939C25.8291 31.9014 25.7223 32.0092 25.6001 32.1314C25.5637 32.1609 25.51 32.196 25.4671 32.2412C25.3806 32.3329 25.3 32.4302 25.2033 32.5187C25.1627 32.5731 25.1296 32.6354 25.0801 32.6799C24.9999 32.752 24.9039 32.807 24.8242 32.8798C24.7472 32.9502 24.6824 33.0338 24.6129 33.1124C24.5411 33.1937 24.4737 33.2785 24.3976 33.3555C24.3803 33.3729 24.3364 33.364 24.3278 33.3952C24.2794 33.4492 24.2312 33.5033 24.1827 33.5577L24.144 33.5308C24.1352 33.5767 24.126 33.6226 24.1172 33.6688C24.1044 33.6612 24.0919 33.6534 24.0792 33.6458C24.0392 33.6986 24.0054 33.7582 23.9573 33.8021C23.9216 33.8345 23.8672 33.8467 23.8102 33.8726C23.8154 33.9653 23.7862 34.0403 23.702 34.0157C23.6296 34.094 23.5769 34.1514 23.5241 34.2087L23.5192 34.2068C23.2518 34.4738 22.9845 34.7408 22.7171 35.0075L22.7191 35.0092C22.6156 35.1143 22.512 35.2195 22.4389 35.2936C22.3505 35.3679 22.2931 35.4073 22.2473 35.4571C22.1621 35.5495 22.0834 35.6481 21.9874 35.7375C21.9471 35.7906 21.9131 35.8503 21.8646 35.8942C21.8289 35.9266 21.7745 35.9387 21.7489 35.9777C21.6971 36.0305 21.6451 36.0832 21.571 36.1582C21.5369 36.1841 21.4858 36.2293 21.4288 36.2654C21.3633 36.307 21.3924 36.4076 21.2742 36.4381C21.1778 36.463 21.1143 36.615 21.0196 36.7002C20.9799 36.75 20.9452 36.8047 20.9 36.8483C20.8227 36.9226 20.7388 36.9905 20.6572 37.0606C20.6356 37.0793 20.61 37.094 20.592 37.1153C20.5523 37.1625 20.5163 37.2126 20.4681 37.2618C20.4121 37.3162 20.3564 37.3702 20.3004 37.4246L20.301 37.4374C20.2502 37.4728 20.1978 37.5059 20.1497 37.5442C20.128 37.5612 20.1162 37.5901 20.0979 37.612C20.074 37.6405 20.0491 37.6687 20.0222 37.6949C19.9927 37.7237 19.9593 37.7486 19.9298 37.7778C19.9124 37.7952 19.8977 37.8361 19.8859 37.8345C19.706 37.8109 19.6297 37.9806 19.4983 38.0462C19.4033 38.0937 19.3456 38.211 19.2627 38.2883C19.2309 38.3181 19.1739 38.3191 19.1323 38.3407C19.0661 38.3751 19.0029 38.4157 18.9521 38.4813L18.5406 38.7083C18.5301 38.6975 18.5196 38.6867 18.5091 38.6759C18.4977 38.7208 18.4865 38.7657 18.478 38.7988C18.365 38.8682 18.1651 38.7457 18.1657 38.978C18.0635 38.9878 17.9721 38.9967 17.8754 39.0058C17.863 39.0491 17.8512 39.09 17.8387 39.134C17.7234 39.1802 17.5337 39.0861 17.5137 39.3043C17.4135 39.3129 17.3214 39.321 17.2296 39.3289C17.2355 39.345 17.2411 39.3607 17.247 39.3767C17.1762 39.4092 17.1081 39.4521 17.0337 39.4708C16.958 39.4898 16.865 39.4623 16.8417 39.5763C16.8397 39.5868 16.8165 39.5959 16.8014 39.6002C16.5478 39.6687 16.2936 39.7342 16.0406 39.8056C15.9908 39.8197 15.9485 39.8581 15.9007 39.881C15.8548 39.9029 15.8073 39.9295 15.7582 39.9367C15.6559 39.9518 15.5501 39.9459 15.4495 39.9672C15.3778 39.9822 15.3132 40.0297 15.2441 40.0592C15.2058 40.0756 15.1648 40.0927 15.1238 40.0959C14.9718 40.1084 14.8175 40.1048 14.6674 40.128C14.5668 40.1438 14.4721 40.1968 14.3735 40.2286C14.3227 40.245 14.2687 40.2604 14.2159 40.2604C13.1517 40.263 12.0878 40.266 11.0236 40.2601C10.9322 40.2594 10.8434 40.1883 10.7497 40.1634C10.6613 40.1402 10.5685 40.1307 10.4771 40.1225C10.3739 40.1133 10.2697 40.1176 10.1668 40.1061C10.081 40.0966 10.0024 40.0989 9.92437 40.0137C9.86703 39.9514 9.7209 39.9711 9.61474 39.9531C9.50072 39.9334 9.38309 39.9675 9.28808 39.8338C9.24286 39.7702 9.07314 39.8007 8.96272 39.7761C8.91456 39.7653 8.87491 39.7195 8.82773 39.6972C8.77727 39.6736 8.72321 39.6556 8.66947 39.6408C8.55021 39.6081 8.38999 39.6752 8.33003 39.4957C8.32544 39.4819 8.26876 39.4881 8.2373 39.4809C8.14786 39.46 8.01909 39.5173 7.99779 39.3525C7.9955 39.3335 7.89163 39.3207 7.83429 39.3168C7.72453 39.3089 7.61542 39.3109 7.56267 39.1834C7.55481 39.1644 7.50599 39.1648 7.4788 39.1507C7.39852 39.1087 7.32054 39.0625 7.23994 39.0219C7.20848 39.0058 7.17244 38.9973 7.13738 38.9904C7.04663 38.9731 6.93621 39.0009 6.90705 38.8604C6.9018 38.8355 6.8153 38.8276 6.75043 38.807C6.74355 38.7765 6.73339 38.7313 6.72258 38.6825C6.63182 38.672 6.54598 38.6618 6.46013 38.652C6.46636 38.6415 6.47226 38.631 6.47848 38.6205C6.41721 38.5812 6.31629 38.5524 6.30221 38.5003C6.2488 38.303 5.99225 38.4128 5.9218 38.2185C5.88937 38.1287 5.72652 38.0822 5.6184 38.0245C5.55713 37.9918 5.46637 38.0108 5.45884 37.8981C5.4572 37.8758 5.3684 37.8591 5.33695 37.8184C5.25995 37.7437 5.18295 37.669 5.0709 37.5609C5.05353 37.5419 5.01225 37.4862 4.96146 37.4413C4.86743 37.3581 4.76782 37.2808 4.64463 37.1799C4.64397 37.1759 4.63644 37.1343 4.63349 37.1179C4.53323 37.0377 4.4441 36.9757 4.36612 36.902C4.28814 36.8283 4.22098 36.7428 4.14889 36.6625C4.08271 36.5891 4.02471 36.5046 3.94772 36.4456C3.83631 36.3604 3.74359 36.2729 3.67314 36.1435C3.6181 36.0423 3.48933 35.981 3.40808 35.8866C3.36155 35.8421 3.30814 35.8021 3.27014 35.751C3.23803 35.7077 3.22656 35.6494 3.20035 35.6009C3.16856 35.5423 3.13088 35.4869 3.0955 35.4302L3.04897 35.4528C3.04242 35.4053 3.03587 35.3581 3.02833 35.3031C2.98705 35.2955 2.94576 35.2877 2.91005 35.2811C2.82945 35.133 2.75081 34.9895 2.6902 34.8784C2.63253 34.7969 2.6073 34.7248 2.55717 34.6976C2.39203 34.6075 2.46838 34.3624 2.28391 34.2897C2.27048 34.2844 2.26655 34.2526 2.25999 34.2326C2.22723 34.1343 2.26753 33.9967 2.11026 33.964C2.09682 33.9613 2.09944 33.903 2.08634 33.8742C2.05259 33.7992 2.09748 33.6789 1.96019 33.6579C1.94414 33.6553 1.94217 33.58 1.92841 33.54C1.9022 33.464 1.95102 33.3444 1.80096 33.3332C1.78228 33.3319 1.7695 33.2081 1.76033 33.1399C1.74689 33.0393 1.75574 32.9381 1.63746 32.8772C1.6024 32.8591 1.60404 32.7615 1.59748 32.6996C1.58962 32.6255 1.60535 32.5541 1.49886 32.521C1.46249 32.5099 1.45037 32.4027 1.43792 32.3372C1.41629 32.2245 1.48051 32.082 1.30981 32.024C1.28655 32.0161 1.28229 31.9355 1.27868 31.888C1.27082 31.7736 1.26951 31.6593 1.26328 31.5449C1.26164 31.5132 1.25837 31.4578 1.24526 31.4542C1.05424 31.4047 1.13484 31.2474 1.1142 31.1324C1.08799 30.9869 1.15581 30.8208 0.996903 30.7035C0.958568 30.6754 0.961189 30.5816 0.95824 30.5174C0.949394 30.3267 0.952343 30.1354 0.940875 29.945C0.933667 29.8254 0.997558 29.6816 0.841925 29.6007C0.827508 29.5931 0.828163 29.5499 0.828163 29.5233C0.827508 28.9247 0.827508 28.3258 0.828163 27.7272C0.828163 27.7055 0.824232 27.6747 0.836027 27.6636C1.01886 27.4968 0.921544 27.2773 0.945134 27.082C0.960206 26.9582 0.950049 26.8314 0.956274 26.7059C0.958896 26.6521 0.954964 26.5807 0.986418 26.5493C1.16269 26.3723 1.09258 26.1472 1.11846 25.9415C1.12698 25.8727 1.10929 25.798 1.21348 25.7803C1.2351 25.7767 1.25706 25.7128 1.26066 25.6751C1.27082 25.5722 1.2682 25.468 1.27672 25.3648C1.28392 25.279 1.25837 25.1823 1.38877 25.1423C1.42186 25.1322 1.41892 25.0077 1.43464 24.9362C1.45627 24.8366 1.39238 24.7062 1.55915 24.6564C1.59257 24.6466 1.58536 24.509 1.60174 24.4313C1.62075 24.3409 1.56603 24.2141 1.72494 24.1869C1.74329 24.184 1.7446 24.1011 1.75967 24.0575C1.78457 23.9861 1.72789 23.8674 1.87042 23.8606C1.88123 23.8599 1.89827 23.8399 1.90023 23.8271C1.92055 23.6902 1.93857 23.5627 2.05062 23.4513C2.11484 23.3874 2.048 23.2213 2.20986 23.1945C2.22395 23.1922 2.22428 23.125 2.23607 23.0896C2.26065 23.0162 2.22231 22.9012 2.35894 22.8983C2.36648 22.8983 2.37926 22.8848 2.38057 22.8763C2.39826 22.7426 2.4189 22.6162 2.55291 22.5346C2.60402 22.5034 2.62696 22.4261 2.663 22.3701L2.65743 22.3583Z" fill="black"/>
</svg>
