<svg width="23" height="19" viewBox="0 0 23 19" fill="none" xmlns="http://www.w3.org/2000/svg">
<path d="M22.8713 2.48919C22.0576 2.85141 21.1832 3.09626 20.2654 3.20635C21.2021 2.64268 21.9216 1.75012 22.2604 0.686516C21.3836 1.20852 20.4127 1.58753 19.3791 1.79175C18.5515 0.906566 17.3723 0.353516 16.0673 0.353516C13.5615 0.353516 11.53 2.39267 11.53 4.90795C11.53 5.26493 11.5702 5.61254 11.6475 5.94593C7.87668 5.75593 4.53341 3.94273 2.2956 1.1871C1.90504 1.85978 1.68125 2.64216 1.68125 3.47687C1.68125 5.05706 2.48225 6.45116 3.69972 7.26792C2.95596 7.24425 2.25634 7.03937 1.64467 6.69822C1.64423 6.71721 1.64423 6.73629 1.64423 6.7555C1.64423 8.96224 3.20825 10.803 5.28382 11.2215C4.90315 11.3255 4.50227 11.3814 4.08847 11.3814C3.79608 11.3814 3.51187 11.3528 3.23478 11.2995C3.8122 13.1089 5.48778 14.4259 7.47325 14.4626C5.92042 15.6843 3.96402 16.4123 1.83822 16.4123C1.47198 16.4123 1.11083 16.3908 0.755859 16.3485C2.76379 17.6409 5.14875 18.395 7.71103 18.395C16.0566 18.395 20.6204 11.4548 20.6204 5.43603C20.6204 5.23857 20.6159 5.04215 20.6072 4.84677C21.4938 4.20466 22.2631 3.40251 22.8713 2.48919Z" fill="white"/>
</svg>
