<svg width="49" height="49" viewBox="0 0 49 49" fill="none" xmlns="http://www.w3.org/2000/svg">
<g clip-path="url(#clip0_1221_2092)">
<path d="M27.3683 37.8805L24.6979 39.4208L18.9609 36.1146L21.5663 34.6125L21.6313 34.5742L21.7308 34.6315L27.3683 37.8805Z" fill="black"/>
<path d="M37.6236 17.0756V20.1767L31.9767 16.9217L30.4454 16.0385L28.9139 16.9217L21.7354 21.06L20.2041 21.9432V23.7686L17.4419 22.1766L15.9106 21.2933L14.3793 22.1766L11.7812 23.6716V17.0756L24.7025 9.62891L37.6236 17.0756Z" fill="black"/>
<path d="M37.6224 23.7098V31.9849L30.444 36.1222L30.4344 36.1165L23.2656 31.9849V23.7098L30.444 19.5703L37.6224 23.7098Z" fill="black"/>
<path d="M20.0384 27.2035V31.9621L15.9098 34.3433L11.7812 31.9621V27.2035L15.9098 24.8242L20.0384 27.2035Z" fill="black"/>
<path d="M24.5396 2.7342C12.5933 2.7342 2.85919 12.4522 2.85919 24.3789C2.85919 36.3056 12.5933 46.0236 24.5396 46.0236C36.486 46.0236 46.2201 36.3056 46.2201 24.3789C46.2201 12.4522 36.486 2.7342 24.5396 2.7342ZM24.5396 0.378906C37.7951 0.378906 48.5793 11.1453 48.5793 24.3789C48.5793 37.6126 37.7951 48.3789 24.5396 48.3789C11.2841 48.3789 0.5 37.6126 0.5 24.3789C0.5 11.1453 11.2841 0.378906 24.5396 0.378906Z" fill="black"/>
</g>
<defs>
<clipPath id="clip0_1221_2092">
<rect width="48.0794" height="48" fill="white" transform="translate(0.5 0.378906)"/>
</clipPath>
</defs>
</svg>
