<svg width="24" height="24" viewBox="0 0 24 24" fill="none" xmlns="http://www.w3.org/2000/svg">
<g clip-path="url(#clip0_0_3)">
<path fill-rule="evenodd" clip-rule="evenodd" d="M18.384 22.779C18.706 23.007 19.121 23.064 19.491 22.924C19.861 22.783 20.133 22.467 20.215 22.084C21.084 18 23.192 7.663 23.983 3.948C24.043 3.668 23.943 3.377 23.723 3.19C23.503 3.003 23.198 2.949 22.926 3.05C18.733 4.602 5.82 9.44699 0.542001 11.4C0.207001 11.524 -0.0109989 11.846 1.12521e-06 12.199C0.0120011 12.553 0.250001 12.86 0.593001 12.963C2.96 13.671 6.067 14.656 6.067 14.656C6.067 14.656 7.519 19.041 8.276 21.271C8.371 21.551 8.59 21.771 8.879 21.847C9.167 21.922 9.475 21.843 9.69 21.64C10.906 20.492 12.786 18.717 12.786 18.717C12.786 18.717 16.358 21.336 18.384 22.779V22.779ZM7.374 14.102L9.053 19.64L9.426 16.133C9.426 16.133 15.913 10.282 19.611 6.947C19.719 6.849 19.734 6.685 19.644 6.57C19.555 6.455 19.391 6.428 19.268 6.506C14.982 9.243 7.374 14.102 7.374 14.102Z" fill="white"/>
</g>
<defs>
<clipPath id="clip0_0_3">
<rect width="24" height="24" fill="white"/>
</clipPath>
</defs>
</svg>
